<mxfile host="app.diagrams.net" agent="Mozilla/5.0 (Windows NT 10.0; Win64; x64) AppleWebKit/537.36 (KHTML, like Gecko) Chrome/130.0.0.0 Safari/537.36" version="24.8.0" pages="2">
  <diagram name="Page-1" id="VqfginliFecTR1JRzVdc">
    <mxGraphModel dx="1909" dy="2118" grid="1" gridSize="10" guides="1" tooltips="1" connect="1" arrows="1" fold="1" page="1" pageScale="1" pageWidth="827" pageHeight="1169" math="0" shadow="0">
      <root>
        <mxCell id="0" />
        <mxCell id="1" parent="0" />
        <mxCell id="O6sKgu8zDXKuF5QFTAMl-10" style="edgeStyle=orthogonalEdgeStyle;rounded=0;orthogonalLoop=1;jettySize=auto;html=1;exitX=0;exitY=0.75;exitDx=0;exitDy=0;entryX=0;entryY=0.75;entryDx=0;entryDy=0;" parent="1" source="O6sKgu8zDXKuF5QFTAMl-1" target="O6sKgu8zDXKuF5QFTAMl-8" edge="1">
          <mxGeometry relative="1" as="geometry">
            <Array as="points">
              <mxPoint x="430" y="750" />
              <mxPoint x="240" y="750" />
              <mxPoint x="240" y="170" />
            </Array>
          </mxGeometry>
        </mxCell>
        <mxCell id="O6sKgu8zDXKuF5QFTAMl-1" value="&lt;div style=&quot;background-color: rgb(31, 31, 31); line-height: 19px;&quot;&gt;&lt;div style=&quot;line-height: 19px;&quot;&gt;&lt;font face=&quot;Consolas, Courier New, monospace&quot; color=&quot;#cccccc&quot;&gt;&lt;span style=&quot;font-size: 14px; white-space: pre;&quot;&gt;def solve_sudoku(grid):&lt;/span&gt;&lt;/font&gt;&lt;/div&gt;&lt;div style=&quot;line-height: 19px;&quot;&gt;&lt;font face=&quot;Consolas, Courier New, monospace&quot; color=&quot;#cccccc&quot;&gt;&lt;span style=&quot;font-size: 14px; white-space: pre;&quot;&gt;&amp;nbsp; &amp;nbsp; row, col = find_empty_location(grid)&lt;/span&gt;&lt;/font&gt;&lt;/div&gt;&lt;div style=&quot;line-height: 19px;&quot;&gt;&lt;font face=&quot;Consolas, Courier New, monospace&quot; color=&quot;#cccccc&quot;&gt;&lt;span style=&quot;font-size: 14px; white-space: pre;&quot;&gt;&lt;br&gt;&lt;/span&gt;&lt;/font&gt;&lt;/div&gt;&lt;div style=&quot;line-height: 19px;&quot;&gt;&lt;font face=&quot;Consolas, Courier New, monospace&quot; color=&quot;#cccccc&quot;&gt;&lt;span style=&quot;font-size: 14px; white-space: pre;&quot;&gt;&amp;nbsp; &amp;nbsp; # If no empty location, puzzle is solved&lt;/span&gt;&lt;/font&gt;&lt;/div&gt;&lt;div style=&quot;line-height: 19px;&quot;&gt;&lt;font face=&quot;Consolas, Courier New, monospace&quot; color=&quot;#cccccc&quot;&gt;&lt;span style=&quot;font-size: 14px; white-space: pre;&quot;&gt;&amp;nbsp; &amp;nbsp; if row == -1 and col == -1:&lt;/span&gt;&lt;/font&gt;&lt;/div&gt;&lt;div style=&quot;line-height: 19px;&quot;&gt;&lt;font face=&quot;Consolas, Courier New, monospace&quot; color=&quot;#cccccc&quot;&gt;&lt;span style=&quot;font-size: 14px; white-space: pre;&quot;&gt;&amp;nbsp; &amp;nbsp; &amp;nbsp; &amp;nbsp; return True&lt;/span&gt;&lt;/font&gt;&lt;/div&gt;&lt;div style=&quot;line-height: 19px;&quot;&gt;&lt;font face=&quot;Consolas, Courier New, monospace&quot; color=&quot;#cccccc&quot;&gt;&lt;span style=&quot;font-size: 14px; white-space: pre;&quot;&gt;&lt;br&gt;&lt;/span&gt;&lt;/font&gt;&lt;/div&gt;&lt;div style=&quot;line-height: 19px;&quot;&gt;&lt;font face=&quot;Consolas, Courier New, monospace&quot; color=&quot;#cccccc&quot;&gt;&lt;span style=&quot;font-size: 14px; white-space: pre;&quot;&gt;&amp;nbsp; &amp;nbsp; # Try numbers 1 to 9 in the empty cell&lt;/span&gt;&lt;/font&gt;&lt;/div&gt;&lt;div style=&quot;line-height: 19px;&quot;&gt;&lt;font face=&quot;Consolas, Courier New, monospace&quot; color=&quot;#cccccc&quot;&gt;&lt;span style=&quot;font-size: 14px; white-space: pre;&quot;&gt;&amp;nbsp; &amp;nbsp; for num in range(1, 10):&lt;/span&gt;&lt;/font&gt;&lt;/div&gt;&lt;div style=&quot;line-height: 19px;&quot;&gt;&lt;font face=&quot;Consolas, Courier New, monospace&quot; color=&quot;#cccccc&quot;&gt;&lt;span style=&quot;font-size: 14px; white-space: pre;&quot;&gt;&amp;nbsp; &amp;nbsp; &amp;nbsp; &amp;nbsp; if is_safe(grid, row, col, num):&lt;/span&gt;&lt;/font&gt;&lt;/div&gt;&lt;div style=&quot;line-height: 19px;&quot;&gt;&lt;font face=&quot;Consolas, Courier New, monospace&quot; color=&quot;#cccccc&quot;&gt;&lt;span style=&quot;font-size: 14px; white-space: pre;&quot;&gt;&amp;nbsp; &amp;nbsp; &amp;nbsp; &amp;nbsp; &amp;nbsp; &amp;nbsp; grid[row][col] = num&lt;/span&gt;&lt;/font&gt;&lt;/div&gt;&lt;div style=&quot;line-height: 19px;&quot;&gt;&lt;font face=&quot;Consolas, Courier New, monospace&quot; color=&quot;#cccccc&quot;&gt;&lt;span style=&quot;font-size: 14px; white-space: pre;&quot;&gt;&lt;br&gt;&lt;/span&gt;&lt;/font&gt;&lt;/div&gt;&lt;div style=&quot;line-height: 19px;&quot;&gt;&lt;font face=&quot;Consolas, Courier New, monospace&quot; color=&quot;#cccccc&quot;&gt;&lt;span style=&quot;font-size: 14px; white-space: pre;&quot;&gt;&amp;nbsp; &amp;nbsp; &amp;nbsp; &amp;nbsp; &amp;nbsp; &amp;nbsp; # Recur to solve the rest of the grid&lt;/span&gt;&lt;/font&gt;&lt;/div&gt;&lt;div style=&quot;line-height: 19px;&quot;&gt;&lt;font face=&quot;Consolas, Courier New, monospace&quot; color=&quot;#cccccc&quot;&gt;&lt;span style=&quot;font-size: 14px; white-space: pre;&quot;&gt;&amp;nbsp; &amp;nbsp; &amp;nbsp; &amp;nbsp; &amp;nbsp; &amp;nbsp; if solve_sudoku(grid):&lt;/span&gt;&lt;/font&gt;&lt;/div&gt;&lt;div style=&quot;line-height: 19px;&quot;&gt;&lt;font face=&quot;Consolas, Courier New, monospace&quot; color=&quot;#cccccc&quot;&gt;&lt;span style=&quot;font-size: 14px; white-space: pre;&quot;&gt;&amp;nbsp; &amp;nbsp; &amp;nbsp; &amp;nbsp; &amp;nbsp; &amp;nbsp; &amp;nbsp; &amp;nbsp; return True&lt;/span&gt;&lt;/font&gt;&lt;/div&gt;&lt;div style=&quot;line-height: 19px;&quot;&gt;&lt;font face=&quot;Consolas, Courier New, monospace&quot; color=&quot;#cccccc&quot;&gt;&lt;span style=&quot;font-size: 14px; white-space: pre;&quot;&gt;&lt;br&gt;&lt;/span&gt;&lt;/font&gt;&lt;/div&gt;&lt;div style=&quot;line-height: 19px;&quot;&gt;&lt;font face=&quot;Consolas, Courier New, monospace&quot; color=&quot;#cccccc&quot;&gt;&lt;span style=&quot;font-size: 14px; white-space: pre;&quot;&gt;&amp;nbsp; &amp;nbsp; &amp;nbsp; &amp;nbsp; &amp;nbsp; &amp;nbsp; # If placing &#39;num&#39; doesn&#39;t lead to a solution, reset the cell and backtrack&lt;/span&gt;&lt;/font&gt;&lt;/div&gt;&lt;div style=&quot;line-height: 19px;&quot;&gt;&lt;font face=&quot;Consolas, Courier New, monospace&quot; color=&quot;#cccccc&quot;&gt;&lt;span style=&quot;font-size: 14px; white-space: pre;&quot;&gt;&amp;nbsp; &amp;nbsp; &amp;nbsp; &amp;nbsp; &amp;nbsp; &amp;nbsp; grid[row][col] = 0&lt;/span&gt;&lt;/font&gt;&lt;/div&gt;&lt;div style=&quot;line-height: 19px;&quot;&gt;&lt;font face=&quot;Consolas, Courier New, monospace&quot; color=&quot;#cccccc&quot;&gt;&lt;span style=&quot;font-size: 14px; white-space: pre;&quot;&gt;&lt;br&gt;&lt;/span&gt;&lt;/font&gt;&lt;/div&gt;&lt;div style=&quot;line-height: 19px;&quot;&gt;&lt;font face=&quot;Consolas, Courier New, monospace&quot; color=&quot;#cccccc&quot;&gt;&lt;span style=&quot;font-size: 14px; white-space: pre;&quot;&gt;&amp;nbsp; &amp;nbsp; return False&lt;/span&gt;&lt;/font&gt;&lt;/div&gt;&lt;/div&gt;" style="rounded=1;whiteSpace=wrap;html=1;arcSize=2;align=left;verticalAlign=top;fillColor=none;strokeColor=default;" parent="1" vertex="1">
          <mxGeometry x="430" y="420" width="690" height="400" as="geometry" />
        </mxCell>
        <mxCell id="O6sKgu8zDXKuF5QFTAMl-2" value="&lt;div style=&quot;background-color: rgb(31, 31, 31); line-height: 19px;&quot;&gt;&lt;div style=&quot;line-height: 19px;&quot;&gt;&lt;div style=&quot;color: rgb(204, 204, 204); font-family: Consolas, &amp;quot;Courier New&amp;quot;, monospace; font-size: 14px; line-height: 19px; white-space: pre;&quot;&gt;&lt;div&gt;&lt;span style=&quot;color: #569cd6;&quot;&gt;def&lt;/span&gt; &lt;span style=&quot;color: #dcdcaa;&quot;&gt;find_empty_location&lt;/span&gt;(&lt;span style=&quot;color: #9cdcfe;&quot;&gt;grid&lt;/span&gt;):&lt;/div&gt;&lt;div&gt;&amp;nbsp; &amp;nbsp; &lt;span style=&quot;color: #c586c0;&quot;&gt;for&lt;/span&gt; i &lt;span style=&quot;color: #c586c0;&quot;&gt;in&lt;/span&gt; &lt;span style=&quot;color: #dcdcaa;&quot;&gt;range&lt;/span&gt;(&lt;span style=&quot;color: #b5cea8;&quot;&gt;9&lt;/span&gt;):&lt;/div&gt;&lt;div&gt;&amp;nbsp; &amp;nbsp; &amp;nbsp; &amp;nbsp; &lt;span style=&quot;color: #c586c0;&quot;&gt;for&lt;/span&gt; j &lt;span style=&quot;color: #c586c0;&quot;&gt;in&lt;/span&gt; &lt;span style=&quot;color: #dcdcaa;&quot;&gt;range&lt;/span&gt;(&lt;span style=&quot;color: #b5cea8;&quot;&gt;9&lt;/span&gt;):&lt;/div&gt;&lt;div&gt;&amp;nbsp; &amp;nbsp; &amp;nbsp; &amp;nbsp; &amp;nbsp; &amp;nbsp; &lt;span style=&quot;color: #c586c0;&quot;&gt;if&lt;/span&gt; grid[i][j] &lt;span style=&quot;color: #d4d4d4;&quot;&gt;==&lt;/span&gt; &lt;span style=&quot;color: #b5cea8;&quot;&gt;0&lt;/span&gt;: &amp;nbsp;&lt;span style=&quot;color: #6a9955;&quot;&gt;# 0 represents an empty cell&lt;/span&gt;&lt;/div&gt;&lt;div&gt;&amp;nbsp; &amp;nbsp; &amp;nbsp; &amp;nbsp; &amp;nbsp; &amp;nbsp; &amp;nbsp; &amp;nbsp; &lt;span style=&quot;color: #c586c0;&quot;&gt;return&lt;/span&gt; (i, j)&lt;/div&gt;&lt;div&gt;&amp;nbsp; &amp;nbsp; &lt;span style=&quot;color: #c586c0;&quot;&gt;return&lt;/span&gt; (&lt;span style=&quot;color: #d4d4d4;&quot;&gt;-&lt;/span&gt;&lt;span style=&quot;color: #b5cea8;&quot;&gt;1&lt;/span&gt;, &lt;span style=&quot;color: #d4d4d4;&quot;&gt;-&lt;/span&gt;&lt;span style=&quot;color: #b5cea8;&quot;&gt;1&lt;/span&gt;)&lt;/div&gt;&lt;/div&gt;&lt;/div&gt;&lt;/div&gt;" style="rounded=1;whiteSpace=wrap;html=1;arcSize=2;align=left;verticalAlign=top;fillColor=none;strokeColor=default;" parent="1" vertex="1">
          <mxGeometry x="1200" y="405" width="480" height="135" as="geometry" />
        </mxCell>
        <mxCell id="O6sKgu8zDXKuF5QFTAMl-3" style="edgeStyle=orthogonalEdgeStyle;rounded=0;orthogonalLoop=1;jettySize=auto;html=1;exitX=0;exitY=0.5;exitDx=0;exitDy=0;entryX=1;entryY=0.125;entryDx=0;entryDy=0;entryPerimeter=0;" parent="1" source="O6sKgu8zDXKuF5QFTAMl-2" target="O6sKgu8zDXKuF5QFTAMl-1" edge="1">
          <mxGeometry relative="1" as="geometry" />
        </mxCell>
        <mxCell id="O6sKgu8zDXKuF5QFTAMl-5" style="edgeStyle=orthogonalEdgeStyle;rounded=0;orthogonalLoop=1;jettySize=auto;html=1;exitX=0;exitY=0.25;exitDx=0;exitDy=0;entryX=1;entryY=0.5;entryDx=0;entryDy=0;" parent="1" source="O6sKgu8zDXKuF5QFTAMl-4" target="O6sKgu8zDXKuF5QFTAMl-1" edge="1">
          <mxGeometry relative="1" as="geometry" />
        </mxCell>
        <mxCell id="O6sKgu8zDXKuF5QFTAMl-4" value="&lt;div style=&quot;background-color: rgb(31, 31, 31); line-height: 19px;&quot;&gt;&lt;div style=&quot;line-height: 19px;&quot;&gt;&lt;div style=&quot;color: rgb(204, 204, 204); font-family: Consolas, &amp;quot;Courier New&amp;quot;, monospace; font-size: 14px; line-height: 19px; white-space: pre;&quot;&gt;&lt;div style=&quot;line-height: 19px;&quot;&gt;&lt;div&gt;&lt;span style=&quot;color: #6a9955;&quot;&gt;# Function to check if it&#39;s safe to place a number in a cell&lt;/span&gt;&lt;/div&gt;&lt;div&gt;&lt;span style=&quot;color: #569cd6;&quot;&gt;def&lt;/span&gt; &lt;span style=&quot;color: #dcdcaa;&quot;&gt;is_safe&lt;/span&gt;(&lt;span style=&quot;color: #9cdcfe;&quot;&gt;grid&lt;/span&gt;, &lt;span style=&quot;color: #9cdcfe;&quot;&gt;row&lt;/span&gt;, &lt;span style=&quot;color: #9cdcfe;&quot;&gt;col&lt;/span&gt;, &lt;span style=&quot;color: #9cdcfe;&quot;&gt;num&lt;/span&gt;):&lt;/div&gt;&lt;div&gt;&amp;nbsp; &amp;nbsp; &lt;span style=&quot;color: #6a9955;&quot;&gt;# Check if &#39;num&#39; is not in the current row, column, and 3x3 sub-grid&lt;/span&gt;&lt;/div&gt;&lt;br&gt;&lt;div&gt;&amp;nbsp; &amp;nbsp; &lt;span style=&quot;color: #6a9955;&quot;&gt;# Check row&lt;/span&gt;&lt;/div&gt;&lt;div&gt;&amp;nbsp; &amp;nbsp; &lt;span style=&quot;color: #c586c0;&quot;&gt;if&lt;/span&gt; num &lt;span style=&quot;color: #569cd6;&quot;&gt;in&lt;/span&gt; grid[row]:&lt;/div&gt;&lt;div&gt;&amp;nbsp; &amp;nbsp; &amp;nbsp; &amp;nbsp; &lt;span style=&quot;color: #c586c0;&quot;&gt;return&lt;/span&gt; &lt;span style=&quot;color: #569cd6;&quot;&gt;False&lt;/span&gt;&lt;/div&gt;&lt;br&gt;&lt;div&gt;&amp;nbsp; &amp;nbsp; &lt;span style=&quot;color: #6a9955;&quot;&gt;# Check column&lt;/span&gt;&lt;/div&gt;&lt;div&gt;&amp;nbsp; &amp;nbsp; &lt;span style=&quot;color: #c586c0;&quot;&gt;for&lt;/span&gt; i &lt;span style=&quot;color: #c586c0;&quot;&gt;in&lt;/span&gt; &lt;span style=&quot;color: #dcdcaa;&quot;&gt;range&lt;/span&gt;(&lt;span style=&quot;color: #b5cea8;&quot;&gt;9&lt;/span&gt;):&lt;/div&gt;&lt;div&gt;&amp;nbsp; &amp;nbsp; &amp;nbsp; &amp;nbsp; &lt;span style=&quot;color: #c586c0;&quot;&gt;if&lt;/span&gt; grid[i][col] &lt;span style=&quot;color: #d4d4d4;&quot;&gt;==&lt;/span&gt; num:&lt;/div&gt;&lt;div&gt;&amp;nbsp; &amp;nbsp; &amp;nbsp; &amp;nbsp; &amp;nbsp; &amp;nbsp; &lt;span style=&quot;color: #c586c0;&quot;&gt;return&lt;/span&gt; &lt;span style=&quot;color: #569cd6;&quot;&gt;False&lt;/span&gt;&lt;/div&gt;&lt;br&gt;&lt;div&gt;&amp;nbsp; &amp;nbsp; &lt;span style=&quot;color: #6a9955;&quot;&gt;# Check 3x3 sub-grid&lt;/span&gt;&lt;/div&gt;&lt;div&gt;&amp;nbsp; &amp;nbsp; start_row, start_col &lt;span style=&quot;color: #d4d4d4;&quot;&gt;=&lt;/span&gt; &lt;span style=&quot;color: #b5cea8;&quot;&gt;3&lt;/span&gt; &lt;span style=&quot;color: #d4d4d4;&quot;&gt;*&lt;/span&gt; (row &lt;span style=&quot;color: #d4d4d4;&quot;&gt;//&lt;/span&gt; &lt;span style=&quot;color: #b5cea8;&quot;&gt;3&lt;/span&gt;), &lt;span style=&quot;color: #b5cea8;&quot;&gt;3&lt;/span&gt; &lt;span style=&quot;color: #d4d4d4;&quot;&gt;*&lt;/span&gt; (col &lt;span style=&quot;color: #d4d4d4;&quot;&gt;//&lt;/span&gt; &lt;span style=&quot;color: #b5cea8;&quot;&gt;3&lt;/span&gt;)&lt;/div&gt;&lt;div&gt;&amp;nbsp; &amp;nbsp; &lt;span style=&quot;color: #c586c0;&quot;&gt;for&lt;/span&gt; i &lt;span style=&quot;color: #c586c0;&quot;&gt;in&lt;/span&gt; &lt;span style=&quot;color: #dcdcaa;&quot;&gt;range&lt;/span&gt;(start_row, start_row &lt;span style=&quot;color: #d4d4d4;&quot;&gt;+&lt;/span&gt; &lt;span style=&quot;color: #b5cea8;&quot;&gt;3&lt;/span&gt;):&lt;/div&gt;&lt;div&gt;&amp;nbsp; &amp;nbsp; &amp;nbsp; &amp;nbsp; &lt;span style=&quot;color: #c586c0;&quot;&gt;for&lt;/span&gt; j &lt;span style=&quot;color: #c586c0;&quot;&gt;in&lt;/span&gt; &lt;span style=&quot;color: #dcdcaa;&quot;&gt;range&lt;/span&gt;(start_col, start_col &lt;span style=&quot;color: #d4d4d4;&quot;&gt;+&lt;/span&gt; &lt;span style=&quot;color: #b5cea8;&quot;&gt;3&lt;/span&gt;):&lt;/div&gt;&lt;div&gt;&amp;nbsp; &amp;nbsp; &amp;nbsp; &amp;nbsp; &amp;nbsp; &amp;nbsp; &lt;span style=&quot;color: #c586c0;&quot;&gt;if&lt;/span&gt; grid[i][j] &lt;span style=&quot;color: #d4d4d4;&quot;&gt;==&lt;/span&gt; num:&lt;/div&gt;&lt;div&gt;&amp;nbsp; &amp;nbsp; &amp;nbsp; &amp;nbsp; &amp;nbsp; &amp;nbsp; &amp;nbsp; &amp;nbsp; &lt;span style=&quot;color: #c586c0;&quot;&gt;return&lt;/span&gt; &lt;span style=&quot;color: #569cd6;&quot;&gt;False&lt;/span&gt;&lt;/div&gt;&lt;br&gt;&lt;div&gt;&amp;nbsp; &amp;nbsp; &lt;span style=&quot;color: #c586c0;&quot;&gt;return&lt;/span&gt; &lt;span style=&quot;color: #569cd6;&quot;&gt;True&lt;/span&gt;&lt;/div&gt;&lt;/div&gt;&lt;/div&gt;&lt;/div&gt;&lt;/div&gt;" style="rounded=1;whiteSpace=wrap;html=1;arcSize=2;align=left;verticalAlign=top;fillColor=none;strokeColor=default;" parent="1" vertex="1">
          <mxGeometry x="1200" y="540" width="560" height="400" as="geometry" />
        </mxCell>
        <mxCell id="O6sKgu8zDXKuF5QFTAMl-6" style="edgeStyle=orthogonalEdgeStyle;rounded=0;orthogonalLoop=1;jettySize=auto;html=1;exitX=0;exitY=0.75;exitDx=0;exitDy=0;entryX=0.149;entryY=0.002;entryDx=0;entryDy=0;entryPerimeter=0;" parent="1" source="O6sKgu8zDXKuF5QFTAMl-1" target="O6sKgu8zDXKuF5QFTAMl-1" edge="1">
          <mxGeometry relative="1" as="geometry">
            <Array as="points">
              <mxPoint x="320" y="720" />
              <mxPoint x="320" y="340" />
              <mxPoint x="530" y="340" />
              <mxPoint x="530" y="400" />
              <mxPoint x="533" y="400" />
            </Array>
          </mxGeometry>
        </mxCell>
        <mxCell id="O6sKgu8zDXKuF5QFTAMl-7" value="Keep resolving until whole grid is traversed and resolved.&amp;nbsp;" style="text;html=1;align=center;verticalAlign=middle;whiteSpace=wrap;rounded=0;strokeColor=default;" parent="1" vertex="1">
          <mxGeometry x="333" y="580" width="87" height="80" as="geometry" />
        </mxCell>
        <mxCell id="O6sKgu8zDXKuF5QFTAMl-9" style="edgeStyle=orthogonalEdgeStyle;rounded=0;orthogonalLoop=1;jettySize=auto;html=1;exitX=1;exitY=0.75;exitDx=0;exitDy=0;entryX=0.25;entryY=0;entryDx=0;entryDy=0;" parent="1" source="O6sKgu8zDXKuF5QFTAMl-8" target="O6sKgu8zDXKuF5QFTAMl-1" edge="1">
          <mxGeometry relative="1" as="geometry" />
        </mxCell>
        <mxCell id="O6sKgu8zDXKuF5QFTAMl-8" value="&lt;div style=&quot;background-color: rgb(31, 31, 31); line-height: 19px;&quot;&gt;&lt;div style=&quot;line-height: 19px;&quot;&gt;&lt;div style=&quot;color: rgb(204, 204, 204); font-family: Consolas, &amp;quot;Courier New&amp;quot;, monospace; font-size: 14px; line-height: 19px; white-space: pre;&quot;&gt;&lt;div style=&quot;line-height: 19px;&quot;&gt;&lt;div&gt;&lt;span style=&quot;color: #6a9955;&quot;&gt;# Driver code&lt;/span&gt;&lt;/div&gt;&lt;div&gt;&lt;span style=&quot;color: #c586c0;&quot;&gt;if&lt;/span&gt; &lt;span style=&quot;color: #9cdcfe;&quot;&gt;__name__&lt;/span&gt; &lt;span style=&quot;color: #d4d4d4;&quot;&gt;==&lt;/span&gt; &lt;span style=&quot;color: #ce9178;&quot;&gt;&quot;__main__&quot;&lt;/span&gt;:&lt;/div&gt;&lt;div&gt;&amp;nbsp; &amp;nbsp; &lt;span style=&quot;color: #6a9955;&quot;&gt;# Example Sudoku puzzle (0 represents empty cells)&lt;/span&gt;&lt;/div&gt;&lt;div&gt;&amp;nbsp; &amp;nbsp; sudoku_grid &lt;span style=&quot;color: #d4d4d4;&quot;&gt;=&lt;/span&gt; [&lt;/div&gt;&lt;div&gt;&amp;nbsp; &amp;nbsp; &amp;nbsp; &amp;nbsp; [&lt;span style=&quot;color: #b5cea8;&quot;&gt;5&lt;/span&gt;, &lt;span style=&quot;color: #b5cea8;&quot;&gt;3&lt;/span&gt;, &lt;span style=&quot;color: #b5cea8;&quot;&gt;0&lt;/span&gt;, &lt;span style=&quot;color: #b5cea8;&quot;&gt;0&lt;/span&gt;, &lt;span style=&quot;color: #b5cea8;&quot;&gt;7&lt;/span&gt;, &lt;span style=&quot;color: #b5cea8;&quot;&gt;0&lt;/span&gt;, &lt;span style=&quot;color: #b5cea8;&quot;&gt;0&lt;/span&gt;, &lt;span style=&quot;color: #b5cea8;&quot;&gt;0&lt;/span&gt;, &lt;span style=&quot;color: #b5cea8;&quot;&gt;0&lt;/span&gt;],&lt;/div&gt;&lt;div&gt;&amp;nbsp; &amp;nbsp; &amp;nbsp; &amp;nbsp; [&lt;span style=&quot;color: #b5cea8;&quot;&gt;6&lt;/span&gt;, &lt;span style=&quot;color: #b5cea8;&quot;&gt;0&lt;/span&gt;, &lt;span style=&quot;color: #b5cea8;&quot;&gt;0&lt;/span&gt;, &lt;span style=&quot;color: #b5cea8;&quot;&gt;1&lt;/span&gt;, &lt;span style=&quot;color: #b5cea8;&quot;&gt;9&lt;/span&gt;, &lt;span style=&quot;color: #b5cea8;&quot;&gt;5&lt;/span&gt;, &lt;span style=&quot;color: #b5cea8;&quot;&gt;0&lt;/span&gt;, &lt;span style=&quot;color: #b5cea8;&quot;&gt;0&lt;/span&gt;, &lt;span style=&quot;color: #b5cea8;&quot;&gt;0&lt;/span&gt;],&lt;/div&gt;&lt;div&gt;&amp;nbsp; &amp;nbsp; &amp;nbsp; &amp;nbsp; [&lt;span style=&quot;color: #b5cea8;&quot;&gt;0&lt;/span&gt;, &lt;span style=&quot;color: #b5cea8;&quot;&gt;9&lt;/span&gt;, &lt;span style=&quot;color: #b5cea8;&quot;&gt;8&lt;/span&gt;, &lt;span style=&quot;color: #b5cea8;&quot;&gt;0&lt;/span&gt;, &lt;span style=&quot;color: #b5cea8;&quot;&gt;0&lt;/span&gt;, &lt;span style=&quot;color: #b5cea8;&quot;&gt;0&lt;/span&gt;, &lt;span style=&quot;color: #b5cea8;&quot;&gt;0&lt;/span&gt;, &lt;span style=&quot;color: #b5cea8;&quot;&gt;6&lt;/span&gt;, &lt;span style=&quot;color: #b5cea8;&quot;&gt;0&lt;/span&gt;],&lt;/div&gt;&lt;div&gt;&amp;nbsp; &amp;nbsp; &amp;nbsp; &amp;nbsp; [&lt;span style=&quot;color: #b5cea8;&quot;&gt;8&lt;/span&gt;, &lt;span style=&quot;color: #b5cea8;&quot;&gt;0&lt;/span&gt;, &lt;span style=&quot;color: #b5cea8;&quot;&gt;0&lt;/span&gt;, &lt;span style=&quot;color: #b5cea8;&quot;&gt;0&lt;/span&gt;, &lt;span style=&quot;color: #b5cea8;&quot;&gt;6&lt;/span&gt;, &lt;span style=&quot;color: #b5cea8;&quot;&gt;0&lt;/span&gt;, &lt;span style=&quot;color: #b5cea8;&quot;&gt;0&lt;/span&gt;, &lt;span style=&quot;color: #b5cea8;&quot;&gt;0&lt;/span&gt;, &lt;span style=&quot;color: #b5cea8;&quot;&gt;3&lt;/span&gt;],&lt;/div&gt;&lt;div&gt;&amp;nbsp; &amp;nbsp; &amp;nbsp; &amp;nbsp; [&lt;span style=&quot;color: #b5cea8;&quot;&gt;4&lt;/span&gt;, &lt;span style=&quot;color: #b5cea8;&quot;&gt;0&lt;/span&gt;, &lt;span style=&quot;color: #b5cea8;&quot;&gt;0&lt;/span&gt;, &lt;span style=&quot;color: #b5cea8;&quot;&gt;8&lt;/span&gt;, &lt;span style=&quot;color: #b5cea8;&quot;&gt;0&lt;/span&gt;, &lt;span style=&quot;color: #b5cea8;&quot;&gt;3&lt;/span&gt;, &lt;span style=&quot;color: #b5cea8;&quot;&gt;0&lt;/span&gt;, &lt;span style=&quot;color: #b5cea8;&quot;&gt;0&lt;/span&gt;, &lt;span style=&quot;color: #b5cea8;&quot;&gt;1&lt;/span&gt;],&lt;/div&gt;&lt;div&gt;&amp;nbsp; &amp;nbsp; &amp;nbsp; &amp;nbsp; [&lt;span style=&quot;color: #b5cea8;&quot;&gt;7&lt;/span&gt;, &lt;span style=&quot;color: #b5cea8;&quot;&gt;0&lt;/span&gt;, &lt;span style=&quot;color: #b5cea8;&quot;&gt;0&lt;/span&gt;, &lt;span style=&quot;color: #b5cea8;&quot;&gt;0&lt;/span&gt;, &lt;span style=&quot;color: #b5cea8;&quot;&gt;2&lt;/span&gt;, &lt;span style=&quot;color: #b5cea8;&quot;&gt;0&lt;/span&gt;, &lt;span style=&quot;color: #b5cea8;&quot;&gt;0&lt;/span&gt;, &lt;span style=&quot;color: #b5cea8;&quot;&gt;0&lt;/span&gt;, &lt;span style=&quot;color: #b5cea8;&quot;&gt;6&lt;/span&gt;],&lt;/div&gt;&lt;div&gt;&amp;nbsp; &amp;nbsp; &amp;nbsp; &amp;nbsp; [&lt;span style=&quot;color: #b5cea8;&quot;&gt;0&lt;/span&gt;, &lt;span style=&quot;color: #b5cea8;&quot;&gt;6&lt;/span&gt;, &lt;span style=&quot;color: #b5cea8;&quot;&gt;0&lt;/span&gt;, &lt;span style=&quot;color: #b5cea8;&quot;&gt;0&lt;/span&gt;, &lt;span style=&quot;color: #b5cea8;&quot;&gt;0&lt;/span&gt;, &lt;span style=&quot;color: #b5cea8;&quot;&gt;0&lt;/span&gt;, &lt;span style=&quot;color: #b5cea8;&quot;&gt;2&lt;/span&gt;, &lt;span style=&quot;color: #b5cea8;&quot;&gt;8&lt;/span&gt;, &lt;span style=&quot;color: #b5cea8;&quot;&gt;0&lt;/span&gt;],&lt;/div&gt;&lt;div&gt;&amp;nbsp; &amp;nbsp; &amp;nbsp; &amp;nbsp; [&lt;span style=&quot;color: #b5cea8;&quot;&gt;0&lt;/span&gt;, &lt;span style=&quot;color: #b5cea8;&quot;&gt;0&lt;/span&gt;, &lt;span style=&quot;color: #b5cea8;&quot;&gt;0&lt;/span&gt;, &lt;span style=&quot;color: #b5cea8;&quot;&gt;4&lt;/span&gt;, &lt;span style=&quot;color: #b5cea8;&quot;&gt;1&lt;/span&gt;, &lt;span style=&quot;color: #b5cea8;&quot;&gt;9&lt;/span&gt;, &lt;span style=&quot;color: #b5cea8;&quot;&gt;0&lt;/span&gt;, &lt;span style=&quot;color: #b5cea8;&quot;&gt;0&lt;/span&gt;, &lt;span style=&quot;color: #b5cea8;&quot;&gt;5&lt;/span&gt;],&lt;/div&gt;&lt;div&gt;&amp;nbsp; &amp;nbsp; &amp;nbsp; &amp;nbsp; [&lt;span style=&quot;color: #b5cea8;&quot;&gt;0&lt;/span&gt;, &lt;span style=&quot;color: #b5cea8;&quot;&gt;0&lt;/span&gt;, &lt;span style=&quot;color: #b5cea8;&quot;&gt;0&lt;/span&gt;, &lt;span style=&quot;color: #b5cea8;&quot;&gt;0&lt;/span&gt;, &lt;span style=&quot;color: #b5cea8;&quot;&gt;8&lt;/span&gt;, &lt;span style=&quot;color: #b5cea8;&quot;&gt;0&lt;/span&gt;, &lt;span style=&quot;color: #b5cea8;&quot;&gt;0&lt;/span&gt;, &lt;span style=&quot;color: #b5cea8;&quot;&gt;7&lt;/span&gt;, &lt;span style=&quot;color: #b5cea8;&quot;&gt;9&lt;/span&gt;]&lt;/div&gt;&lt;div&gt;&amp;nbsp; &amp;nbsp; ]&lt;/div&gt;&lt;br&gt;&lt;div&gt;&amp;nbsp; &amp;nbsp; &lt;span style=&quot;color: #c586c0;&quot;&gt;if&lt;/span&gt; solve_sudoku(sudoku_grid):&lt;/div&gt;&lt;div&gt;&amp;nbsp; &amp;nbsp; &amp;nbsp; &amp;nbsp; &lt;span style=&quot;color: #dcdcaa;&quot;&gt;print&lt;/span&gt;(&lt;span style=&quot;color: #ce9178;&quot;&gt;&quot;Sudoku solved successfully:&quot;&lt;/span&gt;)&lt;/div&gt;&lt;div&gt;&amp;nbsp; &amp;nbsp; &amp;nbsp; &amp;nbsp; print_grid(sudoku_grid)&lt;/div&gt;&lt;div&gt;&amp;nbsp; &amp;nbsp; &lt;span style=&quot;color: #c586c0;&quot;&gt;else&lt;/span&gt;:&lt;/div&gt;&lt;div&gt;&amp;nbsp; &amp;nbsp; &amp;nbsp; &amp;nbsp; &lt;span style=&quot;color: #dcdcaa;&quot;&gt;print&lt;/span&gt;(&lt;span style=&quot;color: #ce9178;&quot;&gt;&quot;No solution exists.&quot;&lt;/span&gt;)&lt;/div&gt;&lt;/div&gt;&lt;/div&gt;&lt;/div&gt;&lt;/div&gt;" style="rounded=1;whiteSpace=wrap;html=1;arcSize=2;align=left;verticalAlign=top;fillColor=none;strokeColor=default;" parent="1" vertex="1">
          <mxGeometry x="360" y="-130" width="430" height="400" as="geometry" />
        </mxCell>
        <mxCell id="O6sKgu8zDXKuF5QFTAMl-11" value="Exit and print the solution&amp;nbsp;" style="text;html=1;align=center;verticalAlign=middle;whiteSpace=wrap;rounded=0;fillColor=none;strokeColor=default;" parent="1" vertex="1">
          <mxGeometry x="130" y="585" width="80" height="75" as="geometry" />
        </mxCell>
        <mxCell id="S4ZxqDm5p7QgWU9oLSgd-1" value="This is place where we are trying 1-9 numbers each time (so this is where we are using the domain)" style="text;html=1;align=left;verticalAlign=top;whiteSpace=wrap;rounded=0;strokeColor=default;" vertex="1" parent="1">
          <mxGeometry x="1810" y="680" width="140" height="120" as="geometry" />
        </mxCell>
        <mxCell id="S4ZxqDm5p7QgWU9oLSgd-2" value="&lt;h1 style=&quot;margin-top: 0px;&quot;&gt;Relating forward looking with sudoku solver&amp;nbsp;&lt;/h1&gt;&lt;p&gt;In the context of Sudoku solving, this forward-looking behavior can be incorporated as part of &lt;strong&gt;constraint propagation&lt;/strong&gt;, where the domains of the unassigned cells are updated as you assign values to cells. This helps in avoiding assignments that will result in dead-ends later, thus reducing the number of unnecessary backtracking steps.&lt;br&gt;&lt;/p&gt;" style="text;html=1;whiteSpace=wrap;overflow=hidden;rounded=0;" vertex="1" parent="1">
          <mxGeometry x="1800" y="160" width="340" height="180" as="geometry" />
        </mxCell>
        <mxCell id="S4ZxqDm5p7QgWU9oLSgd-3" value="5" style="html=1;shadow=0;fontSize=12;align=center;fontStyle=0;whiteSpace=wrap;rounded=0;fillColor=#fff2cc;strokeColor=#d6b656;" vertex="1" parent="1">
          <mxGeometry x="2605" y="385" width="100" height="100" as="geometry" />
        </mxCell>
        <mxCell id="S4ZxqDm5p7QgWU9oLSgd-4" value="3" style="html=1;shadow=0;fontSize=12;align=center;fontStyle=0;whiteSpace=wrap;rounded=0;fillColor=#fff2cc;strokeColor=#d6b656;" vertex="1" parent="1">
          <mxGeometry x="2710" y="385" width="100" height="100" as="geometry" />
        </mxCell>
        <mxCell id="S4ZxqDm5p7QgWU9oLSgd-5" value="0" style="html=1;shadow=0;fontSize=12;align=center;fontStyle=0;whiteSpace=wrap;rounded=0;" vertex="1" parent="1">
          <mxGeometry x="2815" y="385" width="100" height="100" as="geometry" />
        </mxCell>
        <mxCell id="S4ZxqDm5p7QgWU9oLSgd-6" value="6" style="html=1;shadow=0;fontSize=12;align=center;fontStyle=0;whiteSpace=wrap;rounded=0;fillColor=#fff2cc;strokeColor=#d6b656;" vertex="1" parent="1">
          <mxGeometry x="2605" y="490" width="100" height="100" as="geometry" />
        </mxCell>
        <mxCell id="S4ZxqDm5p7QgWU9oLSgd-7" value="0" style="html=1;shadow=0;fontSize=12;align=center;fontStyle=0;whiteSpace=wrap;rounded=0;" vertex="1" parent="1">
          <mxGeometry x="2710" y="490" width="100" height="100" as="geometry" />
        </mxCell>
        <mxCell id="S4ZxqDm5p7QgWU9oLSgd-8" value="0" style="html=1;shadow=0;fontSize=12;align=center;fontStyle=0;whiteSpace=wrap;rounded=0;" vertex="1" parent="1">
          <mxGeometry x="2815" y="490" width="100" height="100" as="geometry" />
        </mxCell>
        <mxCell id="S4ZxqDm5p7QgWU9oLSgd-9" value="0" style="html=1;shadow=0;fontSize=12;align=center;fontStyle=0;whiteSpace=wrap;rounded=0;" vertex="1" parent="1">
          <mxGeometry x="2605" y="595" width="100" height="100" as="geometry" />
        </mxCell>
        <mxCell id="S4ZxqDm5p7QgWU9oLSgd-10" value="9" style="html=1;shadow=0;fontSize=12;align=center;fontStyle=0;whiteSpace=wrap;rounded=0;fillColor=#fff2cc;strokeColor=#d6b656;" vertex="1" parent="1">
          <mxGeometry x="2710" y="595" width="100" height="100" as="geometry" />
        </mxCell>
        <mxCell id="S4ZxqDm5p7QgWU9oLSgd-11" value="8" style="html=1;shadow=0;fontSize=12;align=center;fontStyle=0;whiteSpace=wrap;rounded=0;fillColor=#fff2cc;strokeColor=#d6b656;" vertex="1" parent="1">
          <mxGeometry x="2815" y="595" width="100" height="100" as="geometry" />
        </mxCell>
        <mxCell id="S4ZxqDm5p7QgWU9oLSgd-12" value="0" style="html=1;fillColor=#CCCCCC;strokeColor=none;shadow=0;fontSize=14;fontColor=#FFFFFF;align=center;fontStyle=1;whiteSpace=wrap;horizontal=0;rounded=0;" vertex="1" parent="1">
          <mxGeometry x="2570" y="385" width="30" height="100" as="geometry" />
        </mxCell>
        <mxCell id="S4ZxqDm5p7QgWU9oLSgd-13" value="1" style="html=1;fillColor=#CCCCCC;strokeColor=none;shadow=0;fontSize=14;fontColor=#FFFFFF;align=center;fontStyle=1;whiteSpace=wrap;horizontal=0;rounded=0;" vertex="1" parent="1">
          <mxGeometry x="2570" y="490" width="30" height="100" as="geometry" />
        </mxCell>
        <mxCell id="S4ZxqDm5p7QgWU9oLSgd-14" value="2" style="html=1;fillColor=#CCCCCC;strokeColor=none;shadow=0;fontSize=14;fontColor=#FFFFFF;align=center;fontStyle=1;whiteSpace=wrap;horizontal=0;rounded=0;" vertex="1" parent="1">
          <mxGeometry x="2570" y="595" width="30" height="100" as="geometry" />
        </mxCell>
        <mxCell id="S4ZxqDm5p7QgWU9oLSgd-15" value="0" style="html=1;fillColor=#CCCCCC;strokeColor=none;shadow=0;fontSize=14;fontColor=#FFFFFF;align=center;fontStyle=1;whiteSpace=wrap;rounded=0;" vertex="1" parent="1">
          <mxGeometry x="2605" y="350" width="100" height="30" as="geometry" />
        </mxCell>
        <mxCell id="S4ZxqDm5p7QgWU9oLSgd-16" value="1" style="html=1;fillColor=#CCCCCC;strokeColor=none;shadow=0;fontSize=14;fontColor=#FFFFFF;align=center;fontStyle=1;whiteSpace=wrap;rounded=0;" vertex="1" parent="1">
          <mxGeometry x="2710" y="350" width="100" height="30" as="geometry" />
        </mxCell>
        <mxCell id="S4ZxqDm5p7QgWU9oLSgd-17" value="1" style="html=1;fillColor=#CCCCCC;strokeColor=none;shadow=0;fontSize=14;fontColor=#FFFFFF;align=center;fontStyle=1;whiteSpace=wrap;rounded=0;" vertex="1" parent="1">
          <mxGeometry x="2815" y="350" width="100" height="30" as="geometry" />
        </mxCell>
        <mxCell id="S4ZxqDm5p7QgWU9oLSgd-19" value="0" style="html=1;shadow=0;fontSize=12;align=center;fontStyle=0;whiteSpace=wrap;rounded=0;" vertex="1" parent="1">
          <mxGeometry x="2919" y="385" width="100" height="100" as="geometry" />
        </mxCell>
        <mxCell id="S4ZxqDm5p7QgWU9oLSgd-20" value="7" style="html=1;shadow=0;fontSize=12;align=center;fontStyle=0;whiteSpace=wrap;rounded=0;fillColor=#fff2cc;strokeColor=#d6b656;" vertex="1" parent="1">
          <mxGeometry x="3024" y="385" width="100" height="100" as="geometry" />
        </mxCell>
        <mxCell id="S4ZxqDm5p7QgWU9oLSgd-21" value="0" style="html=1;shadow=0;fontSize=12;align=center;fontStyle=0;whiteSpace=wrap;rounded=0;" vertex="1" parent="1">
          <mxGeometry x="3129" y="385" width="100" height="100" as="geometry" />
        </mxCell>
        <mxCell id="S4ZxqDm5p7QgWU9oLSgd-22" value="1" style="html=1;shadow=0;fontSize=12;align=center;fontStyle=0;whiteSpace=wrap;rounded=0;fillColor=#fff2cc;strokeColor=#d6b656;" vertex="1" parent="1">
          <mxGeometry x="2919" y="490" width="100" height="100" as="geometry" />
        </mxCell>
        <mxCell id="S4ZxqDm5p7QgWU9oLSgd-23" value="9" style="html=1;shadow=0;fontSize=12;align=center;fontStyle=0;whiteSpace=wrap;rounded=0;fillColor=#fff2cc;strokeColor=#d6b656;" vertex="1" parent="1">
          <mxGeometry x="3024" y="490" width="100" height="100" as="geometry" />
        </mxCell>
        <mxCell id="S4ZxqDm5p7QgWU9oLSgd-24" value="5" style="html=1;shadow=0;fontSize=12;align=center;fontStyle=0;whiteSpace=wrap;rounded=0;fillColor=#fff2cc;strokeColor=#d6b656;" vertex="1" parent="1">
          <mxGeometry x="3129" y="490" width="100" height="100" as="geometry" />
        </mxCell>
        <mxCell id="S4ZxqDm5p7QgWU9oLSgd-25" value="0" style="html=1;shadow=0;fontSize=12;align=center;fontStyle=0;whiteSpace=wrap;rounded=0;" vertex="1" parent="1">
          <mxGeometry x="2919" y="595" width="100" height="100" as="geometry" />
        </mxCell>
        <mxCell id="S4ZxqDm5p7QgWU9oLSgd-26" value="0" style="html=1;shadow=0;fontSize=12;align=center;fontStyle=0;whiteSpace=wrap;rounded=0;" vertex="1" parent="1">
          <mxGeometry x="3024" y="595" width="100" height="100" as="geometry" />
        </mxCell>
        <mxCell id="S4ZxqDm5p7QgWU9oLSgd-27" value="0" style="html=1;shadow=0;fontSize=12;align=center;fontStyle=0;whiteSpace=wrap;rounded=0;" vertex="1" parent="1">
          <mxGeometry x="3129" y="595" width="100" height="100" as="geometry" />
        </mxCell>
        <mxCell id="S4ZxqDm5p7QgWU9oLSgd-28" value="2" style="html=1;fillColor=#CCCCCC;strokeColor=none;shadow=0;fontSize=14;fontColor=#FFFFFF;align=center;fontStyle=1;whiteSpace=wrap;rounded=0;" vertex="1" parent="1">
          <mxGeometry x="2919" y="350" width="100" height="30" as="geometry" />
        </mxCell>
        <mxCell id="S4ZxqDm5p7QgWU9oLSgd-29" value="3" style="html=1;fillColor=#CCCCCC;strokeColor=none;shadow=0;fontSize=14;fontColor=#FFFFFF;align=center;fontStyle=1;whiteSpace=wrap;rounded=0;" vertex="1" parent="1">
          <mxGeometry x="3024" y="350" width="100" height="30" as="geometry" />
        </mxCell>
        <mxCell id="S4ZxqDm5p7QgWU9oLSgd-30" value="4" style="html=1;fillColor=#CCCCCC;strokeColor=none;shadow=0;fontSize=14;fontColor=#FFFFFF;align=center;fontStyle=1;whiteSpace=wrap;rounded=0;" vertex="1" parent="1">
          <mxGeometry x="3129" y="350" width="100" height="30" as="geometry" />
        </mxCell>
        <mxCell id="S4ZxqDm5p7QgWU9oLSgd-32" value="8" style="html=1;shadow=0;fontSize=12;align=center;fontStyle=0;whiteSpace=wrap;rounded=0;fillColor=#fff2cc;strokeColor=#d6b656;" vertex="1" parent="1">
          <mxGeometry x="2606" y="702" width="100" height="100" as="geometry" />
        </mxCell>
        <mxCell id="S4ZxqDm5p7QgWU9oLSgd-33" value="0" style="html=1;shadow=0;fontSize=12;align=center;fontStyle=0;whiteSpace=wrap;rounded=0;" vertex="1" parent="1">
          <mxGeometry x="2711" y="702" width="100" height="100" as="geometry" />
        </mxCell>
        <mxCell id="S4ZxqDm5p7QgWU9oLSgd-34" value="0" style="html=1;shadow=0;fontSize=12;align=center;fontStyle=0;whiteSpace=wrap;rounded=0;" vertex="1" parent="1">
          <mxGeometry x="2816" y="702" width="100" height="100" as="geometry" />
        </mxCell>
        <mxCell id="S4ZxqDm5p7QgWU9oLSgd-35" value="4" style="html=1;shadow=0;fontSize=12;align=center;fontStyle=0;whiteSpace=wrap;rounded=0;fillColor=#fff2cc;strokeColor=#d6b656;" vertex="1" parent="1">
          <mxGeometry x="2606" y="807" width="100" height="100" as="geometry" />
        </mxCell>
        <mxCell id="S4ZxqDm5p7QgWU9oLSgd-36" value="0" style="html=1;shadow=0;fontSize=12;align=center;fontStyle=0;whiteSpace=wrap;rounded=0;" vertex="1" parent="1">
          <mxGeometry x="2711" y="807" width="100" height="100" as="geometry" />
        </mxCell>
        <mxCell id="S4ZxqDm5p7QgWU9oLSgd-37" value="0" style="html=1;shadow=0;fontSize=12;align=center;fontStyle=0;whiteSpace=wrap;rounded=0;" vertex="1" parent="1">
          <mxGeometry x="2816" y="807" width="100" height="100" as="geometry" />
        </mxCell>
        <mxCell id="S4ZxqDm5p7QgWU9oLSgd-38" value="7" style="html=1;shadow=0;fontSize=12;align=center;fontStyle=0;whiteSpace=wrap;rounded=0;fillColor=#fff2cc;strokeColor=#d6b656;" vertex="1" parent="1">
          <mxGeometry x="2606" y="912" width="100" height="100" as="geometry" />
        </mxCell>
        <mxCell id="S4ZxqDm5p7QgWU9oLSgd-39" value="0" style="html=1;shadow=0;fontSize=12;align=center;fontStyle=0;whiteSpace=wrap;rounded=0;" vertex="1" parent="1">
          <mxGeometry x="2711" y="912" width="100" height="100" as="geometry" />
        </mxCell>
        <mxCell id="S4ZxqDm5p7QgWU9oLSgd-40" value="0" style="html=1;shadow=0;fontSize=12;align=center;fontStyle=0;whiteSpace=wrap;rounded=0;" vertex="1" parent="1">
          <mxGeometry x="2816" y="912" width="100" height="100" as="geometry" />
        </mxCell>
        <mxCell id="S4ZxqDm5p7QgWU9oLSgd-41" value="3" style="html=1;fillColor=#CCCCCC;strokeColor=none;shadow=0;fontSize=14;fontColor=#FFFFFF;align=center;fontStyle=1;whiteSpace=wrap;horizontal=0;rounded=0;" vertex="1" parent="1">
          <mxGeometry x="2571" y="702" width="30" height="100" as="geometry" />
        </mxCell>
        <mxCell id="S4ZxqDm5p7QgWU9oLSgd-42" value="4" style="html=1;fillColor=#CCCCCC;strokeColor=none;shadow=0;fontSize=14;fontColor=#FFFFFF;align=center;fontStyle=1;whiteSpace=wrap;horizontal=0;rounded=0;" vertex="1" parent="1">
          <mxGeometry x="2571" y="807" width="30" height="100" as="geometry" />
        </mxCell>
        <mxCell id="S4ZxqDm5p7QgWU9oLSgd-43" value="5" style="html=1;fillColor=#CCCCCC;strokeColor=none;shadow=0;fontSize=14;fontColor=#FFFFFF;align=center;fontStyle=1;whiteSpace=wrap;horizontal=0;rounded=0;" vertex="1" parent="1">
          <mxGeometry x="2571" y="912" width="30" height="100" as="geometry" />
        </mxCell>
        <mxCell id="S4ZxqDm5p7QgWU9oLSgd-44" value="0" style="html=1;shadow=0;fontSize=12;align=center;fontStyle=0;whiteSpace=wrap;rounded=0;" vertex="1" parent="1">
          <mxGeometry x="2920" y="702" width="100" height="100" as="geometry" />
        </mxCell>
        <mxCell id="S4ZxqDm5p7QgWU9oLSgd-45" value="6" style="html=1;shadow=0;fontSize=12;align=center;fontStyle=0;whiteSpace=wrap;rounded=0;fillColor=#fff2cc;strokeColor=#d6b656;" vertex="1" parent="1">
          <mxGeometry x="3025" y="702" width="100" height="100" as="geometry" />
        </mxCell>
        <mxCell id="S4ZxqDm5p7QgWU9oLSgd-46" value="0" style="html=1;shadow=0;fontSize=12;align=center;fontStyle=0;whiteSpace=wrap;rounded=0;" vertex="1" parent="1">
          <mxGeometry x="3130" y="702" width="100" height="100" as="geometry" />
        </mxCell>
        <mxCell id="S4ZxqDm5p7QgWU9oLSgd-47" value="8" style="html=1;shadow=0;fontSize=12;align=center;fontStyle=0;whiteSpace=wrap;rounded=0;fillColor=#fff2cc;strokeColor=#d6b656;" vertex="1" parent="1">
          <mxGeometry x="2920" y="807" width="100" height="100" as="geometry" />
        </mxCell>
        <mxCell id="S4ZxqDm5p7QgWU9oLSgd-48" value="0" style="html=1;shadow=0;fontSize=12;align=center;fontStyle=0;whiteSpace=wrap;rounded=0;" vertex="1" parent="1">
          <mxGeometry x="3025" y="807" width="100" height="100" as="geometry" />
        </mxCell>
        <mxCell id="S4ZxqDm5p7QgWU9oLSgd-49" value="3" style="html=1;shadow=0;fontSize=12;align=center;fontStyle=0;whiteSpace=wrap;rounded=0;fillColor=#fff2cc;strokeColor=#d6b656;" vertex="1" parent="1">
          <mxGeometry x="3130" y="807" width="100" height="100" as="geometry" />
        </mxCell>
        <mxCell id="S4ZxqDm5p7QgWU9oLSgd-50" value="0" style="html=1;shadow=0;fontSize=12;align=center;fontStyle=0;whiteSpace=wrap;rounded=0;" vertex="1" parent="1">
          <mxGeometry x="2920" y="912" width="100" height="100" as="geometry" />
        </mxCell>
        <mxCell id="S4ZxqDm5p7QgWU9oLSgd-51" value="2" style="html=1;shadow=0;fontSize=12;align=center;fontStyle=0;whiteSpace=wrap;rounded=0;fillColor=#fff2cc;strokeColor=#d6b656;" vertex="1" parent="1">
          <mxGeometry x="3025" y="912" width="100" height="100" as="geometry" />
        </mxCell>
        <mxCell id="S4ZxqDm5p7QgWU9oLSgd-52" value="0" style="html=1;shadow=0;fontSize=12;align=center;fontStyle=0;whiteSpace=wrap;rounded=0;" vertex="1" parent="1">
          <mxGeometry x="3130" y="912" width="100" height="100" as="geometry" />
        </mxCell>
        <mxCell id="S4ZxqDm5p7QgWU9oLSgd-53" value="0" style="html=1;shadow=0;fontSize=12;align=center;fontStyle=0;whiteSpace=wrap;rounded=0;" vertex="1" parent="1">
          <mxGeometry x="3235" y="385" width="100" height="100" as="geometry" />
        </mxCell>
        <mxCell id="S4ZxqDm5p7QgWU9oLSgd-54" value="0" style="html=1;shadow=0;fontSize=12;align=center;fontStyle=0;whiteSpace=wrap;rounded=0;" vertex="1" parent="1">
          <mxGeometry x="3340" y="385" width="100" height="100" as="geometry" />
        </mxCell>
        <mxCell id="S4ZxqDm5p7QgWU9oLSgd-55" value="0" style="html=1;shadow=0;fontSize=12;align=center;fontStyle=0;whiteSpace=wrap;rounded=0;" vertex="1" parent="1">
          <mxGeometry x="3445" y="385" width="100" height="100" as="geometry" />
        </mxCell>
        <mxCell id="S4ZxqDm5p7QgWU9oLSgd-56" value="0" style="html=1;shadow=0;fontSize=12;align=center;fontStyle=0;whiteSpace=wrap;rounded=0;" vertex="1" parent="1">
          <mxGeometry x="3235" y="490" width="100" height="100" as="geometry" />
        </mxCell>
        <mxCell id="S4ZxqDm5p7QgWU9oLSgd-57" value="0" style="html=1;shadow=0;fontSize=12;align=center;fontStyle=0;whiteSpace=wrap;rounded=0;" vertex="1" parent="1">
          <mxGeometry x="3340" y="490" width="100" height="100" as="geometry" />
        </mxCell>
        <mxCell id="S4ZxqDm5p7QgWU9oLSgd-58" value="0" style="html=1;shadow=0;fontSize=12;align=center;fontStyle=0;whiteSpace=wrap;rounded=0;" vertex="1" parent="1">
          <mxGeometry x="3445" y="490" width="100" height="100" as="geometry" />
        </mxCell>
        <mxCell id="S4ZxqDm5p7QgWU9oLSgd-59" value="0" style="html=1;shadow=0;fontSize=12;align=center;fontStyle=0;whiteSpace=wrap;rounded=0;" vertex="1" parent="1">
          <mxGeometry x="3235" y="595" width="100" height="100" as="geometry" />
        </mxCell>
        <mxCell id="S4ZxqDm5p7QgWU9oLSgd-60" value="6" style="html=1;fillColor=#fff2cc;strokeColor=#d6b656;shadow=0;fontSize=12;align=center;fontStyle=0;whiteSpace=wrap;rounded=0;" vertex="1" parent="1">
          <mxGeometry x="3340" y="595" width="100" height="105" as="geometry" />
        </mxCell>
        <mxCell id="S4ZxqDm5p7QgWU9oLSgd-61" value="0" style="html=1;shadow=0;fontSize=12;align=center;fontStyle=0;whiteSpace=wrap;rounded=0;" vertex="1" parent="1">
          <mxGeometry x="3445" y="595" width="100" height="100" as="geometry" />
        </mxCell>
        <mxCell id="S4ZxqDm5p7QgWU9oLSgd-62" value="4" style="html=1;fillColor=#CCCCCC;strokeColor=none;shadow=0;fontSize=14;fontColor=#FFFFFF;align=center;fontStyle=1;whiteSpace=wrap;rounded=0;" vertex="1" parent="1">
          <mxGeometry x="3235" y="350" width="100" height="30" as="geometry" />
        </mxCell>
        <mxCell id="S4ZxqDm5p7QgWU9oLSgd-63" value="5" style="html=1;fillColor=#CCCCCC;strokeColor=none;shadow=0;fontSize=14;fontColor=#FFFFFF;align=center;fontStyle=1;whiteSpace=wrap;rounded=0;" vertex="1" parent="1">
          <mxGeometry x="3340" y="350" width="100" height="30" as="geometry" />
        </mxCell>
        <mxCell id="S4ZxqDm5p7QgWU9oLSgd-64" value="6" style="html=1;fillColor=#CCCCCC;strokeColor=none;shadow=0;fontSize=14;fontColor=#FFFFFF;align=center;fontStyle=1;whiteSpace=wrap;rounded=0;" vertex="1" parent="1">
          <mxGeometry x="3445" y="350" width="100" height="30" as="geometry" />
        </mxCell>
        <mxCell id="S4ZxqDm5p7QgWU9oLSgd-65" value="0" style="html=1;shadow=0;fontSize=12;align=center;fontStyle=0;whiteSpace=wrap;rounded=0;" vertex="1" parent="1">
          <mxGeometry x="3236" y="702" width="100" height="100" as="geometry" />
        </mxCell>
        <mxCell id="S4ZxqDm5p7QgWU9oLSgd-66" value="0" style="html=1;shadow=0;fontSize=12;align=center;fontStyle=0;whiteSpace=wrap;rounded=0;" vertex="1" parent="1">
          <mxGeometry x="3341" y="702" width="100" height="100" as="geometry" />
        </mxCell>
        <mxCell id="S4ZxqDm5p7QgWU9oLSgd-67" value="3" style="html=1;shadow=0;fontSize=12;align=center;fontStyle=0;whiteSpace=wrap;rounded=0;fillColor=#fff2cc;strokeColor=#d6b656;" vertex="1" parent="1">
          <mxGeometry x="3446" y="702" width="100" height="100" as="geometry" />
        </mxCell>
        <mxCell id="S4ZxqDm5p7QgWU9oLSgd-68" value="0" style="html=1;shadow=0;fontSize=12;align=center;fontStyle=0;whiteSpace=wrap;rounded=0;" vertex="1" parent="1">
          <mxGeometry x="3236" y="807" width="100" height="100" as="geometry" />
        </mxCell>
        <mxCell id="S4ZxqDm5p7QgWU9oLSgd-69" value="0" style="html=1;shadow=0;fontSize=12;align=center;fontStyle=0;whiteSpace=wrap;rounded=0;" vertex="1" parent="1">
          <mxGeometry x="3341" y="807" width="100" height="100" as="geometry" />
        </mxCell>
        <mxCell id="S4ZxqDm5p7QgWU9oLSgd-70" value="1" style="html=1;shadow=0;fontSize=12;align=center;fontStyle=0;whiteSpace=wrap;rounded=0;fillColor=#fff2cc;strokeColor=#d6b656;" vertex="1" parent="1">
          <mxGeometry x="3446" y="807" width="100" height="100" as="geometry" />
        </mxCell>
        <mxCell id="S4ZxqDm5p7QgWU9oLSgd-71" value="0" style="html=1;shadow=0;fontSize=12;align=center;fontStyle=0;whiteSpace=wrap;rounded=0;" vertex="1" parent="1">
          <mxGeometry x="3236" y="912" width="100" height="100" as="geometry" />
        </mxCell>
        <mxCell id="S4ZxqDm5p7QgWU9oLSgd-72" value="0" style="html=1;shadow=0;fontSize=12;align=center;fontStyle=0;whiteSpace=wrap;rounded=0;" vertex="1" parent="1">
          <mxGeometry x="3341" y="912" width="100" height="100" as="geometry" />
        </mxCell>
        <mxCell id="S4ZxqDm5p7QgWU9oLSgd-73" value="6" style="html=1;fillColor=#fff2cc;strokeColor=#d6b656;shadow=0;fontSize=12;align=center;fontStyle=0;whiteSpace=wrap;rounded=0;" vertex="1" parent="1">
          <mxGeometry x="3446" y="912" width="100" height="100" as="geometry" />
        </mxCell>
        <mxCell id="S4ZxqDm5p7QgWU9oLSgd-74" value="0" style="html=1;shadow=0;fontSize=12;align=center;fontStyle=0;whiteSpace=wrap;rounded=0;" vertex="1" parent="1">
          <mxGeometry x="2606" y="1018" width="100" height="100" as="geometry" />
        </mxCell>
        <mxCell id="S4ZxqDm5p7QgWU9oLSgd-75" value="6" style="html=1;fillColor=#fff2cc;strokeColor=#d6b656;shadow=0;fontSize=12;align=center;fontStyle=0;whiteSpace=wrap;rounded=0;" vertex="1" parent="1">
          <mxGeometry x="2711" y="1018" width="100" height="100" as="geometry" />
        </mxCell>
        <mxCell id="S4ZxqDm5p7QgWU9oLSgd-76" value="0" style="html=1;shadow=0;fontSize=12;align=center;fontStyle=0;whiteSpace=wrap;rounded=0;" vertex="1" parent="1">
          <mxGeometry x="2816" y="1018" width="100" height="100" as="geometry" />
        </mxCell>
        <mxCell id="S4ZxqDm5p7QgWU9oLSgd-77" value="0" style="html=1;shadow=0;fontSize=12;align=center;fontStyle=0;whiteSpace=wrap;rounded=0;" vertex="1" parent="1">
          <mxGeometry x="2606" y="1123" width="100" height="100" as="geometry" />
        </mxCell>
        <mxCell id="S4ZxqDm5p7QgWU9oLSgd-78" value="0" style="html=1;shadow=0;fontSize=12;align=center;fontStyle=0;whiteSpace=wrap;rounded=0;" vertex="1" parent="1">
          <mxGeometry x="2711" y="1123" width="100" height="100" as="geometry" />
        </mxCell>
        <mxCell id="S4ZxqDm5p7QgWU9oLSgd-79" value="0" style="html=1;shadow=0;fontSize=12;align=center;fontStyle=0;whiteSpace=wrap;rounded=0;" vertex="1" parent="1">
          <mxGeometry x="2816" y="1123" width="100" height="100" as="geometry" />
        </mxCell>
        <mxCell id="S4ZxqDm5p7QgWU9oLSgd-80" value="0" style="html=1;shadow=0;fontSize=12;align=center;fontStyle=0;whiteSpace=wrap;rounded=0;" vertex="1" parent="1">
          <mxGeometry x="2606" y="1228" width="100" height="100" as="geometry" />
        </mxCell>
        <mxCell id="S4ZxqDm5p7QgWU9oLSgd-81" value="0" style="html=1;shadow=0;fontSize=12;align=center;fontStyle=0;whiteSpace=wrap;rounded=0;" vertex="1" parent="1">
          <mxGeometry x="2711" y="1228" width="100" height="100" as="geometry" />
        </mxCell>
        <mxCell id="S4ZxqDm5p7QgWU9oLSgd-82" value="0" style="html=1;shadow=0;fontSize=12;align=center;fontStyle=0;whiteSpace=wrap;rounded=0;" vertex="1" parent="1">
          <mxGeometry x="2816" y="1228" width="100" height="100" as="geometry" />
        </mxCell>
        <mxCell id="S4ZxqDm5p7QgWU9oLSgd-83" value="6" style="html=1;fillColor=#CCCCCC;strokeColor=none;shadow=0;fontSize=14;fontColor=#FFFFFF;align=center;fontStyle=1;whiteSpace=wrap;horizontal=0;rounded=0;" vertex="1" parent="1">
          <mxGeometry x="2571" y="1018" width="30" height="100" as="geometry" />
        </mxCell>
        <mxCell id="S4ZxqDm5p7QgWU9oLSgd-84" value="7" style="html=1;fillColor=#CCCCCC;strokeColor=none;shadow=0;fontSize=14;fontColor=#FFFFFF;align=center;fontStyle=1;whiteSpace=wrap;horizontal=0;rounded=0;" vertex="1" parent="1">
          <mxGeometry x="2571" y="1123" width="30" height="100" as="geometry" />
        </mxCell>
        <mxCell id="S4ZxqDm5p7QgWU9oLSgd-85" value="8" style="html=1;fillColor=#CCCCCC;strokeColor=none;shadow=0;fontSize=14;fontColor=#FFFFFF;align=center;fontStyle=1;whiteSpace=wrap;horizontal=0;rounded=0;" vertex="1" parent="1">
          <mxGeometry x="2571" y="1228" width="30" height="100" as="geometry" />
        </mxCell>
        <mxCell id="S4ZxqDm5p7QgWU9oLSgd-86" value="0" style="html=1;shadow=0;fontSize=12;align=center;fontStyle=0;whiteSpace=wrap;rounded=0;" vertex="1" parent="1">
          <mxGeometry x="2920" y="1018" width="100" height="100" as="geometry" />
        </mxCell>
        <mxCell id="S4ZxqDm5p7QgWU9oLSgd-87" value="0" style="html=1;shadow=0;fontSize=12;align=center;fontStyle=0;whiteSpace=wrap;rounded=0;" vertex="1" parent="1">
          <mxGeometry x="3025" y="1018" width="100" height="100" as="geometry" />
        </mxCell>
        <mxCell id="S4ZxqDm5p7QgWU9oLSgd-88" value="0" style="html=1;shadow=0;fontSize=12;align=center;fontStyle=0;whiteSpace=wrap;rounded=0;" vertex="1" parent="1">
          <mxGeometry x="3130" y="1018" width="100" height="100" as="geometry" />
        </mxCell>
        <mxCell id="S4ZxqDm5p7QgWU9oLSgd-89" value="4" style="html=1;shadow=0;fontSize=12;align=center;fontStyle=0;whiteSpace=wrap;rounded=0;fillColor=#fff2cc;strokeColor=#d6b656;" vertex="1" parent="1">
          <mxGeometry x="2920" y="1123" width="100" height="100" as="geometry" />
        </mxCell>
        <mxCell id="S4ZxqDm5p7QgWU9oLSgd-90" value="1" style="html=1;shadow=0;fontSize=12;align=center;fontStyle=0;whiteSpace=wrap;rounded=0;fillColor=#fff2cc;strokeColor=#d6b656;" vertex="1" parent="1">
          <mxGeometry x="3025" y="1123" width="100" height="100" as="geometry" />
        </mxCell>
        <mxCell id="S4ZxqDm5p7QgWU9oLSgd-91" value="9" style="html=1;shadow=0;fontSize=12;align=center;fontStyle=0;whiteSpace=wrap;rounded=0;fillColor=#fff2cc;strokeColor=#d6b656;" vertex="1" parent="1">
          <mxGeometry x="3130" y="1123" width="100" height="100" as="geometry" />
        </mxCell>
        <mxCell id="S4ZxqDm5p7QgWU9oLSgd-92" value="0" style="html=1;shadow=0;fontSize=12;align=center;fontStyle=0;whiteSpace=wrap;rounded=0;" vertex="1" parent="1">
          <mxGeometry x="2920" y="1228" width="100" height="100" as="geometry" />
        </mxCell>
        <mxCell id="S4ZxqDm5p7QgWU9oLSgd-93" value="8" style="html=1;shadow=0;fontSize=12;align=center;fontStyle=0;whiteSpace=wrap;rounded=0;fillColor=#fff2cc;strokeColor=#d6b656;" vertex="1" parent="1">
          <mxGeometry x="3025" y="1228" width="100" height="100" as="geometry" />
        </mxCell>
        <mxCell id="S4ZxqDm5p7QgWU9oLSgd-94" value="0" style="html=1;shadow=0;fontSize=12;align=center;fontStyle=0;whiteSpace=wrap;rounded=0;" vertex="1" parent="1">
          <mxGeometry x="3130" y="1228" width="100" height="100" as="geometry" />
        </mxCell>
        <mxCell id="S4ZxqDm5p7QgWU9oLSgd-95" value="2" style="html=1;shadow=0;fontSize=12;align=center;fontStyle=0;whiteSpace=wrap;rounded=0;fillColor=#fff2cc;strokeColor=#d6b656;" vertex="1" parent="1">
          <mxGeometry x="3236" y="1018" width="100" height="100" as="geometry" />
        </mxCell>
        <mxCell id="S4ZxqDm5p7QgWU9oLSgd-96" value="8" style="html=1;shadow=0;fontSize=12;align=center;fontStyle=0;whiteSpace=wrap;rounded=0;fillColor=#fff2cc;strokeColor=#d6b656;" vertex="1" parent="1">
          <mxGeometry x="3341" y="1018" width="100" height="100" as="geometry" />
        </mxCell>
        <mxCell id="S4ZxqDm5p7QgWU9oLSgd-97" value="0" style="html=1;shadow=0;fontSize=12;align=center;fontStyle=0;whiteSpace=wrap;rounded=0;" vertex="1" parent="1">
          <mxGeometry x="3446" y="1018" width="100" height="100" as="geometry" />
        </mxCell>
        <mxCell id="S4ZxqDm5p7QgWU9oLSgd-98" value="0" style="html=1;shadow=0;fontSize=12;align=center;fontStyle=0;whiteSpace=wrap;rounded=0;" vertex="1" parent="1">
          <mxGeometry x="3236" y="1123" width="100" height="100" as="geometry" />
        </mxCell>
        <mxCell id="S4ZxqDm5p7QgWU9oLSgd-99" value="0" style="html=1;shadow=0;fontSize=12;align=center;fontStyle=0;whiteSpace=wrap;rounded=0;" vertex="1" parent="1">
          <mxGeometry x="3341" y="1123" width="100" height="100" as="geometry" />
        </mxCell>
        <mxCell id="S4ZxqDm5p7QgWU9oLSgd-100" value="5" style="html=1;fillColor=#fff2cc;strokeColor=#d6b656;shadow=0;fontSize=12;align=center;fontStyle=0;whiteSpace=wrap;rounded=0;" vertex="1" parent="1">
          <mxGeometry x="3446" y="1123" width="100" height="100" as="geometry" />
        </mxCell>
        <mxCell id="S4ZxqDm5p7QgWU9oLSgd-101" value="0" style="html=1;shadow=0;fontSize=12;align=center;fontStyle=0;whiteSpace=wrap;rounded=0;" vertex="1" parent="1">
          <mxGeometry x="3236" y="1228" width="100" height="100" as="geometry" />
        </mxCell>
        <mxCell id="S4ZxqDm5p7QgWU9oLSgd-102" value="7" style="html=1;shadow=0;fontSize=12;align=center;fontStyle=0;whiteSpace=wrap;rounded=0;fillColor=#fff2cc;strokeColor=#d6b656;" vertex="1" parent="1">
          <mxGeometry x="3341" y="1228" width="100" height="100" as="geometry" />
        </mxCell>
        <mxCell id="S4ZxqDm5p7QgWU9oLSgd-103" value="9" style="html=1;shadow=0;fontSize=12;align=center;fontStyle=0;whiteSpace=wrap;rounded=0;fillColor=#fff2cc;strokeColor=#d6b656;" vertex="1" parent="1">
          <mxGeometry x="3446" y="1228" width="100" height="100" as="geometry" />
        </mxCell>
        <mxCell id="S4ZxqDm5p7QgWU9oLSgd-218" value="Assining the domain to every empty cell" style="text;html=1;align=center;verticalAlign=middle;whiteSpace=wrap;rounded=0;strokeColor=default;" vertex="1" parent="1">
          <mxGeometry x="3660" y="835" width="170" height="30" as="geometry" />
        </mxCell>
        <mxCell id="S4ZxqDm5p7QgWU9oLSgd-220" style="edgeStyle=orthogonalEdgeStyle;rounded=0;orthogonalLoop=1;jettySize=auto;html=1;exitX=0.1;exitY=0.5;exitDx=0;exitDy=0;exitPerimeter=0;entryX=0;entryY=0.5;entryDx=0;entryDy=0;" edge="1" parent="1" source="S4ZxqDm5p7QgWU9oLSgd-219" target="S4ZxqDm5p7QgWU9oLSgd-218">
          <mxGeometry relative="1" as="geometry" />
        </mxCell>
        <mxCell id="S4ZxqDm5p7QgWU9oLSgd-219" value="" style="shape=curlyBracket;whiteSpace=wrap;html=1;rounded=1;flipH=1;labelPosition=right;verticalLabelPosition=middle;align=left;verticalAlign=middle;" vertex="1" parent="1">
          <mxGeometry x="3600" y="340" width="20" height="1020" as="geometry" />
        </mxCell>
        <mxCell id="S4ZxqDm5p7QgWU9oLSgd-221" value="5" style="html=1;shadow=0;fontSize=12;align=center;fontStyle=0;whiteSpace=wrap;rounded=0;fillColor=#fff2cc;strokeColor=#d6b656;" vertex="1" parent="1">
          <mxGeometry x="4025" y="395" width="100" height="100" as="geometry" />
        </mxCell>
        <mxCell id="S4ZxqDm5p7QgWU9oLSgd-222" value="3" style="html=1;shadow=0;fontSize=12;align=center;fontStyle=0;whiteSpace=wrap;rounded=0;fillColor=#fff2cc;strokeColor=#d6b656;" vertex="1" parent="1">
          <mxGeometry x="4130" y="395" width="100" height="100" as="geometry" />
        </mxCell>
        <mxCell id="S4ZxqDm5p7QgWU9oLSgd-223" value="0&lt;div&gt;Domain : [1,2,3,4,5,6,7,8,9]&lt;/div&gt;" style="html=1;shadow=0;fontSize=12;align=center;fontStyle=0;whiteSpace=wrap;rounded=0;" vertex="1" parent="1">
          <mxGeometry x="4235" y="395" width="100" height="100" as="geometry" />
        </mxCell>
        <mxCell id="S4ZxqDm5p7QgWU9oLSgd-224" value="6" style="html=1;shadow=0;fontSize=12;align=center;fontStyle=0;whiteSpace=wrap;rounded=0;fillColor=#fff2cc;strokeColor=#d6b656;" vertex="1" parent="1">
          <mxGeometry x="4025" y="500" width="100" height="100" as="geometry" />
        </mxCell>
        <mxCell id="S4ZxqDm5p7QgWU9oLSgd-225" value="0&lt;div&gt;Domain : [1,2,3,4,5,6,7,8,9]&lt;br&gt;&lt;/div&gt;" style="html=1;shadow=0;fontSize=12;align=center;fontStyle=0;whiteSpace=wrap;rounded=0;" vertex="1" parent="1">
          <mxGeometry x="4130" y="500" width="100" height="100" as="geometry" />
        </mxCell>
        <mxCell id="S4ZxqDm5p7QgWU9oLSgd-226" value="0&lt;div&gt;Domain : [1,2,3,4,5,6,7,8,9]&lt;br&gt;&lt;/div&gt;" style="html=1;shadow=0;fontSize=12;align=center;fontStyle=0;whiteSpace=wrap;rounded=0;" vertex="1" parent="1">
          <mxGeometry x="4235" y="500" width="100" height="100" as="geometry" />
        </mxCell>
        <mxCell id="S4ZxqDm5p7QgWU9oLSgd-227" value="0Domain : [1,2,3,4,5,6,7,8,9]" style="html=1;shadow=0;fontSize=12;align=center;fontStyle=0;whiteSpace=wrap;rounded=0;" vertex="1" parent="1">
          <mxGeometry x="4025" y="605" width="100" height="100" as="geometry" />
        </mxCell>
        <mxCell id="S4ZxqDm5p7QgWU9oLSgd-228" value="9" style="html=1;shadow=0;fontSize=12;align=center;fontStyle=0;whiteSpace=wrap;rounded=0;fillColor=#fff2cc;strokeColor=#d6b656;" vertex="1" parent="1">
          <mxGeometry x="4130" y="605" width="100" height="100" as="geometry" />
        </mxCell>
        <mxCell id="S4ZxqDm5p7QgWU9oLSgd-229" value="8" style="html=1;shadow=0;fontSize=12;align=center;fontStyle=0;whiteSpace=wrap;rounded=0;fillColor=#fff2cc;strokeColor=#d6b656;" vertex="1" parent="1">
          <mxGeometry x="4235" y="605" width="100" height="100" as="geometry" />
        </mxCell>
        <mxCell id="S4ZxqDm5p7QgWU9oLSgd-230" value="0" style="html=1;fillColor=#CCCCCC;strokeColor=none;shadow=0;fontSize=14;fontColor=#FFFFFF;align=center;fontStyle=1;whiteSpace=wrap;horizontal=0;rounded=0;" vertex="1" parent="1">
          <mxGeometry x="3990" y="395" width="30" height="100" as="geometry" />
        </mxCell>
        <mxCell id="S4ZxqDm5p7QgWU9oLSgd-231" value="1" style="html=1;fillColor=#CCCCCC;strokeColor=none;shadow=0;fontSize=14;fontColor=#FFFFFF;align=center;fontStyle=1;whiteSpace=wrap;horizontal=0;rounded=0;" vertex="1" parent="1">
          <mxGeometry x="3990" y="500" width="30" height="100" as="geometry" />
        </mxCell>
        <mxCell id="S4ZxqDm5p7QgWU9oLSgd-232" value="2" style="html=1;fillColor=#CCCCCC;strokeColor=none;shadow=0;fontSize=14;fontColor=#FFFFFF;align=center;fontStyle=1;whiteSpace=wrap;horizontal=0;rounded=0;" vertex="1" parent="1">
          <mxGeometry x="3990" y="605" width="30" height="100" as="geometry" />
        </mxCell>
        <mxCell id="S4ZxqDm5p7QgWU9oLSgd-233" value="0" style="html=1;fillColor=#CCCCCC;strokeColor=none;shadow=0;fontSize=14;fontColor=#FFFFFF;align=center;fontStyle=1;whiteSpace=wrap;rounded=0;" vertex="1" parent="1">
          <mxGeometry x="4025" y="360" width="100" height="30" as="geometry" />
        </mxCell>
        <mxCell id="S4ZxqDm5p7QgWU9oLSgd-234" value="1" style="html=1;fillColor=#CCCCCC;strokeColor=none;shadow=0;fontSize=14;fontColor=#FFFFFF;align=center;fontStyle=1;whiteSpace=wrap;rounded=0;" vertex="1" parent="1">
          <mxGeometry x="4130" y="360" width="100" height="30" as="geometry" />
        </mxCell>
        <mxCell id="S4ZxqDm5p7QgWU9oLSgd-235" value="1" style="html=1;fillColor=#CCCCCC;strokeColor=none;shadow=0;fontSize=14;fontColor=#FFFFFF;align=center;fontStyle=1;whiteSpace=wrap;rounded=0;" vertex="1" parent="1">
          <mxGeometry x="4235" y="360" width="100" height="30" as="geometry" />
        </mxCell>
        <mxCell id="S4ZxqDm5p7QgWU9oLSgd-236" value="0&lt;div&gt;Domain : [1,2,3,4,5,6,7,8,9]&lt;br&gt;&lt;/div&gt;" style="html=1;shadow=0;fontSize=12;align=center;fontStyle=0;whiteSpace=wrap;rounded=0;" vertex="1" parent="1">
          <mxGeometry x="4339" y="395" width="100" height="100" as="geometry" />
        </mxCell>
        <mxCell id="S4ZxqDm5p7QgWU9oLSgd-237" value="7" style="html=1;shadow=0;fontSize=12;align=center;fontStyle=0;whiteSpace=wrap;rounded=0;fillColor=#fff2cc;strokeColor=#d6b656;" vertex="1" parent="1">
          <mxGeometry x="4444" y="395" width="100" height="100" as="geometry" />
        </mxCell>
        <mxCell id="S4ZxqDm5p7QgWU9oLSgd-238" value="0&lt;div&gt;Domain : [1,2,3,4,5,6,7,8,9]&lt;br&gt;&lt;/div&gt;" style="html=1;shadow=0;fontSize=12;align=center;fontStyle=0;whiteSpace=wrap;rounded=0;" vertex="1" parent="1">
          <mxGeometry x="4549" y="395" width="100" height="100" as="geometry" />
        </mxCell>
        <mxCell id="S4ZxqDm5p7QgWU9oLSgd-239" value="1" style="html=1;shadow=0;fontSize=12;align=center;fontStyle=0;whiteSpace=wrap;rounded=0;fillColor=#fff2cc;strokeColor=#d6b656;" vertex="1" parent="1">
          <mxGeometry x="4339" y="500" width="100" height="100" as="geometry" />
        </mxCell>
        <mxCell id="S4ZxqDm5p7QgWU9oLSgd-240" value="9" style="html=1;shadow=0;fontSize=12;align=center;fontStyle=0;whiteSpace=wrap;rounded=0;fillColor=#fff2cc;strokeColor=#d6b656;" vertex="1" parent="1">
          <mxGeometry x="4444" y="500" width="100" height="100" as="geometry" />
        </mxCell>
        <mxCell id="S4ZxqDm5p7QgWU9oLSgd-241" value="5" style="html=1;shadow=0;fontSize=12;align=center;fontStyle=0;whiteSpace=wrap;rounded=0;fillColor=#fff2cc;strokeColor=#d6b656;" vertex="1" parent="1">
          <mxGeometry x="4549" y="500" width="100" height="100" as="geometry" />
        </mxCell>
        <mxCell id="S4ZxqDm5p7QgWU9oLSgd-242" value="0&lt;div&gt;Domain : [1,2,3,4,5,6,7,8,9]&lt;br&gt;&lt;/div&gt;" style="html=1;shadow=0;fontSize=12;align=center;fontStyle=0;whiteSpace=wrap;rounded=0;" vertex="1" parent="1">
          <mxGeometry x="4339" y="605" width="100" height="100" as="geometry" />
        </mxCell>
        <mxCell id="S4ZxqDm5p7QgWU9oLSgd-243" value="0&lt;div&gt;Domain : [1,2,3,4,5,6,7,8,9]&lt;br&gt;&lt;/div&gt;" style="html=1;shadow=0;fontSize=12;align=center;fontStyle=0;whiteSpace=wrap;rounded=0;" vertex="1" parent="1">
          <mxGeometry x="4444" y="605" width="100" height="100" as="geometry" />
        </mxCell>
        <mxCell id="S4ZxqDm5p7QgWU9oLSgd-244" value="0&lt;div&gt;Domain : [1,2,3,4,5,6,7,8,9]&lt;br&gt;&lt;/div&gt;" style="html=1;shadow=0;fontSize=12;align=center;fontStyle=0;whiteSpace=wrap;rounded=0;" vertex="1" parent="1">
          <mxGeometry x="4549" y="605" width="100" height="100" as="geometry" />
        </mxCell>
        <mxCell id="S4ZxqDm5p7QgWU9oLSgd-245" value="2" style="html=1;fillColor=#CCCCCC;strokeColor=none;shadow=0;fontSize=14;fontColor=#FFFFFF;align=center;fontStyle=1;whiteSpace=wrap;rounded=0;" vertex="1" parent="1">
          <mxGeometry x="4339" y="360" width="100" height="30" as="geometry" />
        </mxCell>
        <mxCell id="S4ZxqDm5p7QgWU9oLSgd-246" value="3" style="html=1;fillColor=#CCCCCC;strokeColor=none;shadow=0;fontSize=14;fontColor=#FFFFFF;align=center;fontStyle=1;whiteSpace=wrap;rounded=0;" vertex="1" parent="1">
          <mxGeometry x="4444" y="360" width="100" height="30" as="geometry" />
        </mxCell>
        <mxCell id="S4ZxqDm5p7QgWU9oLSgd-247" value="4" style="html=1;fillColor=#CCCCCC;strokeColor=none;shadow=0;fontSize=14;fontColor=#FFFFFF;align=center;fontStyle=1;whiteSpace=wrap;rounded=0;" vertex="1" parent="1">
          <mxGeometry x="4549" y="360" width="100" height="30" as="geometry" />
        </mxCell>
        <mxCell id="S4ZxqDm5p7QgWU9oLSgd-248" value="8" style="html=1;shadow=0;fontSize=12;align=center;fontStyle=0;whiteSpace=wrap;rounded=0;fillColor=#fff2cc;strokeColor=#d6b656;" vertex="1" parent="1">
          <mxGeometry x="4026" y="712" width="100" height="100" as="geometry" />
        </mxCell>
        <mxCell id="S4ZxqDm5p7QgWU9oLSgd-249" value="0&lt;div&gt;Domain : [1,2,3,4,5,6,7,8,9]&lt;br&gt;&lt;/div&gt;" style="html=1;shadow=0;fontSize=12;align=center;fontStyle=0;whiteSpace=wrap;rounded=0;" vertex="1" parent="1">
          <mxGeometry x="4131" y="712" width="100" height="100" as="geometry" />
        </mxCell>
        <mxCell id="S4ZxqDm5p7QgWU9oLSgd-250" value="0&lt;div&gt;Domain : [1,2,3,4,5,6,7,8,9]&lt;br&gt;&lt;/div&gt;" style="html=1;shadow=0;fontSize=12;align=center;fontStyle=0;whiteSpace=wrap;rounded=0;" vertex="1" parent="1">
          <mxGeometry x="4236" y="712" width="100" height="100" as="geometry" />
        </mxCell>
        <mxCell id="S4ZxqDm5p7QgWU9oLSgd-251" value="4" style="html=1;shadow=0;fontSize=12;align=center;fontStyle=0;whiteSpace=wrap;rounded=0;fillColor=#fff2cc;strokeColor=#d6b656;" vertex="1" parent="1">
          <mxGeometry x="4026" y="817" width="100" height="100" as="geometry" />
        </mxCell>
        <mxCell id="S4ZxqDm5p7QgWU9oLSgd-252" value="0&lt;div&gt;Domain : [1,2,3,4,5,6,7,8,9]&lt;br&gt;&lt;/div&gt;" style="html=1;shadow=0;fontSize=12;align=center;fontStyle=0;whiteSpace=wrap;rounded=0;" vertex="1" parent="1">
          <mxGeometry x="4131" y="817" width="100" height="100" as="geometry" />
        </mxCell>
        <mxCell id="S4ZxqDm5p7QgWU9oLSgd-253" value="0&lt;div&gt;Domain : [1,2,3,4,5,6,7,8,9]&lt;br&gt;&lt;/div&gt;" style="html=1;shadow=0;fontSize=12;align=center;fontStyle=0;whiteSpace=wrap;rounded=0;" vertex="1" parent="1">
          <mxGeometry x="4236" y="817" width="100" height="100" as="geometry" />
        </mxCell>
        <mxCell id="S4ZxqDm5p7QgWU9oLSgd-254" value="7" style="html=1;shadow=0;fontSize=12;align=center;fontStyle=0;whiteSpace=wrap;rounded=0;fillColor=#fff2cc;strokeColor=#d6b656;" vertex="1" parent="1">
          <mxGeometry x="4026" y="922" width="100" height="100" as="geometry" />
        </mxCell>
        <mxCell id="S4ZxqDm5p7QgWU9oLSgd-255" value="0&lt;div&gt;Domain : [1,2,3,4,5,6,7,8,9]&lt;br&gt;&lt;/div&gt;" style="html=1;shadow=0;fontSize=12;align=center;fontStyle=0;whiteSpace=wrap;rounded=0;" vertex="1" parent="1">
          <mxGeometry x="4131" y="922" width="100" height="100" as="geometry" />
        </mxCell>
        <mxCell id="S4ZxqDm5p7QgWU9oLSgd-256" value="0&lt;div&gt;Domain : [1,2,3,4,5,6,7,8,9]&lt;br&gt;&lt;/div&gt;" style="html=1;shadow=0;fontSize=12;align=center;fontStyle=0;whiteSpace=wrap;rounded=0;" vertex="1" parent="1">
          <mxGeometry x="4236" y="922" width="100" height="100" as="geometry" />
        </mxCell>
        <mxCell id="S4ZxqDm5p7QgWU9oLSgd-257" value="3" style="html=1;fillColor=#CCCCCC;strokeColor=none;shadow=0;fontSize=14;fontColor=#FFFFFF;align=center;fontStyle=1;whiteSpace=wrap;horizontal=0;rounded=0;" vertex="1" parent="1">
          <mxGeometry x="3991" y="712" width="30" height="100" as="geometry" />
        </mxCell>
        <mxCell id="S4ZxqDm5p7QgWU9oLSgd-258" value="4" style="html=1;fillColor=#CCCCCC;strokeColor=none;shadow=0;fontSize=14;fontColor=#FFFFFF;align=center;fontStyle=1;whiteSpace=wrap;horizontal=0;rounded=0;" vertex="1" parent="1">
          <mxGeometry x="3991" y="817" width="30" height="100" as="geometry" />
        </mxCell>
        <mxCell id="S4ZxqDm5p7QgWU9oLSgd-259" value="5" style="html=1;fillColor=#CCCCCC;strokeColor=none;shadow=0;fontSize=14;fontColor=#FFFFFF;align=center;fontStyle=1;whiteSpace=wrap;horizontal=0;rounded=0;" vertex="1" parent="1">
          <mxGeometry x="3991" y="922" width="30" height="100" as="geometry" />
        </mxCell>
        <mxCell id="S4ZxqDm5p7QgWU9oLSgd-260" value="0&lt;div&gt;Domain : [1,2,3,4,5,6,7,8,9]&lt;br&gt;&lt;/div&gt;" style="html=1;shadow=0;fontSize=12;align=center;fontStyle=0;whiteSpace=wrap;rounded=0;" vertex="1" parent="1">
          <mxGeometry x="4340" y="712" width="100" height="100" as="geometry" />
        </mxCell>
        <mxCell id="S4ZxqDm5p7QgWU9oLSgd-261" value="6" style="html=1;shadow=0;fontSize=12;align=center;fontStyle=0;whiteSpace=wrap;rounded=0;fillColor=#fff2cc;strokeColor=#d6b656;" vertex="1" parent="1">
          <mxGeometry x="4445" y="712" width="100" height="100" as="geometry" />
        </mxCell>
        <mxCell id="S4ZxqDm5p7QgWU9oLSgd-262" value="0&lt;div&gt;Domain : [1,2,3,4,5,6,7,8,9]&lt;br&gt;&lt;/div&gt;" style="html=1;shadow=0;fontSize=12;align=center;fontStyle=0;whiteSpace=wrap;rounded=0;" vertex="1" parent="1">
          <mxGeometry x="4550" y="712" width="100" height="100" as="geometry" />
        </mxCell>
        <mxCell id="S4ZxqDm5p7QgWU9oLSgd-263" value="8" style="html=1;shadow=0;fontSize=12;align=center;fontStyle=0;whiteSpace=wrap;rounded=0;fillColor=#fff2cc;strokeColor=#d6b656;" vertex="1" parent="1">
          <mxGeometry x="4340" y="817" width="100" height="100" as="geometry" />
        </mxCell>
        <mxCell id="S4ZxqDm5p7QgWU9oLSgd-264" value="0&lt;div&gt;Domain : [1,2,3,4,5,6,7,8,9]&lt;br&gt;&lt;/div&gt;" style="html=1;shadow=0;fontSize=12;align=center;fontStyle=0;whiteSpace=wrap;rounded=0;" vertex="1" parent="1">
          <mxGeometry x="4445" y="817" width="100" height="100" as="geometry" />
        </mxCell>
        <mxCell id="S4ZxqDm5p7QgWU9oLSgd-265" value="3" style="html=1;shadow=0;fontSize=12;align=center;fontStyle=0;whiteSpace=wrap;rounded=0;fillColor=#fff2cc;strokeColor=#d6b656;" vertex="1" parent="1">
          <mxGeometry x="4550" y="817" width="100" height="100" as="geometry" />
        </mxCell>
        <mxCell id="S4ZxqDm5p7QgWU9oLSgd-266" value="0&lt;div&gt;Domain : [1,2,3,4,5,6,7,8,9]&lt;br&gt;&lt;/div&gt;" style="html=1;shadow=0;fontSize=12;align=center;fontStyle=0;whiteSpace=wrap;rounded=0;" vertex="1" parent="1">
          <mxGeometry x="4340" y="922" width="100" height="100" as="geometry" />
        </mxCell>
        <mxCell id="S4ZxqDm5p7QgWU9oLSgd-267" value="2" style="html=1;shadow=0;fontSize=12;align=center;fontStyle=0;whiteSpace=wrap;rounded=0;fillColor=#fff2cc;strokeColor=#d6b656;" vertex="1" parent="1">
          <mxGeometry x="4445" y="922" width="100" height="100" as="geometry" />
        </mxCell>
        <mxCell id="S4ZxqDm5p7QgWU9oLSgd-268" value="0&lt;div&gt;Domain : [1,2,3,4,5,6,7,8,9]&lt;br&gt;&lt;/div&gt;" style="html=1;shadow=0;fontSize=12;align=center;fontStyle=0;whiteSpace=wrap;rounded=0;" vertex="1" parent="1">
          <mxGeometry x="4551" y="922" width="100" height="100" as="geometry" />
        </mxCell>
        <mxCell id="S4ZxqDm5p7QgWU9oLSgd-269" value="0&lt;div&gt;Domain : [1,2,3,4,5,6,7,8,9]&lt;br&gt;&lt;/div&gt;" style="html=1;shadow=0;fontSize=12;align=center;fontStyle=0;whiteSpace=wrap;rounded=0;" vertex="1" parent="1">
          <mxGeometry x="4655" y="395" width="100" height="100" as="geometry" />
        </mxCell>
        <mxCell id="S4ZxqDm5p7QgWU9oLSgd-270" value="0&lt;div&gt;Domain : [1,2,3,4,5,6,7,8,9]&lt;br&gt;&lt;/div&gt;" style="html=1;shadow=0;fontSize=12;align=center;fontStyle=0;whiteSpace=wrap;rounded=0;" vertex="1" parent="1">
          <mxGeometry x="4760" y="395" width="100" height="100" as="geometry" />
        </mxCell>
        <mxCell id="S4ZxqDm5p7QgWU9oLSgd-335" style="edgeStyle=orthogonalEdgeStyle;rounded=0;orthogonalLoop=1;jettySize=auto;html=1;exitX=1;exitY=0.5;exitDx=0;exitDy=0;entryX=0;entryY=0.5;entryDx=0;entryDy=0;" edge="1" parent="1" source="S4ZxqDm5p7QgWU9oLSgd-271" target="S4ZxqDm5p7QgWU9oLSgd-334">
          <mxGeometry relative="1" as="geometry" />
        </mxCell>
        <mxCell id="S4ZxqDm5p7QgWU9oLSgd-271" value="0&lt;div&gt;Domain : [1,2,3,4,5,6,7,8,9]&lt;br&gt;&lt;/div&gt;" style="html=1;shadow=0;fontSize=12;align=center;fontStyle=0;whiteSpace=wrap;rounded=0;" vertex="1" parent="1">
          <mxGeometry x="4865" y="395" width="100" height="100" as="geometry" />
        </mxCell>
        <mxCell id="S4ZxqDm5p7QgWU9oLSgd-272" value="0&lt;div&gt;Domain : [1,2,3,4,5,6,7,8,9]&lt;br&gt;&lt;/div&gt;" style="html=1;shadow=0;fontSize=12;align=center;fontStyle=0;whiteSpace=wrap;rounded=0;" vertex="1" parent="1">
          <mxGeometry x="4656" y="500" width="100" height="100" as="geometry" />
        </mxCell>
        <mxCell id="S4ZxqDm5p7QgWU9oLSgd-273" value="0&lt;div&gt;Domain : [1,2,3,4,5,6,7,8,9]&lt;br&gt;&lt;/div&gt;" style="html=1;shadow=0;fontSize=12;align=center;fontStyle=0;whiteSpace=wrap;rounded=0;" vertex="1" parent="1">
          <mxGeometry x="4760" y="500" width="100" height="100" as="geometry" />
        </mxCell>
        <mxCell id="S4ZxqDm5p7QgWU9oLSgd-274" value="0&lt;div&gt;Domain : [1,2,3,4,5,6,7,8,9]&lt;br&gt;&lt;/div&gt;" style="html=1;shadow=0;fontSize=12;align=center;fontStyle=0;whiteSpace=wrap;rounded=0;" vertex="1" parent="1">
          <mxGeometry x="4865" y="500" width="100" height="100" as="geometry" />
        </mxCell>
        <mxCell id="S4ZxqDm5p7QgWU9oLSgd-275" value="0&lt;div&gt;Domain : [1,2,3,4,5,6,7,8,9]&lt;br&gt;&lt;/div&gt;" style="html=1;shadow=0;fontSize=12;align=center;fontStyle=0;whiteSpace=wrap;rounded=0;" vertex="1" parent="1">
          <mxGeometry x="4655" y="605" width="100" height="100" as="geometry" />
        </mxCell>
        <mxCell id="S4ZxqDm5p7QgWU9oLSgd-276" value="6" style="html=1;fillColor=#fff2cc;strokeColor=#d6b656;shadow=0;fontSize=12;align=center;fontStyle=0;whiteSpace=wrap;rounded=0;" vertex="1" parent="1">
          <mxGeometry x="4760" y="605" width="100" height="105" as="geometry" />
        </mxCell>
        <mxCell id="S4ZxqDm5p7QgWU9oLSgd-277" value="0&lt;div&gt;Domain : [1,2,3,4,5,6,7,8,9]&lt;br&gt;&lt;/div&gt;" style="html=1;shadow=0;fontSize=12;align=center;fontStyle=0;whiteSpace=wrap;rounded=0;" vertex="1" parent="1">
          <mxGeometry x="4865" y="605" width="100" height="100" as="geometry" />
        </mxCell>
        <mxCell id="S4ZxqDm5p7QgWU9oLSgd-278" value="4" style="html=1;fillColor=#CCCCCC;strokeColor=none;shadow=0;fontSize=14;fontColor=#FFFFFF;align=center;fontStyle=1;whiteSpace=wrap;rounded=0;" vertex="1" parent="1">
          <mxGeometry x="4655" y="360" width="100" height="30" as="geometry" />
        </mxCell>
        <mxCell id="S4ZxqDm5p7QgWU9oLSgd-279" value="5" style="html=1;fillColor=#CCCCCC;strokeColor=none;shadow=0;fontSize=14;fontColor=#FFFFFF;align=center;fontStyle=1;whiteSpace=wrap;rounded=0;" vertex="1" parent="1">
          <mxGeometry x="4760" y="360" width="100" height="30" as="geometry" />
        </mxCell>
        <mxCell id="S4ZxqDm5p7QgWU9oLSgd-280" value="6" style="html=1;fillColor=#CCCCCC;strokeColor=none;shadow=0;fontSize=14;fontColor=#FFFFFF;align=center;fontStyle=1;whiteSpace=wrap;rounded=0;" vertex="1" parent="1">
          <mxGeometry x="4865" y="360" width="100" height="30" as="geometry" />
        </mxCell>
        <mxCell id="S4ZxqDm5p7QgWU9oLSgd-281" value="0&lt;div&gt;Domain : [1,2,3,4,5,6,7,8,9]&lt;br&gt;&lt;/div&gt;" style="html=1;shadow=0;fontSize=12;align=center;fontStyle=0;whiteSpace=wrap;rounded=0;" vertex="1" parent="1">
          <mxGeometry x="4656" y="712" width="100" height="100" as="geometry" />
        </mxCell>
        <mxCell id="S4ZxqDm5p7QgWU9oLSgd-282" value="0&lt;div&gt;Domain : [1,2,3,4,5,6,7,8,9]&lt;br&gt;&lt;/div&gt;" style="html=1;shadow=0;fontSize=12;align=center;fontStyle=0;whiteSpace=wrap;rounded=0;" vertex="1" parent="1">
          <mxGeometry x="4761" y="712" width="100" height="100" as="geometry" />
        </mxCell>
        <mxCell id="S4ZxqDm5p7QgWU9oLSgd-283" value="3" style="html=1;shadow=0;fontSize=12;align=center;fontStyle=0;whiteSpace=wrap;rounded=0;fillColor=#fff2cc;strokeColor=#d6b656;" vertex="1" parent="1">
          <mxGeometry x="4866" y="712" width="100" height="100" as="geometry" />
        </mxCell>
        <mxCell id="S4ZxqDm5p7QgWU9oLSgd-284" value="0&lt;div&gt;Domain : [1,2,3,4,5,6,7,8,9]&lt;br&gt;&lt;/div&gt;" style="html=1;shadow=0;fontSize=12;align=center;fontStyle=0;whiteSpace=wrap;rounded=0;" vertex="1" parent="1">
          <mxGeometry x="4656" y="817" width="100" height="100" as="geometry" />
        </mxCell>
        <mxCell id="S4ZxqDm5p7QgWU9oLSgd-285" value="0&lt;div&gt;Domain : [1,2,3,4,5,6,7,8,9]&lt;br&gt;&lt;/div&gt;" style="html=1;shadow=0;fontSize=12;align=center;fontStyle=0;whiteSpace=wrap;rounded=0;" vertex="1" parent="1">
          <mxGeometry x="4762" y="817" width="100" height="100" as="geometry" />
        </mxCell>
        <mxCell id="S4ZxqDm5p7QgWU9oLSgd-286" value="1" style="html=1;shadow=0;fontSize=12;align=center;fontStyle=0;whiteSpace=wrap;rounded=0;fillColor=#fff2cc;strokeColor=#d6b656;" vertex="1" parent="1">
          <mxGeometry x="4866" y="817" width="100" height="100" as="geometry" />
        </mxCell>
        <mxCell id="S4ZxqDm5p7QgWU9oLSgd-287" value="0&lt;div&gt;Domain : [1,2,3,4,5,6,7,8,9]&lt;br&gt;&lt;/div&gt;" style="html=1;shadow=0;fontSize=12;align=center;fontStyle=0;whiteSpace=wrap;rounded=0;" vertex="1" parent="1">
          <mxGeometry x="4656" y="922" width="100" height="100" as="geometry" />
        </mxCell>
        <mxCell id="S4ZxqDm5p7QgWU9oLSgd-288" value="0&lt;div&gt;Domain : [1,2,3,4,5,6,7,8,9]&lt;br&gt;&lt;/div&gt;" style="html=1;shadow=0;fontSize=12;align=center;fontStyle=0;whiteSpace=wrap;rounded=0;" vertex="1" parent="1">
          <mxGeometry x="4761" y="922" width="100" height="100" as="geometry" />
        </mxCell>
        <mxCell id="S4ZxqDm5p7QgWU9oLSgd-289" value="6" style="html=1;fillColor=#fff2cc;strokeColor=#d6b656;shadow=0;fontSize=12;align=center;fontStyle=0;whiteSpace=wrap;rounded=0;" vertex="1" parent="1">
          <mxGeometry x="4866" y="922" width="100" height="100" as="geometry" />
        </mxCell>
        <mxCell id="S4ZxqDm5p7QgWU9oLSgd-290" value="0&lt;div&gt;Domain : [1,2,3,4,5,6,7,8,9]&lt;br&gt;&lt;/div&gt;" style="html=1;shadow=0;fontSize=12;align=center;fontStyle=0;whiteSpace=wrap;rounded=0;" vertex="1" parent="1">
          <mxGeometry x="4027" y="1028" width="100" height="100" as="geometry" />
        </mxCell>
        <mxCell id="S4ZxqDm5p7QgWU9oLSgd-291" value="6" style="html=1;fillColor=#fff2cc;strokeColor=#d6b656;shadow=0;fontSize=12;align=center;fontStyle=0;whiteSpace=wrap;rounded=0;" vertex="1" parent="1">
          <mxGeometry x="4131" y="1028" width="100" height="100" as="geometry" />
        </mxCell>
        <mxCell id="S4ZxqDm5p7QgWU9oLSgd-292" value="0&lt;div&gt;Domain : [1,2,3,4,5,6,7,8,9]&lt;br&gt;&lt;/div&gt;" style="html=1;shadow=0;fontSize=12;align=center;fontStyle=0;whiteSpace=wrap;rounded=0;" vertex="1" parent="1">
          <mxGeometry x="4236" y="1028" width="100" height="100" as="geometry" />
        </mxCell>
        <mxCell id="S4ZxqDm5p7QgWU9oLSgd-293" value="0&lt;div&gt;Domain : [1,2,3,4,5,6,7,8,9]&lt;br&gt;&lt;/div&gt;" style="html=1;shadow=0;fontSize=12;align=center;fontStyle=0;whiteSpace=wrap;rounded=0;" vertex="1" parent="1">
          <mxGeometry x="4026" y="1133" width="100" height="100" as="geometry" />
        </mxCell>
        <mxCell id="S4ZxqDm5p7QgWU9oLSgd-294" value="0&lt;div&gt;Domain : [1,2,3,4,5,6,7,8,9]&lt;br&gt;&lt;/div&gt;" style="html=1;shadow=0;fontSize=12;align=center;fontStyle=0;whiteSpace=wrap;rounded=0;" vertex="1" parent="1">
          <mxGeometry x="4131" y="1133" width="100" height="100" as="geometry" />
        </mxCell>
        <mxCell id="S4ZxqDm5p7QgWU9oLSgd-295" value="0&lt;div&gt;Domain : [1,2,3,4,5,6,7,8,9]&lt;br&gt;&lt;/div&gt;" style="html=1;shadow=0;fontSize=12;align=center;fontStyle=0;whiteSpace=wrap;rounded=0;" vertex="1" parent="1">
          <mxGeometry x="4236" y="1133" width="100" height="100" as="geometry" />
        </mxCell>
        <mxCell id="S4ZxqDm5p7QgWU9oLSgd-296" value="0&lt;div&gt;Domain : [1,2,3,4,5,6,7,8,9]&lt;br&gt;&lt;/div&gt;" style="html=1;shadow=0;fontSize=12;align=center;fontStyle=0;whiteSpace=wrap;rounded=0;" vertex="1" parent="1">
          <mxGeometry x="4026" y="1238" width="100" height="100" as="geometry" />
        </mxCell>
        <mxCell id="S4ZxqDm5p7QgWU9oLSgd-297" value="0&lt;div&gt;Domain : [1,2,3,4,5,6,7,8,9]&lt;br&gt;&lt;/div&gt;" style="html=1;shadow=0;fontSize=12;align=center;fontStyle=0;whiteSpace=wrap;rounded=0;" vertex="1" parent="1">
          <mxGeometry x="4131" y="1238" width="100" height="100" as="geometry" />
        </mxCell>
        <mxCell id="S4ZxqDm5p7QgWU9oLSgd-298" value="0&lt;div&gt;Domain : [1,2,3,4,5,6,7,8,9]&lt;br&gt;&lt;/div&gt;" style="html=1;shadow=0;fontSize=12;align=center;fontStyle=0;whiteSpace=wrap;rounded=0;" vertex="1" parent="1">
          <mxGeometry x="4236" y="1238" width="100" height="100" as="geometry" />
        </mxCell>
        <mxCell id="S4ZxqDm5p7QgWU9oLSgd-299" value="6" style="html=1;fillColor=#CCCCCC;strokeColor=none;shadow=0;fontSize=14;fontColor=#FFFFFF;align=center;fontStyle=1;whiteSpace=wrap;horizontal=0;rounded=0;" vertex="1" parent="1">
          <mxGeometry x="3991" y="1028" width="30" height="100" as="geometry" />
        </mxCell>
        <mxCell id="S4ZxqDm5p7QgWU9oLSgd-300" value="7" style="html=1;fillColor=#CCCCCC;strokeColor=none;shadow=0;fontSize=14;fontColor=#FFFFFF;align=center;fontStyle=1;whiteSpace=wrap;horizontal=0;rounded=0;" vertex="1" parent="1">
          <mxGeometry x="3991" y="1133" width="30" height="100" as="geometry" />
        </mxCell>
        <mxCell id="S4ZxqDm5p7QgWU9oLSgd-301" value="8" style="html=1;fillColor=#CCCCCC;strokeColor=none;shadow=0;fontSize=14;fontColor=#FFFFFF;align=center;fontStyle=1;whiteSpace=wrap;horizontal=0;rounded=0;" vertex="1" parent="1">
          <mxGeometry x="3991" y="1238" width="30" height="100" as="geometry" />
        </mxCell>
        <mxCell id="S4ZxqDm5p7QgWU9oLSgd-302" value="0&lt;div&gt;Domain : [1,2,3,4,5,6,7,8,9]&lt;br&gt;&lt;/div&gt;" style="html=1;shadow=0;fontSize=12;align=center;fontStyle=0;whiteSpace=wrap;rounded=0;" vertex="1" parent="1">
          <mxGeometry x="4340" y="1028" width="100" height="100" as="geometry" />
        </mxCell>
        <mxCell id="S4ZxqDm5p7QgWU9oLSgd-303" value="0&lt;div&gt;Domain : [1,2,3,4,5,6,7,8,9]&lt;br&gt;&lt;/div&gt;" style="html=1;shadow=0;fontSize=12;align=center;fontStyle=0;whiteSpace=wrap;rounded=0;" vertex="1" parent="1">
          <mxGeometry x="4445" y="1028" width="100" height="100" as="geometry" />
        </mxCell>
        <mxCell id="S4ZxqDm5p7QgWU9oLSgd-304" value="0&lt;div&gt;Domain : [1,2,3,4,5,6,7,8,9]&lt;br&gt;&lt;/div&gt;" style="html=1;shadow=0;fontSize=12;align=center;fontStyle=0;whiteSpace=wrap;rounded=0;" vertex="1" parent="1">
          <mxGeometry x="4550" y="1028" width="100" height="100" as="geometry" />
        </mxCell>
        <mxCell id="S4ZxqDm5p7QgWU9oLSgd-305" value="4" style="html=1;shadow=0;fontSize=12;align=center;fontStyle=0;whiteSpace=wrap;rounded=0;fillColor=#fff2cc;strokeColor=#d6b656;" vertex="1" parent="1">
          <mxGeometry x="4340" y="1133" width="100" height="100" as="geometry" />
        </mxCell>
        <mxCell id="S4ZxqDm5p7QgWU9oLSgd-306" value="1" style="html=1;shadow=0;fontSize=12;align=center;fontStyle=0;whiteSpace=wrap;rounded=0;fillColor=#fff2cc;strokeColor=#d6b656;" vertex="1" parent="1">
          <mxGeometry x="4445" y="1133" width="100" height="100" as="geometry" />
        </mxCell>
        <mxCell id="S4ZxqDm5p7QgWU9oLSgd-307" value="9" style="html=1;shadow=0;fontSize=12;align=center;fontStyle=0;whiteSpace=wrap;rounded=0;fillColor=#fff2cc;strokeColor=#d6b656;" vertex="1" parent="1">
          <mxGeometry x="4550" y="1133" width="100" height="100" as="geometry" />
        </mxCell>
        <mxCell id="S4ZxqDm5p7QgWU9oLSgd-308" value="0&lt;div&gt;Domain : [1,2,3,4,5,6,7,8,9]&lt;br&gt;&lt;/div&gt;" style="html=1;shadow=0;fontSize=12;align=center;fontStyle=0;whiteSpace=wrap;rounded=0;" vertex="1" parent="1">
          <mxGeometry x="4341" y="1238" width="100" height="100" as="geometry" />
        </mxCell>
        <mxCell id="S4ZxqDm5p7QgWU9oLSgd-309" value="8" style="html=1;shadow=0;fontSize=12;align=center;fontStyle=0;whiteSpace=wrap;rounded=0;fillColor=#fff2cc;strokeColor=#d6b656;" vertex="1" parent="1">
          <mxGeometry x="4445" y="1238" width="100" height="100" as="geometry" />
        </mxCell>
        <mxCell id="S4ZxqDm5p7QgWU9oLSgd-310" value="0" style="html=1;shadow=0;fontSize=12;align=center;fontStyle=0;whiteSpace=wrap;rounded=0;" vertex="1" parent="1">
          <mxGeometry x="4550" y="1238" width="100" height="100" as="geometry" />
        </mxCell>
        <mxCell id="S4ZxqDm5p7QgWU9oLSgd-311" value="2" style="html=1;shadow=0;fontSize=12;align=center;fontStyle=0;whiteSpace=wrap;rounded=0;fillColor=#fff2cc;strokeColor=#d6b656;" vertex="1" parent="1">
          <mxGeometry x="4656" y="1028" width="100" height="100" as="geometry" />
        </mxCell>
        <mxCell id="S4ZxqDm5p7QgWU9oLSgd-312" value="8" style="html=1;shadow=0;fontSize=12;align=center;fontStyle=0;whiteSpace=wrap;rounded=0;fillColor=#fff2cc;strokeColor=#d6b656;" vertex="1" parent="1">
          <mxGeometry x="4761" y="1028" width="100" height="100" as="geometry" />
        </mxCell>
        <mxCell id="S4ZxqDm5p7QgWU9oLSgd-313" value="0&lt;div&gt;Domain : [1,2,3,4,5,6,7,8,9]&lt;br&gt;&lt;/div&gt;" style="html=1;shadow=0;fontSize=12;align=center;fontStyle=0;whiteSpace=wrap;rounded=0;" vertex="1" parent="1">
          <mxGeometry x="4866" y="1028" width="100" height="100" as="geometry" />
        </mxCell>
        <mxCell id="S4ZxqDm5p7QgWU9oLSgd-314" value="0&lt;div&gt;Domain : [1,2,3,4,5,6,7,8,9]&lt;br&gt;&lt;/div&gt;" style="html=1;shadow=0;fontSize=12;align=center;fontStyle=0;whiteSpace=wrap;rounded=0;" vertex="1" parent="1">
          <mxGeometry x="4656" y="1133" width="100" height="100" as="geometry" />
        </mxCell>
        <mxCell id="S4ZxqDm5p7QgWU9oLSgd-315" value="0&lt;div&gt;Domain : [1,2,3,4,5,6,7,8,9]&lt;br&gt;&lt;/div&gt;" style="html=1;shadow=0;fontSize=12;align=center;fontStyle=0;whiteSpace=wrap;rounded=0;" vertex="1" parent="1">
          <mxGeometry x="4761" y="1133" width="100" height="100" as="geometry" />
        </mxCell>
        <mxCell id="S4ZxqDm5p7QgWU9oLSgd-316" value="5" style="html=1;fillColor=#fff2cc;strokeColor=#d6b656;shadow=0;fontSize=12;align=center;fontStyle=0;whiteSpace=wrap;rounded=0;" vertex="1" parent="1">
          <mxGeometry x="4866" y="1133" width="100" height="100" as="geometry" />
        </mxCell>
        <mxCell id="S4ZxqDm5p7QgWU9oLSgd-317" value="0" style="html=1;shadow=0;fontSize=12;align=center;fontStyle=0;whiteSpace=wrap;rounded=0;" vertex="1" parent="1">
          <mxGeometry x="4656" y="1238" width="100" height="100" as="geometry" />
        </mxCell>
        <mxCell id="S4ZxqDm5p7QgWU9oLSgd-318" value="7" style="html=1;shadow=0;fontSize=12;align=center;fontStyle=0;whiteSpace=wrap;rounded=0;fillColor=#fff2cc;strokeColor=#d6b656;" vertex="1" parent="1">
          <mxGeometry x="4761" y="1238" width="100" height="100" as="geometry" />
        </mxCell>
        <mxCell id="S4ZxqDm5p7QgWU9oLSgd-319" value="9" style="html=1;shadow=0;fontSize=12;align=center;fontStyle=0;whiteSpace=wrap;rounded=0;fillColor=#fff2cc;strokeColor=#d6b656;" vertex="1" parent="1">
          <mxGeometry x="4866" y="1238" width="100" height="100" as="geometry" />
        </mxCell>
        <mxCell id="S4ZxqDm5p7QgWU9oLSgd-320" value="" style="shape=curlyBracket;whiteSpace=wrap;html=1;rounded=1;labelPosition=left;verticalLabelPosition=middle;align=right;verticalAlign=middle;" vertex="1" parent="1">
          <mxGeometry x="3910" y="370" width="20" height="990" as="geometry" />
        </mxCell>
        <mxCell id="S4ZxqDm5p7QgWU9oLSgd-321" style="edgeStyle=orthogonalEdgeStyle;rounded=0;orthogonalLoop=1;jettySize=auto;html=1;exitX=1;exitY=0.25;exitDx=0;exitDy=0;entryX=0.1;entryY=0.5;entryDx=0;entryDy=0;entryPerimeter=0;" edge="1" parent="1" source="S4ZxqDm5p7QgWU9oLSgd-218" target="S4ZxqDm5p7QgWU9oLSgd-320">
          <mxGeometry relative="1" as="geometry" />
        </mxCell>
        <mxCell id="S4ZxqDm5p7QgWU9oLSgd-324" value="5" style="html=1;shadow=0;fontSize=12;align=center;fontStyle=0;whiteSpace=wrap;rounded=0;fillColor=#fff2cc;strokeColor=#d6b656;" vertex="1" parent="1">
          <mxGeometry x="5255" y="395" width="100" height="100" as="geometry" />
        </mxCell>
        <mxCell id="S4ZxqDm5p7QgWU9oLSgd-325" value="3" style="html=1;shadow=0;fontSize=12;align=center;fontStyle=0;whiteSpace=wrap;rounded=0;fillColor=#fff2cc;strokeColor=#d6b656;" vertex="1" parent="1">
          <mxGeometry x="5360" y="395" width="100" height="100" as="geometry" />
        </mxCell>
        <mxCell id="S4ZxqDm5p7QgWU9oLSgd-340" style="edgeStyle=orthogonalEdgeStyle;rounded=0;orthogonalLoop=1;jettySize=auto;html=1;exitX=0.5;exitY=0;exitDx=0;exitDy=0;entryX=0.5;entryY=0;entryDx=0;entryDy=0;" edge="1" parent="1" source="S4ZxqDm5p7QgWU9oLSgd-326" target="S4ZxqDm5p7QgWU9oLSgd-337">
          <mxGeometry relative="1" as="geometry">
            <Array as="points">
              <mxPoint x="5515" y="270" />
              <mxPoint x="6920" y="270" />
            </Array>
          </mxGeometry>
        </mxCell>
        <mxCell id="S4ZxqDm5p7QgWU9oLSgd-326" value="0&lt;div&gt;Domain : [1,2,3,4,5,6,7,8,9]&lt;/div&gt;" style="html=1;shadow=0;fontSize=12;align=center;fontStyle=0;whiteSpace=wrap;rounded=0;" vertex="1" parent="1">
          <mxGeometry x="5465" y="395" width="100" height="100" as="geometry" />
        </mxCell>
        <mxCell id="S4ZxqDm5p7QgWU9oLSgd-327" value="0" style="html=1;fillColor=#CCCCCC;strokeColor=none;shadow=0;fontSize=14;fontColor=#FFFFFF;align=center;fontStyle=1;whiteSpace=wrap;horizontal=0;rounded=0;" vertex="1" parent="1">
          <mxGeometry x="5220" y="395" width="30" height="100" as="geometry" />
        </mxCell>
        <mxCell id="S4ZxqDm5p7QgWU9oLSgd-328" value="0&lt;div&gt;Domain : [1,2,3,4,5,6,7,8,9]&lt;br&gt;&lt;/div&gt;" style="html=1;shadow=0;fontSize=12;align=center;fontStyle=0;whiteSpace=wrap;rounded=0;" vertex="1" parent="1">
          <mxGeometry x="5569" y="395" width="100" height="100" as="geometry" />
        </mxCell>
        <mxCell id="S4ZxqDm5p7QgWU9oLSgd-329" value="7" style="html=1;shadow=0;fontSize=12;align=center;fontStyle=0;whiteSpace=wrap;rounded=0;fillColor=#fff2cc;strokeColor=#d6b656;" vertex="1" parent="1">
          <mxGeometry x="5674" y="395" width="100" height="100" as="geometry" />
        </mxCell>
        <mxCell id="S4ZxqDm5p7QgWU9oLSgd-330" value="0&lt;div&gt;Domain : [1,2,3,4,5,6,7,8,9]&lt;br&gt;&lt;/div&gt;" style="html=1;shadow=0;fontSize=12;align=center;fontStyle=0;whiteSpace=wrap;rounded=0;" vertex="1" parent="1">
          <mxGeometry x="5779" y="395" width="100" height="100" as="geometry" />
        </mxCell>
        <mxCell id="S4ZxqDm5p7QgWU9oLSgd-331" value="0&lt;div&gt;Domain : [1,2,3,4,5,6,7,8,9]&lt;br&gt;&lt;/div&gt;" style="html=1;shadow=0;fontSize=12;align=center;fontStyle=0;whiteSpace=wrap;rounded=0;" vertex="1" parent="1">
          <mxGeometry x="5885" y="395" width="100" height="100" as="geometry" />
        </mxCell>
        <mxCell id="S4ZxqDm5p7QgWU9oLSgd-332" value="0&lt;div&gt;Domain : [1,2,3,4,5,6,7,8,9]&lt;br&gt;&lt;/div&gt;" style="html=1;shadow=0;fontSize=12;align=center;fontStyle=0;whiteSpace=wrap;rounded=0;" vertex="1" parent="1">
          <mxGeometry x="5990" y="395" width="100" height="100" as="geometry" />
        </mxCell>
        <mxCell id="S4ZxqDm5p7QgWU9oLSgd-333" value="0&lt;div&gt;Domain : [1,2,3,4,5,6,7,8,9]&lt;br&gt;&lt;/div&gt;" style="html=1;shadow=0;fontSize=12;align=center;fontStyle=0;whiteSpace=wrap;rounded=0;" vertex="1" parent="1">
          <mxGeometry x="6095" y="395" width="100" height="100" as="geometry" />
        </mxCell>
        <mxCell id="S4ZxqDm5p7QgWU9oLSgd-336" style="edgeStyle=orthogonalEdgeStyle;rounded=0;orthogonalLoop=1;jettySize=auto;html=1;exitX=1;exitY=0.5;exitDx=0;exitDy=0;entryX=0;entryY=0.5;entryDx=0;entryDy=0;" edge="1" parent="1" source="S4ZxqDm5p7QgWU9oLSgd-334" target="S4ZxqDm5p7QgWU9oLSgd-327">
          <mxGeometry relative="1" as="geometry" />
        </mxCell>
        <mxCell id="S4ZxqDm5p7QgWU9oLSgd-334" value="In first iteration we will traverse the row 0 and will look for empty cell" style="text;html=1;align=center;verticalAlign=middle;whiteSpace=wrap;rounded=0;strokeColor=default;" vertex="1" parent="1">
          <mxGeometry x="5020" y="400" width="140" height="90" as="geometry" />
        </mxCell>
        <mxCell id="S4ZxqDm5p7QgWU9oLSgd-343" style="edgeStyle=orthogonalEdgeStyle;rounded=0;orthogonalLoop=1;jettySize=auto;html=1;exitX=0.25;exitY=1;exitDx=0;exitDy=0;entryX=0;entryY=0.5;entryDx=0;entryDy=0;" edge="1" parent="1" source="S4ZxqDm5p7QgWU9oLSgd-337" target="S4ZxqDm5p7QgWU9oLSgd-341">
          <mxGeometry relative="1" as="geometry">
            <Array as="points">
              <mxPoint x="6870" y="460" />
              <mxPoint x="6870" y="533" />
            </Array>
          </mxGeometry>
        </mxCell>
        <mxCell id="S4ZxqDm5p7QgWU9oLSgd-344" style="edgeStyle=orthogonalEdgeStyle;rounded=0;orthogonalLoop=1;jettySize=auto;html=1;exitX=0;exitY=1;exitDx=0;exitDy=0;entryX=0;entryY=0.5;entryDx=0;entryDy=0;" edge="1" parent="1" source="S4ZxqDm5p7QgWU9oLSgd-337" target="S4ZxqDm5p7QgWU9oLSgd-342">
          <mxGeometry relative="1" as="geometry" />
        </mxCell>
        <mxCell id="S4ZxqDm5p7QgWU9oLSgd-375" style="edgeStyle=orthogonalEdgeStyle;rounded=0;orthogonalLoop=1;jettySize=auto;html=1;exitX=0;exitY=1;exitDx=0;exitDy=0;entryX=0;entryY=0.5;entryDx=0;entryDy=0;" edge="1" parent="1" source="S4ZxqDm5p7QgWU9oLSgd-337" target="S4ZxqDm5p7QgWU9oLSgd-374">
          <mxGeometry relative="1" as="geometry" />
        </mxCell>
        <mxCell id="S4ZxqDm5p7QgWU9oLSgd-337" value="we will get this cell (0,2)" style="text;html=1;align=center;verticalAlign=middle;whiteSpace=wrap;rounded=0;strokeColor=default;" vertex="1" parent="1">
          <mxGeometry x="6850" y="395" width="140" height="65" as="geometry" />
        </mxCell>
        <mxCell id="S4ZxqDm5p7QgWU9oLSgd-347" style="edgeStyle=orthogonalEdgeStyle;rounded=0;orthogonalLoop=1;jettySize=auto;html=1;exitX=1;exitY=0.5;exitDx=0;exitDy=0;entryX=0;entryY=0.5;entryDx=0;entryDy=0;" edge="1" parent="1" source="S4ZxqDm5p7QgWU9oLSgd-341" target="S4ZxqDm5p7QgWU9oLSgd-345">
          <mxGeometry relative="1" as="geometry" />
        </mxCell>
        <mxCell id="S4ZxqDm5p7QgWU9oLSgd-341" value="remove the picked number from same row" style="text;html=1;align=center;verticalAlign=middle;whiteSpace=wrap;rounded=0;strokeColor=default;" vertex="1" parent="1">
          <mxGeometry x="6890" y="500" width="140" height="65" as="geometry" />
        </mxCell>
        <mxCell id="S4ZxqDm5p7QgWU9oLSgd-348" style="edgeStyle=orthogonalEdgeStyle;rounded=0;orthogonalLoop=1;jettySize=auto;html=1;exitX=1;exitY=0.5;exitDx=0;exitDy=0;entryX=0;entryY=0.5;entryDx=0;entryDy=0;" edge="1" parent="1" source="S4ZxqDm5p7QgWU9oLSgd-342" target="S4ZxqDm5p7QgWU9oLSgd-346">
          <mxGeometry relative="1" as="geometry" />
        </mxCell>
        <mxCell id="S4ZxqDm5p7QgWU9oLSgd-342" value="remove the picked number from same col" style="text;html=1;align=center;verticalAlign=middle;whiteSpace=wrap;rounded=0;strokeColor=default;" vertex="1" parent="1">
          <mxGeometry x="6890" y="570" width="140" height="65" as="geometry" />
        </mxCell>
        <mxCell id="S4ZxqDm5p7QgWU9oLSgd-362" style="edgeStyle=orthogonalEdgeStyle;rounded=0;orthogonalLoop=1;jettySize=auto;html=1;exitX=1;exitY=0.5;exitDx=0;exitDy=0;" edge="1" parent="1" source="S4ZxqDm5p7QgWU9oLSgd-345" target="S4ZxqDm5p7QgWU9oLSgd-355">
          <mxGeometry relative="1" as="geometry" />
        </mxCell>
        <mxCell id="S4ZxqDm5p7QgWU9oLSgd-345" value="row contains other domains" style="text;html=1;align=center;verticalAlign=middle;whiteSpace=wrap;rounded=0;strokeColor=default;" vertex="1" parent="1">
          <mxGeometry x="7060" y="500" width="140" height="65" as="geometry" />
        </mxCell>
        <mxCell id="S4ZxqDm5p7QgWU9oLSgd-373" style="edgeStyle=orthogonalEdgeStyle;rounded=0;orthogonalLoop=1;jettySize=auto;html=1;exitX=0.5;exitY=1;exitDx=0;exitDy=0;entryX=0.5;entryY=0;entryDx=0;entryDy=0;" edge="1" parent="1" source="S4ZxqDm5p7QgWU9oLSgd-346" target="S4ZxqDm5p7QgWU9oLSgd-366">
          <mxGeometry relative="1" as="geometry" />
        </mxCell>
        <mxCell id="S4ZxqDm5p7QgWU9oLSgd-346" value="col contains other domains" style="text;html=1;align=center;verticalAlign=middle;whiteSpace=wrap;rounded=0;strokeColor=default;" vertex="1" parent="1">
          <mxGeometry x="7060" y="570" width="140" height="65" as="geometry" />
        </mxCell>
        <mxCell id="S4ZxqDm5p7QgWU9oLSgd-352" value="5" style="html=1;shadow=0;fontSize=12;align=center;fontStyle=0;whiteSpace=wrap;rounded=0;fillColor=#fff2cc;strokeColor=#d6b656;" vertex="1" parent="1">
          <mxGeometry x="7275" y="480" width="100" height="100" as="geometry" />
        </mxCell>
        <mxCell id="S4ZxqDm5p7QgWU9oLSgd-353" value="3" style="html=1;shadow=0;fontSize=12;align=center;fontStyle=0;whiteSpace=wrap;rounded=0;fillColor=#fff2cc;strokeColor=#d6b656;" vertex="1" parent="1">
          <mxGeometry x="7380" y="480" width="100" height="100" as="geometry" />
        </mxCell>
        <mxCell id="S4ZxqDm5p7QgWU9oLSgd-354" value="&lt;div&gt;1&lt;/div&gt;&lt;div&gt;Domain : [1,2,3,4,5,6,7,8,9]&lt;/div&gt;" style="html=1;shadow=0;fontSize=12;align=center;fontStyle=0;whiteSpace=wrap;rounded=0;fillColor=#00CC00;strokeColor=#b85450;" vertex="1" parent="1">
          <mxGeometry x="7485" y="480" width="100" height="100" as="geometry" />
        </mxCell>
        <mxCell id="S4ZxqDm5p7QgWU9oLSgd-355" value="0" style="html=1;fillColor=#CCCCCC;strokeColor=none;shadow=0;fontSize=14;fontColor=#FFFFFF;align=center;fontStyle=1;whiteSpace=wrap;horizontal=0;rounded=0;" vertex="1" parent="1">
          <mxGeometry x="7240" y="480" width="30" height="100" as="geometry" />
        </mxCell>
        <mxCell id="S4ZxqDm5p7QgWU9oLSgd-356" value="0&lt;div&gt;Domain : [2,3,4,5,6,7,8,9]&lt;br&gt;&lt;/div&gt;" style="html=1;shadow=0;fontSize=12;align=center;fontStyle=0;whiteSpace=wrap;rounded=0;" vertex="1" parent="1">
          <mxGeometry x="7589" y="480" width="100" height="100" as="geometry" />
        </mxCell>
        <mxCell id="S4ZxqDm5p7QgWU9oLSgd-357" value="7" style="html=1;shadow=0;fontSize=12;align=center;fontStyle=0;whiteSpace=wrap;rounded=0;fillColor=#fff2cc;strokeColor=#d6b656;" vertex="1" parent="1">
          <mxGeometry x="7694" y="480" width="100" height="100" as="geometry" />
        </mxCell>
        <mxCell id="S4ZxqDm5p7QgWU9oLSgd-358" value="0&lt;div&gt;Domain : [2,3,4,5,6,7,8,9]&lt;br&gt;&lt;/div&gt;" style="html=1;shadow=0;fontSize=12;align=center;fontStyle=0;whiteSpace=wrap;rounded=0;" vertex="1" parent="1">
          <mxGeometry x="7799" y="480" width="100" height="100" as="geometry" />
        </mxCell>
        <mxCell id="S4ZxqDm5p7QgWU9oLSgd-359" value="0&lt;div&gt;Domain : [2,3,4,5,6,7,8,9]&lt;br&gt;&lt;/div&gt;" style="html=1;shadow=0;fontSize=12;align=center;fontStyle=0;whiteSpace=wrap;rounded=0;" vertex="1" parent="1">
          <mxGeometry x="7905" y="480" width="100" height="100" as="geometry" />
        </mxCell>
        <mxCell id="S4ZxqDm5p7QgWU9oLSgd-360" value="0&lt;div&gt;Domain : [2,3,4,5,6,7,8,9]&lt;br&gt;&lt;/div&gt;" style="html=1;shadow=0;fontSize=12;align=center;fontStyle=0;whiteSpace=wrap;rounded=0;" vertex="1" parent="1">
          <mxGeometry x="8010" y="480" width="100" height="100" as="geometry" />
        </mxCell>
        <mxCell id="S4ZxqDm5p7QgWU9oLSgd-361" value="0&lt;div&gt;Domain : [2,3,4,5,6,7,8,9]&lt;br&gt;&lt;/div&gt;" style="html=1;shadow=0;fontSize=12;align=center;fontStyle=0;whiteSpace=wrap;rounded=0;" vertex="1" parent="1">
          <mxGeometry x="8115" y="480" width="100" height="100" as="geometry" />
        </mxCell>
        <mxCell id="S4ZxqDm5p7QgWU9oLSgd-363" value="&lt;div&gt;1&lt;/div&gt;&lt;div&gt;Domain : [2,3,4,5,6,7,8,9]&lt;/div&gt;" style="html=1;shadow=0;fontSize=12;align=center;fontStyle=0;whiteSpace=wrap;rounded=0;fillColor=#00CC00;" vertex="1" parent="1">
          <mxGeometry x="7079.5" y="775" width="100" height="100" as="geometry" />
        </mxCell>
        <mxCell id="S4ZxqDm5p7QgWU9oLSgd-364" value="0&lt;div&gt;Domain : [2,3,4,5,6,7,8,9]&lt;br&gt;&lt;/div&gt;" style="html=1;shadow=0;fontSize=12;align=center;fontStyle=0;whiteSpace=wrap;rounded=0;" vertex="1" parent="1">
          <mxGeometry x="7079.5" y="880" width="100" height="100" as="geometry" />
        </mxCell>
        <mxCell id="S4ZxqDm5p7QgWU9oLSgd-365" value="8" style="html=1;shadow=0;fontSize=12;align=center;fontStyle=0;whiteSpace=wrap;rounded=0;fillColor=#fff2cc;strokeColor=#d6b656;" vertex="1" parent="1">
          <mxGeometry x="7079.5" y="985" width="100" height="100" as="geometry" />
        </mxCell>
        <mxCell id="S4ZxqDm5p7QgWU9oLSgd-366" value="1" style="html=1;fillColor=#CCCCCC;strokeColor=none;shadow=0;fontSize=14;fontColor=#FFFFFF;align=center;fontStyle=1;whiteSpace=wrap;rounded=0;" vertex="1" parent="1">
          <mxGeometry x="7079.5" y="740" width="100" height="30" as="geometry" />
        </mxCell>
        <mxCell id="S4ZxqDm5p7QgWU9oLSgd-367" value="0&lt;div&gt;Domain : [2,3,4,5,6,7,8,9]&lt;br&gt;&lt;/div&gt;" style="html=1;shadow=0;fontSize=12;align=center;fontStyle=0;whiteSpace=wrap;rounded=0;" vertex="1" parent="1">
          <mxGeometry x="7080.5" y="1092" width="100" height="100" as="geometry" />
        </mxCell>
        <mxCell id="S4ZxqDm5p7QgWU9oLSgd-368" value="0&lt;div&gt;Domain : [2,3,4,5,6,7,8,9]&lt;br&gt;&lt;/div&gt;" style="html=1;shadow=0;fontSize=12;align=center;fontStyle=0;whiteSpace=wrap;rounded=0;" vertex="1" parent="1">
          <mxGeometry x="7080.5" y="1197" width="100" height="98" as="geometry" />
        </mxCell>
        <mxCell id="S4ZxqDm5p7QgWU9oLSgd-369" value="0&lt;div&gt;Domain : [2,3,4,5,6,7,8,9]&lt;br&gt;&lt;/div&gt;" style="html=1;shadow=0;fontSize=12;align=center;fontStyle=0;whiteSpace=wrap;rounded=0;" vertex="1" parent="1">
          <mxGeometry x="7080.5" y="1302" width="100" height="100" as="geometry" />
        </mxCell>
        <mxCell id="S4ZxqDm5p7QgWU9oLSgd-370" value="0&lt;div&gt;Domain : [2,3,4,5,6,7,8,9]&lt;br&gt;&lt;/div&gt;" style="html=1;shadow=0;fontSize=12;align=center;fontStyle=0;whiteSpace=wrap;rounded=0;" vertex="1" parent="1">
          <mxGeometry x="7080.5" y="1408" width="100" height="100" as="geometry" />
        </mxCell>
        <mxCell id="S4ZxqDm5p7QgWU9oLSgd-371" value="0&lt;div&gt;Domain : [2,3,4,5,6,7,8,9]&lt;br&gt;&lt;/div&gt;" style="html=1;shadow=0;fontSize=12;align=center;fontStyle=0;whiteSpace=wrap;rounded=0;" vertex="1" parent="1">
          <mxGeometry x="7080.5" y="1513" width="100" height="100" as="geometry" />
        </mxCell>
        <mxCell id="S4ZxqDm5p7QgWU9oLSgd-372" value="0&lt;div&gt;Domain : [2,3,4,5,6,7,8,9]&lt;br&gt;&lt;/div&gt;" style="html=1;shadow=0;fontSize=12;align=center;fontStyle=0;whiteSpace=wrap;rounded=0;" vertex="1" parent="1">
          <mxGeometry x="7080.5" y="1618" width="100" height="100" as="geometry" />
        </mxCell>
        <mxCell id="S4ZxqDm5p7QgWU9oLSgd-393" style="edgeStyle=orthogonalEdgeStyle;rounded=0;orthogonalLoop=1;jettySize=auto;html=1;exitX=1;exitY=0;exitDx=0;exitDy=0;entryX=0.5;entryY=0;entryDx=0;entryDy=0;" edge="1" parent="1" source="S4ZxqDm5p7QgWU9oLSgd-374" target="S4ZxqDm5p7QgWU9oLSgd-386">
          <mxGeometry relative="1" as="geometry">
            <Array as="points">
              <mxPoint x="7030" y="680" />
              <mxPoint x="7325" y="680" />
            </Array>
          </mxGeometry>
        </mxCell>
        <mxCell id="S4ZxqDm5p7QgWU9oLSgd-394" style="edgeStyle=orthogonalEdgeStyle;rounded=0;orthogonalLoop=1;jettySize=auto;html=1;exitX=1;exitY=0.25;exitDx=0;exitDy=0;entryX=0;entryY=0.5;entryDx=0;entryDy=0;" edge="1" parent="1" source="S4ZxqDm5p7QgWU9oLSgd-374" target="S4ZxqDm5p7QgWU9oLSgd-389">
          <mxGeometry relative="1" as="geometry">
            <Array as="points">
              <mxPoint x="7030" y="675" />
            </Array>
          </mxGeometry>
        </mxCell>
        <mxCell id="S4ZxqDm5p7QgWU9oLSgd-374" value="remove the picked number from same cell" style="text;html=1;align=center;verticalAlign=middle;whiteSpace=wrap;rounded=0;strokeColor=default;" vertex="1" parent="1">
          <mxGeometry x="6890" y="647" width="140" height="65" as="geometry" />
        </mxCell>
        <mxCell id="S4ZxqDm5p7QgWU9oLSgd-377" value="5" style="html=1;shadow=0;fontSize=12;align=center;fontStyle=0;whiteSpace=wrap;rounded=0;fillColor=#fff2cc;strokeColor=#d6b656;" vertex="1" parent="1">
          <mxGeometry x="7345" y="695" width="100" height="100" as="geometry" />
        </mxCell>
        <mxCell id="S4ZxqDm5p7QgWU9oLSgd-378" value="3" style="html=1;shadow=0;fontSize=12;align=center;fontStyle=0;whiteSpace=wrap;rounded=0;fillColor=#fff2cc;strokeColor=#d6b656;" vertex="1" parent="1">
          <mxGeometry x="7450" y="695" width="100" height="100" as="geometry" />
        </mxCell>
        <mxCell id="S4ZxqDm5p7QgWU9oLSgd-379" value="&lt;div&gt;1&lt;/div&gt;&lt;div&gt;Domain : [1,2,3,4,5,6,7,8,9]&lt;/div&gt;" style="html=1;shadow=0;fontSize=12;align=center;fontStyle=0;whiteSpace=wrap;rounded=0;fillColor=#00CC00;" vertex="1" parent="1">
          <mxGeometry x="7555" y="695" width="100" height="100" as="geometry" />
        </mxCell>
        <mxCell id="S4ZxqDm5p7QgWU9oLSgd-380" value="6" style="html=1;shadow=0;fontSize=12;align=center;fontStyle=0;whiteSpace=wrap;rounded=0;fillColor=#fff2cc;strokeColor=#d6b656;" vertex="1" parent="1">
          <mxGeometry x="7345" y="800" width="100" height="100" as="geometry" />
        </mxCell>
        <mxCell id="S4ZxqDm5p7QgWU9oLSgd-381" value="0&lt;div&gt;Domain : [2,3,4,5,6,7,8,9]&lt;br&gt;&lt;/div&gt;" style="html=1;shadow=0;fontSize=12;align=center;fontStyle=0;whiteSpace=wrap;rounded=0;" vertex="1" parent="1">
          <mxGeometry x="7450" y="800" width="100" height="100" as="geometry" />
        </mxCell>
        <mxCell id="S4ZxqDm5p7QgWU9oLSgd-382" value="0&lt;div&gt;Domain : [2,3,4,5,6,7,8,9]&lt;br&gt;&lt;/div&gt;" style="html=1;shadow=0;fontSize=12;align=center;fontStyle=0;whiteSpace=wrap;rounded=0;" vertex="1" parent="1">
          <mxGeometry x="7555" y="800" width="100" height="100" as="geometry" />
        </mxCell>
        <mxCell id="S4ZxqDm5p7QgWU9oLSgd-383" value="0&lt;div&gt;Domain : [2,3,4,5,6,7,8,9]&lt;/div&gt;" style="html=1;shadow=0;fontSize=12;align=center;fontStyle=0;whiteSpace=wrap;rounded=0;" vertex="1" parent="1">
          <mxGeometry x="7345" y="905" width="100" height="100" as="geometry" />
        </mxCell>
        <mxCell id="S4ZxqDm5p7QgWU9oLSgd-384" value="9" style="html=1;shadow=0;fontSize=12;align=center;fontStyle=0;whiteSpace=wrap;rounded=0;fillColor=#fff2cc;strokeColor=#d6b656;" vertex="1" parent="1">
          <mxGeometry x="7450" y="905" width="100" height="100" as="geometry" />
        </mxCell>
        <mxCell id="S4ZxqDm5p7QgWU9oLSgd-385" value="8" style="html=1;shadow=0;fontSize=12;align=center;fontStyle=0;whiteSpace=wrap;rounded=0;fillColor=#fff2cc;strokeColor=#d6b656;" vertex="1" parent="1">
          <mxGeometry x="7555" y="905" width="100" height="100" as="geometry" />
        </mxCell>
        <mxCell id="S4ZxqDm5p7QgWU9oLSgd-386" value="0" style="html=1;fillColor=#CCCCCC;strokeColor=none;shadow=0;fontSize=14;fontColor=#FFFFFF;align=center;fontStyle=1;whiteSpace=wrap;horizontal=0;rounded=0;" vertex="1" parent="1">
          <mxGeometry x="7310" y="695" width="30" height="100" as="geometry" />
        </mxCell>
        <mxCell id="S4ZxqDm5p7QgWU9oLSgd-387" value="1" style="html=1;fillColor=#CCCCCC;strokeColor=none;shadow=0;fontSize=14;fontColor=#FFFFFF;align=center;fontStyle=1;whiteSpace=wrap;horizontal=0;rounded=0;" vertex="1" parent="1">
          <mxGeometry x="7310" y="800" width="30" height="100" as="geometry" />
        </mxCell>
        <mxCell id="S4ZxqDm5p7QgWU9oLSgd-388" value="2" style="html=1;fillColor=#CCCCCC;strokeColor=none;shadow=0;fontSize=14;fontColor=#FFFFFF;align=center;fontStyle=1;whiteSpace=wrap;horizontal=0;rounded=0;" vertex="1" parent="1">
          <mxGeometry x="7310" y="905" width="30" height="100" as="geometry" />
        </mxCell>
        <mxCell id="S4ZxqDm5p7QgWU9oLSgd-389" value="0" style="html=1;fillColor=#CCCCCC;strokeColor=none;shadow=0;fontSize=14;fontColor=#FFFFFF;align=center;fontStyle=1;whiteSpace=wrap;rounded=0;" vertex="1" parent="1">
          <mxGeometry x="7345" y="660" width="100" height="30" as="geometry" />
        </mxCell>
        <mxCell id="S4ZxqDm5p7QgWU9oLSgd-390" value="1" style="html=1;fillColor=#CCCCCC;strokeColor=none;shadow=0;fontSize=14;fontColor=#FFFFFF;align=center;fontStyle=1;whiteSpace=wrap;rounded=0;" vertex="1" parent="1">
          <mxGeometry x="7450" y="660" width="100" height="30" as="geometry" />
        </mxCell>
        <mxCell id="S4ZxqDm5p7QgWU9oLSgd-391" value="1" style="html=1;fillColor=#CCCCCC;strokeColor=none;shadow=0;fontSize=14;fontColor=#FFFFFF;align=center;fontStyle=1;whiteSpace=wrap;rounded=0;" vertex="1" parent="1">
          <mxGeometry x="7555" y="660" width="100" height="30" as="geometry" />
        </mxCell>
        <mxCell id="S4ZxqDm5p7QgWU9oLSgd-395" style="edgeStyle=orthogonalEdgeStyle;rounded=0;orthogonalLoop=1;jettySize=auto;html=1;exitX=0.25;exitY=1;exitDx=0;exitDy=0;entryX=0;entryY=0.5;entryDx=0;entryDy=0;" edge="1" parent="1" source="S4ZxqDm5p7QgWU9oLSgd-398" target="S4ZxqDm5p7QgWU9oLSgd-400">
          <mxGeometry relative="1" as="geometry">
            <Array as="points">
              <mxPoint x="8470" y="568" />
              <mxPoint x="8470" y="641" />
            </Array>
          </mxGeometry>
        </mxCell>
        <mxCell id="S4ZxqDm5p7QgWU9oLSgd-396" style="edgeStyle=orthogonalEdgeStyle;rounded=0;orthogonalLoop=1;jettySize=auto;html=1;exitX=0;exitY=1;exitDx=0;exitDy=0;entryX=0;entryY=0.5;entryDx=0;entryDy=0;" edge="1" parent="1" source="S4ZxqDm5p7QgWU9oLSgd-398" target="S4ZxqDm5p7QgWU9oLSgd-402">
          <mxGeometry relative="1" as="geometry" />
        </mxCell>
        <mxCell id="S4ZxqDm5p7QgWU9oLSgd-397" style="edgeStyle=orthogonalEdgeStyle;rounded=0;orthogonalLoop=1;jettySize=auto;html=1;exitX=0;exitY=1;exitDx=0;exitDy=0;entryX=0;entryY=0.5;entryDx=0;entryDy=0;" edge="1" parent="1" source="S4ZxqDm5p7QgWU9oLSgd-398" target="S4ZxqDm5p7QgWU9oLSgd-407">
          <mxGeometry relative="1" as="geometry" />
        </mxCell>
        <mxCell id="S4ZxqDm5p7QgWU9oLSgd-398" value="we will get this cell (0,3)" style="text;html=1;align=center;verticalAlign=middle;whiteSpace=wrap;rounded=0;strokeColor=default;" vertex="1" parent="1">
          <mxGeometry x="8450" y="503" width="140" height="65" as="geometry" />
        </mxCell>
        <mxCell id="S4ZxqDm5p7QgWU9oLSgd-399" style="edgeStyle=orthogonalEdgeStyle;rounded=0;orthogonalLoop=1;jettySize=auto;html=1;exitX=1;exitY=0.5;exitDx=0;exitDy=0;entryX=0;entryY=0.5;entryDx=0;entryDy=0;" edge="1" parent="1" source="S4ZxqDm5p7QgWU9oLSgd-400" target="S4ZxqDm5p7QgWU9oLSgd-404">
          <mxGeometry relative="1" as="geometry" />
        </mxCell>
        <mxCell id="S4ZxqDm5p7QgWU9oLSgd-400" value="remove the picked number from same row" style="text;html=1;align=center;verticalAlign=middle;whiteSpace=wrap;rounded=0;strokeColor=default;" vertex="1" parent="1">
          <mxGeometry x="8490" y="608" width="140" height="65" as="geometry" />
        </mxCell>
        <mxCell id="S4ZxqDm5p7QgWU9oLSgd-401" style="edgeStyle=orthogonalEdgeStyle;rounded=0;orthogonalLoop=1;jettySize=auto;html=1;exitX=1;exitY=0.5;exitDx=0;exitDy=0;entryX=0;entryY=0.5;entryDx=0;entryDy=0;" edge="1" parent="1" source="S4ZxqDm5p7QgWU9oLSgd-402" target="S4ZxqDm5p7QgWU9oLSgd-406">
          <mxGeometry relative="1" as="geometry" />
        </mxCell>
        <mxCell id="S4ZxqDm5p7QgWU9oLSgd-402" value="remove the picked number from same col" style="text;html=1;align=center;verticalAlign=middle;whiteSpace=wrap;rounded=0;strokeColor=default;" vertex="1" parent="1">
          <mxGeometry x="8490" y="678" width="140" height="65" as="geometry" />
        </mxCell>
        <mxCell id="S4ZxqDm5p7QgWU9oLSgd-403" style="edgeStyle=orthogonalEdgeStyle;rounded=0;orthogonalLoop=1;jettySize=auto;html=1;exitX=1;exitY=0.5;exitDx=0;exitDy=0;" edge="1" parent="1" source="S4ZxqDm5p7QgWU9oLSgd-404">
          <mxGeometry relative="1" as="geometry">
            <mxPoint x="8840" y="638" as="targetPoint" />
          </mxGeometry>
        </mxCell>
        <mxCell id="S4ZxqDm5p7QgWU9oLSgd-404" value="row contains other domains" style="text;html=1;align=center;verticalAlign=middle;whiteSpace=wrap;rounded=0;strokeColor=default;" vertex="1" parent="1">
          <mxGeometry x="8660" y="608" width="140" height="65" as="geometry" />
        </mxCell>
        <mxCell id="S4ZxqDm5p7QgWU9oLSgd-493" style="edgeStyle=orthogonalEdgeStyle;rounded=0;orthogonalLoop=1;jettySize=auto;html=1;exitX=0.5;exitY=1;exitDx=0;exitDy=0;entryX=0.5;entryY=0;entryDx=0;entryDy=0;" edge="1" parent="1" source="S4ZxqDm5p7QgWU9oLSgd-406">
          <mxGeometry relative="1" as="geometry">
            <mxPoint x="8729.5" y="875" as="targetPoint" />
          </mxGeometry>
        </mxCell>
        <mxCell id="S4ZxqDm5p7QgWU9oLSgd-406" value="col contains other domains" style="text;html=1;align=center;verticalAlign=middle;whiteSpace=wrap;rounded=0;strokeColor=default;" vertex="1" parent="1">
          <mxGeometry x="8660" y="678" width="140" height="65" as="geometry" />
        </mxCell>
        <mxCell id="S4ZxqDm5p7QgWU9oLSgd-528" style="edgeStyle=orthogonalEdgeStyle;rounded=0;orthogonalLoop=1;jettySize=auto;html=1;exitX=1;exitY=0.5;exitDx=0;exitDy=0;entryX=0;entryY=0.75;entryDx=0;entryDy=0;" edge="1" parent="1" source="S4ZxqDm5p7QgWU9oLSgd-407" target="S4ZxqDm5p7QgWU9oLSgd-525">
          <mxGeometry relative="1" as="geometry" />
        </mxCell>
        <mxCell id="S4ZxqDm5p7QgWU9oLSgd-407" value="remove the picked number from same cell" style="text;html=1;align=center;verticalAlign=middle;whiteSpace=wrap;rounded=0;strokeColor=default;" vertex="1" parent="1">
          <mxGeometry x="8490" y="755" width="140" height="65" as="geometry" />
        </mxCell>
        <mxCell id="S4ZxqDm5p7QgWU9oLSgd-408" value="5" style="html=1;shadow=0;fontSize=12;align=center;fontStyle=0;whiteSpace=wrap;rounded=0;fillColor=#fff2cc;strokeColor=#d6b656;" vertex="1" parent="1">
          <mxGeometry x="7275" y="360" width="100" height="100" as="geometry" />
        </mxCell>
        <mxCell id="S4ZxqDm5p7QgWU9oLSgd-409" value="3" style="html=1;shadow=0;fontSize=12;align=center;fontStyle=0;whiteSpace=wrap;rounded=0;fillColor=#fff2cc;strokeColor=#d6b656;" vertex="1" parent="1">
          <mxGeometry x="7380" y="360" width="100" height="100" as="geometry" />
        </mxCell>
        <mxCell id="S4ZxqDm5p7QgWU9oLSgd-410" value="0&lt;div&gt;Domain : [1,2,3,4,5,6,7,8,9]&lt;/div&gt;" style="html=1;shadow=0;fontSize=12;align=center;fontStyle=0;whiteSpace=wrap;rounded=0;" vertex="1" parent="1">
          <mxGeometry x="7485" y="360" width="100" height="100" as="geometry" />
        </mxCell>
        <mxCell id="S4ZxqDm5p7QgWU9oLSgd-411" value="0" style="html=1;fillColor=#CCCCCC;strokeColor=none;shadow=0;fontSize=14;fontColor=#FFFFFF;align=center;fontStyle=1;whiteSpace=wrap;horizontal=0;rounded=0;" vertex="1" parent="1">
          <mxGeometry x="7240" y="360" width="30" height="100" as="geometry" />
        </mxCell>
        <mxCell id="S4ZxqDm5p7QgWU9oLSgd-420" style="edgeStyle=orthogonalEdgeStyle;rounded=0;orthogonalLoop=1;jettySize=auto;html=1;exitX=0.5;exitY=0;exitDx=0;exitDy=0;entryX=0.5;entryY=0;entryDx=0;entryDy=0;" edge="1" parent="1" source="S4ZxqDm5p7QgWU9oLSgd-412" target="S4ZxqDm5p7QgWU9oLSgd-398">
          <mxGeometry relative="1" as="geometry" />
        </mxCell>
        <mxCell id="S4ZxqDm5p7QgWU9oLSgd-412" value="0&lt;div&gt;Domain : [1,2,3,4,5,6,7,8,9]&lt;br&gt;&lt;/div&gt;" style="html=1;shadow=0;fontSize=12;align=center;fontStyle=0;whiteSpace=wrap;rounded=0;" vertex="1" parent="1">
          <mxGeometry x="7589" y="360" width="100" height="100" as="geometry" />
        </mxCell>
        <mxCell id="S4ZxqDm5p7QgWU9oLSgd-413" value="7" style="html=1;shadow=0;fontSize=12;align=center;fontStyle=0;whiteSpace=wrap;rounded=0;fillColor=#fff2cc;strokeColor=#d6b656;" vertex="1" parent="1">
          <mxGeometry x="7694" y="360" width="100" height="100" as="geometry" />
        </mxCell>
        <mxCell id="S4ZxqDm5p7QgWU9oLSgd-414" value="0&lt;div&gt;Domain : [1,2,3,4,5,6,7,8,9]&lt;br&gt;&lt;/div&gt;" style="html=1;shadow=0;fontSize=12;align=center;fontStyle=0;whiteSpace=wrap;rounded=0;" vertex="1" parent="1">
          <mxGeometry x="7799" y="360" width="100" height="100" as="geometry" />
        </mxCell>
        <mxCell id="S4ZxqDm5p7QgWU9oLSgd-415" value="0&lt;div&gt;Domain : [1,2,3,4,5,6,7,8,9]&lt;br&gt;&lt;/div&gt;" style="html=1;shadow=0;fontSize=12;align=center;fontStyle=0;whiteSpace=wrap;rounded=0;" vertex="1" parent="1">
          <mxGeometry x="7905" y="360" width="100" height="100" as="geometry" />
        </mxCell>
        <mxCell id="S4ZxqDm5p7QgWU9oLSgd-416" value="0&lt;div&gt;Domain : [1,2,3,4,5,6,7,8,9]&lt;br&gt;&lt;/div&gt;" style="html=1;shadow=0;fontSize=12;align=center;fontStyle=0;whiteSpace=wrap;rounded=0;" vertex="1" parent="1">
          <mxGeometry x="8010" y="360" width="100" height="100" as="geometry" />
        </mxCell>
        <mxCell id="S4ZxqDm5p7QgWU9oLSgd-417" value="0&lt;div&gt;Domain : [1,2,3,4,5,6,7,8,9]&lt;br&gt;&lt;/div&gt;" style="html=1;shadow=0;fontSize=12;align=center;fontStyle=0;whiteSpace=wrap;rounded=0;" vertex="1" parent="1">
          <mxGeometry x="8115" y="360" width="100" height="100" as="geometry" />
        </mxCell>
        <mxCell id="S4ZxqDm5p7QgWU9oLSgd-419" style="edgeStyle=orthogonalEdgeStyle;rounded=0;orthogonalLoop=1;jettySize=auto;html=1;exitX=1;exitY=0.5;exitDx=0;exitDy=0;entryX=0;entryY=0.5;entryDx=0;entryDy=0;" edge="1" parent="1" source="S4ZxqDm5p7QgWU9oLSgd-418" target="S4ZxqDm5p7QgWU9oLSgd-411">
          <mxGeometry relative="1" as="geometry" />
        </mxCell>
        <mxCell id="S4ZxqDm5p7QgWU9oLSgd-418" value="copy of domain" style="text;html=1;align=center;verticalAlign=middle;whiteSpace=wrap;rounded=0;strokeColor=default;" vertex="1" parent="1">
          <mxGeometry x="7059.5" y="385" width="140" height="65" as="geometry" />
        </mxCell>
        <mxCell id="S4ZxqDm5p7QgWU9oLSgd-421" value="5" style="html=1;shadow=0;fontSize=12;align=center;fontStyle=0;whiteSpace=wrap;rounded=0;fillColor=#fff2cc;strokeColor=#d6b656;" vertex="1" parent="1">
          <mxGeometry x="8875" y="580" width="100" height="100" as="geometry" />
        </mxCell>
        <mxCell id="S4ZxqDm5p7QgWU9oLSgd-422" value="3" style="html=1;shadow=0;fontSize=12;align=center;fontStyle=0;whiteSpace=wrap;rounded=0;fillColor=#fff2cc;strokeColor=#d6b656;" vertex="1" parent="1">
          <mxGeometry x="8980" y="580" width="100" height="100" as="geometry" />
        </mxCell>
        <mxCell id="S4ZxqDm5p7QgWU9oLSgd-423" value="&lt;div&gt;1&lt;/div&gt;&lt;div&gt;Domain : [2,3,4,5,6,7,8,9]&lt;/div&gt;" style="html=1;shadow=0;fontSize=12;align=center;fontStyle=0;whiteSpace=wrap;rounded=0;fillColor=#00CC00;" vertex="1" parent="1">
          <mxGeometry x="9085" y="580" width="100" height="100" as="geometry" />
        </mxCell>
        <mxCell id="S4ZxqDm5p7QgWU9oLSgd-424" value="0" style="html=1;fillColor=#CCCCCC;strokeColor=none;shadow=0;fontSize=14;fontColor=#FFFFFF;align=center;fontStyle=1;whiteSpace=wrap;horizontal=0;rounded=0;" vertex="1" parent="1">
          <mxGeometry x="8840" y="580" width="30" height="100" as="geometry" />
        </mxCell>
        <mxCell id="S4ZxqDm5p7QgWU9oLSgd-425" value="0&lt;div&gt;Domain : [1,2,3,4,5,6,7,8,9]&lt;br&gt;&lt;/div&gt;" style="html=1;shadow=0;fontSize=12;align=center;fontStyle=0;whiteSpace=wrap;rounded=0;fillColor=#00CC00;" vertex="1" parent="1">
          <mxGeometry x="9189" y="580" width="100" height="100" as="geometry" />
        </mxCell>
        <mxCell id="S4ZxqDm5p7QgWU9oLSgd-426" value="7" style="html=1;shadow=0;fontSize=12;align=center;fontStyle=0;whiteSpace=wrap;rounded=0;fillColor=#fff2cc;strokeColor=#d6b656;" vertex="1" parent="1">
          <mxGeometry x="9294" y="580" width="100" height="100" as="geometry" />
        </mxCell>
        <mxCell id="S4ZxqDm5p7QgWU9oLSgd-427" value="0&lt;div&gt;Domain : [2,3,4,5,6,7,8,9]&lt;br&gt;&lt;/div&gt;" style="html=1;shadow=0;fontSize=12;align=center;fontStyle=0;whiteSpace=wrap;rounded=0;" vertex="1" parent="1">
          <mxGeometry x="9399" y="580" width="100" height="100" as="geometry" />
        </mxCell>
        <mxCell id="S4ZxqDm5p7QgWU9oLSgd-428" value="0&lt;div&gt;Domain : [2,3,4,5,6,7,8,9]&lt;br&gt;&lt;/div&gt;" style="html=1;shadow=0;fontSize=12;align=center;fontStyle=0;whiteSpace=wrap;rounded=0;" vertex="1" parent="1">
          <mxGeometry x="9505" y="580" width="100" height="100" as="geometry" />
        </mxCell>
        <mxCell id="S4ZxqDm5p7QgWU9oLSgd-429" value="0&lt;div&gt;Domain : [2,3,4,5,6,7,8,9]&lt;br&gt;&lt;/div&gt;" style="html=1;shadow=0;fontSize=12;align=center;fontStyle=0;whiteSpace=wrap;rounded=0;" vertex="1" parent="1">
          <mxGeometry x="9610" y="580" width="100" height="100" as="geometry" />
        </mxCell>
        <mxCell id="S4ZxqDm5p7QgWU9oLSgd-430" value="0&lt;div&gt;Domain : [2,3,4,5,6,7,8,9]&lt;br&gt;&lt;/div&gt;" style="html=1;shadow=0;fontSize=12;align=center;fontStyle=0;whiteSpace=wrap;rounded=0;" vertex="1" parent="1">
          <mxGeometry x="9715" y="580" width="100" height="100" as="geometry" />
        </mxCell>
        <mxCell id="S4ZxqDm5p7QgWU9oLSgd-441" value="0&lt;div&gt;Domain : [1,2,3,4,5,6,7,8,9]&lt;/div&gt;" style="html=1;shadow=0;fontSize=12;align=center;fontStyle=0;whiteSpace=wrap;rounded=0;" vertex="1" parent="1">
          <mxGeometry x="6960" y="775" width="100" height="100" as="geometry" />
        </mxCell>
        <mxCell id="S4ZxqDm5p7QgWU9oLSgd-442" value="0&lt;div&gt;Domain : [1,2,3,4,5,6,7,8,9]&lt;br&gt;&lt;/div&gt;" style="html=1;shadow=0;fontSize=12;align=center;fontStyle=0;whiteSpace=wrap;rounded=0;" vertex="1" parent="1">
          <mxGeometry x="6960" y="880" width="100" height="100" as="geometry" />
        </mxCell>
        <mxCell id="S4ZxqDm5p7QgWU9oLSgd-443" value="8" style="html=1;shadow=0;fontSize=12;align=center;fontStyle=0;whiteSpace=wrap;rounded=0;fillColor=#fff2cc;strokeColor=#d6b656;" vertex="1" parent="1">
          <mxGeometry x="6960" y="985" width="100" height="100" as="geometry" />
        </mxCell>
        <mxCell id="S4ZxqDm5p7QgWU9oLSgd-444" value="1" style="html=1;fillColor=#CCCCCC;strokeColor=none;shadow=0;fontSize=14;fontColor=#FFFFFF;align=center;fontStyle=1;whiteSpace=wrap;rounded=0;" vertex="1" parent="1">
          <mxGeometry x="6960" y="740" width="100" height="30" as="geometry" />
        </mxCell>
        <mxCell id="S4ZxqDm5p7QgWU9oLSgd-445" value="0&lt;div&gt;Domain : [1,2,3,4,5,6,7,8,9]&lt;br&gt;&lt;/div&gt;" style="html=1;shadow=0;fontSize=12;align=center;fontStyle=0;whiteSpace=wrap;rounded=0;" vertex="1" parent="1">
          <mxGeometry x="6961" y="1092" width="100" height="100" as="geometry" />
        </mxCell>
        <mxCell id="S4ZxqDm5p7QgWU9oLSgd-446" value="0&lt;div&gt;Domain : [1,2,3,4,5,6,7,8,9]&lt;br&gt;&lt;/div&gt;" style="html=1;shadow=0;fontSize=12;align=center;fontStyle=0;whiteSpace=wrap;rounded=0;" vertex="1" parent="1">
          <mxGeometry x="6961" y="1197" width="100" height="100" as="geometry" />
        </mxCell>
        <mxCell id="S4ZxqDm5p7QgWU9oLSgd-447" value="0&lt;div&gt;Domain : [1,2,3,4,5,6,7,8,9]&lt;br&gt;&lt;/div&gt;" style="html=1;shadow=0;fontSize=12;align=center;fontStyle=0;whiteSpace=wrap;rounded=0;" vertex="1" parent="1">
          <mxGeometry x="6961" y="1302" width="100" height="100" as="geometry" />
        </mxCell>
        <mxCell id="S4ZxqDm5p7QgWU9oLSgd-448" value="0&lt;div&gt;Domain : [1,2,3,4,5,6,7,8,9]&lt;br&gt;&lt;/div&gt;" style="html=1;shadow=0;fontSize=12;align=center;fontStyle=0;whiteSpace=wrap;rounded=0;" vertex="1" parent="1">
          <mxGeometry x="6961" y="1408" width="100" height="100" as="geometry" />
        </mxCell>
        <mxCell id="S4ZxqDm5p7QgWU9oLSgd-449" value="0&lt;div&gt;Domain : [1,2,3,4,5,6,7,8,9]&lt;br&gt;&lt;/div&gt;" style="html=1;shadow=0;fontSize=12;align=center;fontStyle=0;whiteSpace=wrap;rounded=0;" vertex="1" parent="1">
          <mxGeometry x="6961" y="1513" width="100" height="100" as="geometry" />
        </mxCell>
        <mxCell id="S4ZxqDm5p7QgWU9oLSgd-450" value="0&lt;div&gt;Domain : [1,2,3,4,5,6,7,8,9]&lt;br&gt;&lt;/div&gt;" style="html=1;shadow=0;fontSize=12;align=center;fontStyle=0;whiteSpace=wrap;rounded=0;" vertex="1" parent="1">
          <mxGeometry x="6961" y="1618" width="100" height="100" as="geometry" />
        </mxCell>
        <mxCell id="S4ZxqDm5p7QgWU9oLSgd-451" value="Original domain" style="text;html=1;align=center;verticalAlign=middle;whiteSpace=wrap;rounded=0;" vertex="1" parent="1">
          <mxGeometry x="6980" y="1739" width="60" height="30" as="geometry" />
        </mxCell>
        <mxCell id="S4ZxqDm5p7QgWU9oLSgd-452" value="update domain" style="text;html=1;align=center;verticalAlign=middle;whiteSpace=wrap;rounded=0;" vertex="1" parent="1">
          <mxGeometry x="7099.5" y="1739" width="60" height="30" as="geometry" />
        </mxCell>
        <mxCell id="S4ZxqDm5p7QgWU9oLSgd-453" value="5" style="html=1;shadow=0;fontSize=12;align=center;fontStyle=0;whiteSpace=wrap;rounded=0;fillColor=#fff2cc;strokeColor=#d6b656;" vertex="1" parent="1">
          <mxGeometry x="7345" y="1075" width="100" height="100" as="geometry" />
        </mxCell>
        <mxCell id="S4ZxqDm5p7QgWU9oLSgd-454" value="3" style="html=1;shadow=0;fontSize=12;align=center;fontStyle=0;whiteSpace=wrap;rounded=0;fillColor=#fff2cc;strokeColor=#d6b656;" vertex="1" parent="1">
          <mxGeometry x="7450" y="1075" width="100" height="100" as="geometry" />
        </mxCell>
        <mxCell id="S4ZxqDm5p7QgWU9oLSgd-455" value="&lt;div&gt;0&lt;/div&gt;&lt;div&gt;Domain : [1,2,3,4,5,6,7,8,9]&lt;/div&gt;" style="html=1;shadow=0;fontSize=12;align=center;fontStyle=0;whiteSpace=wrap;rounded=0;fillColor=#fff2cc;strokeColor=#d6b656;" vertex="1" parent="1">
          <mxGeometry x="7555" y="1075" width="100" height="100" as="geometry" />
        </mxCell>
        <mxCell id="S4ZxqDm5p7QgWU9oLSgd-456" value="6" style="html=1;shadow=0;fontSize=12;align=center;fontStyle=0;whiteSpace=wrap;rounded=0;fillColor=#fff2cc;strokeColor=#d6b656;" vertex="1" parent="1">
          <mxGeometry x="7345" y="1180" width="100" height="100" as="geometry" />
        </mxCell>
        <mxCell id="S4ZxqDm5p7QgWU9oLSgd-457" value="0&lt;div&gt;Domain : [1,2,3,4,5,6,7,8,9]&lt;br&gt;&lt;/div&gt;" style="html=1;shadow=0;fontSize=12;align=center;fontStyle=0;whiteSpace=wrap;rounded=0;" vertex="1" parent="1">
          <mxGeometry x="7450" y="1180" width="100" height="100" as="geometry" />
        </mxCell>
        <mxCell id="S4ZxqDm5p7QgWU9oLSgd-458" value="0&lt;div&gt;Domain : [1,2,3,4,5,6,7,8,9]&lt;br&gt;&lt;/div&gt;" style="html=1;shadow=0;fontSize=12;align=center;fontStyle=0;whiteSpace=wrap;rounded=0;" vertex="1" parent="1">
          <mxGeometry x="7555" y="1180" width="100" height="100" as="geometry" />
        </mxCell>
        <mxCell id="S4ZxqDm5p7QgWU9oLSgd-459" value="0&lt;div&gt;Domain : [1,2,3,4,5,6,7,8,9]&lt;/div&gt;" style="html=1;shadow=0;fontSize=12;align=center;fontStyle=0;whiteSpace=wrap;rounded=0;" vertex="1" parent="1">
          <mxGeometry x="7345" y="1285" width="100" height="100" as="geometry" />
        </mxCell>
        <mxCell id="S4ZxqDm5p7QgWU9oLSgd-460" value="9" style="html=1;shadow=0;fontSize=12;align=center;fontStyle=0;whiteSpace=wrap;rounded=0;fillColor=#fff2cc;strokeColor=#d6b656;" vertex="1" parent="1">
          <mxGeometry x="7450" y="1285" width="100" height="100" as="geometry" />
        </mxCell>
        <mxCell id="S4ZxqDm5p7QgWU9oLSgd-461" value="8" style="html=1;shadow=0;fontSize=12;align=center;fontStyle=0;whiteSpace=wrap;rounded=0;fillColor=#fff2cc;strokeColor=#d6b656;" vertex="1" parent="1">
          <mxGeometry x="7555" y="1285" width="100" height="100" as="geometry" />
        </mxCell>
        <mxCell id="S4ZxqDm5p7QgWU9oLSgd-462" value="0" style="html=1;fillColor=#CCCCCC;strokeColor=none;shadow=0;fontSize=14;fontColor=#FFFFFF;align=center;fontStyle=1;whiteSpace=wrap;horizontal=0;rounded=0;" vertex="1" parent="1">
          <mxGeometry x="7310" y="1075" width="30" height="100" as="geometry" />
        </mxCell>
        <mxCell id="S4ZxqDm5p7QgWU9oLSgd-463" value="1" style="html=1;fillColor=#CCCCCC;strokeColor=none;shadow=0;fontSize=14;fontColor=#FFFFFF;align=center;fontStyle=1;whiteSpace=wrap;horizontal=0;rounded=0;" vertex="1" parent="1">
          <mxGeometry x="7310" y="1180" width="30" height="100" as="geometry" />
        </mxCell>
        <mxCell id="S4ZxqDm5p7QgWU9oLSgd-464" value="2" style="html=1;fillColor=#CCCCCC;strokeColor=none;shadow=0;fontSize=14;fontColor=#FFFFFF;align=center;fontStyle=1;whiteSpace=wrap;horizontal=0;rounded=0;" vertex="1" parent="1">
          <mxGeometry x="7310" y="1285" width="30" height="100" as="geometry" />
        </mxCell>
        <mxCell id="S4ZxqDm5p7QgWU9oLSgd-465" value="0" style="html=1;fillColor=#CCCCCC;strokeColor=none;shadow=0;fontSize=14;fontColor=#FFFFFF;align=center;fontStyle=1;whiteSpace=wrap;rounded=0;" vertex="1" parent="1">
          <mxGeometry x="7345" y="1040" width="100" height="30" as="geometry" />
        </mxCell>
        <mxCell id="S4ZxqDm5p7QgWU9oLSgd-466" value="1" style="html=1;fillColor=#CCCCCC;strokeColor=none;shadow=0;fontSize=14;fontColor=#FFFFFF;align=center;fontStyle=1;whiteSpace=wrap;rounded=0;" vertex="1" parent="1">
          <mxGeometry x="7450" y="1040" width="100" height="30" as="geometry" />
        </mxCell>
        <mxCell id="S4ZxqDm5p7QgWU9oLSgd-467" value="1" style="html=1;fillColor=#CCCCCC;strokeColor=none;shadow=0;fontSize=14;fontColor=#FFFFFF;align=center;fontStyle=1;whiteSpace=wrap;rounded=0;" vertex="1" parent="1">
          <mxGeometry x="7555" y="1040" width="100" height="30" as="geometry" />
        </mxCell>
        <mxCell id="S4ZxqDm5p7QgWU9oLSgd-468" value="Update-domain" style="text;html=1;align=center;verticalAlign=middle;whiteSpace=wrap;rounded=0;strokeColor=none;" vertex="1" parent="1">
          <mxGeometry x="7390" y="605" width="140" height="65" as="geometry" />
        </mxCell>
        <mxCell id="S4ZxqDm5p7QgWU9oLSgd-469" value="Update-domain" style="text;html=1;align=center;verticalAlign=middle;whiteSpace=wrap;rounded=0;strokeColor=none;" vertex="1" parent="1">
          <mxGeometry x="7420" y="1890" width="140" height="65" as="geometry" />
        </mxCell>
        <mxCell id="S4ZxqDm5p7QgWU9oLSgd-470" value="original-domain" style="text;html=1;align=center;verticalAlign=middle;whiteSpace=wrap;rounded=0;strokeColor=none;" vertex="1" parent="1">
          <mxGeometry x="7420" y="1408" width="140" height="65" as="geometry" />
        </mxCell>
        <mxCell id="S4ZxqDm5p7QgWU9oLSgd-481" value="Original domain" style="text;html=1;align=center;verticalAlign=middle;whiteSpace=wrap;rounded=0;" vertex="1" parent="1">
          <mxGeometry x="8570" y="1890" width="60" height="30" as="geometry" />
        </mxCell>
        <mxCell id="S4ZxqDm5p7QgWU9oLSgd-492" value="updated domain" style="text;html=1;align=center;verticalAlign=middle;whiteSpace=wrap;rounded=0;" vertex="1" parent="1">
          <mxGeometry x="8699.5" y="1874" width="60" height="30" as="geometry" />
        </mxCell>
        <mxCell id="S4ZxqDm5p7QgWU9oLSgd-494" value="0&lt;div&gt;Domain : [2,3,4,5,6,7,8,9]&lt;br&gt;&lt;/div&gt;" style="html=1;shadow=0;fontSize=12;align=center;fontStyle=0;whiteSpace=wrap;rounded=0;" vertex="1" parent="1">
          <mxGeometry x="8678.5" y="910" width="100" height="100" as="geometry" />
        </mxCell>
        <mxCell id="S4ZxqDm5p7QgWU9oLSgd-495" value="1" style="html=1;shadow=0;fontSize=12;align=center;fontStyle=0;whiteSpace=wrap;rounded=0;fillColor=#fff2cc;strokeColor=#d6b656;" vertex="1" parent="1">
          <mxGeometry x="8678.5" y="1015" width="100" height="100" as="geometry" />
        </mxCell>
        <mxCell id="S4ZxqDm5p7QgWU9oLSgd-496" value="0&lt;div&gt;Domain : [2,3,4,5,6,7,8,9]&lt;br&gt;&lt;/div&gt;" style="html=1;shadow=0;fontSize=12;align=center;fontStyle=0;whiteSpace=wrap;rounded=0;" vertex="1" parent="1">
          <mxGeometry x="8678.5" y="1120" width="100" height="100" as="geometry" />
        </mxCell>
        <mxCell id="S4ZxqDm5p7QgWU9oLSgd-497" value="2" style="html=1;fillColor=#CCCCCC;strokeColor=none;shadow=0;fontSize=14;fontColor=#FFFFFF;align=center;fontStyle=1;whiteSpace=wrap;rounded=0;" vertex="1" parent="1">
          <mxGeometry x="8678.5" y="875" width="100" height="30" as="geometry" />
        </mxCell>
        <mxCell id="S4ZxqDm5p7QgWU9oLSgd-498" value="0&lt;div&gt;Domain : [2,3,4,5,6,7,8,9]&lt;br&gt;&lt;/div&gt;" style="html=1;shadow=0;fontSize=12;align=center;fontStyle=0;whiteSpace=wrap;rounded=0;" vertex="1" parent="1">
          <mxGeometry x="8679.5" y="1227" width="100" height="100" as="geometry" />
        </mxCell>
        <mxCell id="S4ZxqDm5p7QgWU9oLSgd-499" value="8" style="html=1;shadow=0;fontSize=12;align=center;fontStyle=0;whiteSpace=wrap;rounded=0;fillColor=#fff2cc;strokeColor=#d6b656;" vertex="1" parent="1">
          <mxGeometry x="8679.5" y="1332" width="100" height="100" as="geometry" />
        </mxCell>
        <mxCell id="S4ZxqDm5p7QgWU9oLSgd-500" value="0&lt;div&gt;Domain : [2,3,4,5,6,7,8,9]&lt;br&gt;&lt;/div&gt;" style="html=1;shadow=0;fontSize=12;align=center;fontStyle=0;whiteSpace=wrap;rounded=0;" vertex="1" parent="1">
          <mxGeometry x="8679.5" y="1437" width="100" height="100" as="geometry" />
        </mxCell>
        <mxCell id="S4ZxqDm5p7QgWU9oLSgd-501" value="0&lt;div&gt;Domain : [2,3,4,5,6,7,8,9]&lt;br&gt;&lt;/div&gt;" style="html=1;shadow=0;fontSize=12;align=center;fontStyle=0;whiteSpace=wrap;rounded=0;" vertex="1" parent="1">
          <mxGeometry x="8679.5" y="1543" width="100" height="100" as="geometry" />
        </mxCell>
        <mxCell id="S4ZxqDm5p7QgWU9oLSgd-502" value="4" style="html=1;shadow=0;fontSize=12;align=center;fontStyle=0;whiteSpace=wrap;rounded=0;fillColor=#fff2cc;strokeColor=#d6b656;" vertex="1" parent="1">
          <mxGeometry x="8679.5" y="1648" width="100" height="100" as="geometry" />
        </mxCell>
        <mxCell id="S4ZxqDm5p7QgWU9oLSgd-503" value="0&lt;div&gt;Domain : [2,3,4,5,6,7,8,9]&lt;br&gt;&lt;/div&gt;" style="html=1;shadow=0;fontSize=12;align=center;fontStyle=0;whiteSpace=wrap;rounded=0;" vertex="1" parent="1">
          <mxGeometry x="8680.5" y="1753" width="100" height="100" as="geometry" />
        </mxCell>
        <mxCell id="S4ZxqDm5p7QgWU9oLSgd-505" value="0&lt;div&gt;Domain : [1,2,3,4,5,6,7,8,9]&lt;br&gt;&lt;/div&gt;" style="html=1;shadow=0;fontSize=12;align=center;fontStyle=0;whiteSpace=wrap;rounded=0;" vertex="1" parent="1">
          <mxGeometry x="8549" y="915" width="100" height="100" as="geometry" />
        </mxCell>
        <mxCell id="S4ZxqDm5p7QgWU9oLSgd-506" value="1" style="html=1;shadow=0;fontSize=12;align=center;fontStyle=0;whiteSpace=wrap;rounded=0;fillColor=#fff2cc;strokeColor=#d6b656;" vertex="1" parent="1">
          <mxGeometry x="8549" y="1020" width="100" height="100" as="geometry" />
        </mxCell>
        <mxCell id="S4ZxqDm5p7QgWU9oLSgd-507" value="0&lt;div&gt;Domain : [1,2,3,4,5,6,7,8,9]&lt;br&gt;&lt;/div&gt;" style="html=1;shadow=0;fontSize=12;align=center;fontStyle=0;whiteSpace=wrap;rounded=0;" vertex="1" parent="1">
          <mxGeometry x="8549" y="1125" width="100" height="100" as="geometry" />
        </mxCell>
        <mxCell id="S4ZxqDm5p7QgWU9oLSgd-508" value="2" style="html=1;fillColor=#CCCCCC;strokeColor=none;shadow=0;fontSize=14;fontColor=#FFFFFF;align=center;fontStyle=1;whiteSpace=wrap;rounded=0;" vertex="1" parent="1">
          <mxGeometry x="8549" y="880" width="100" height="30" as="geometry" />
        </mxCell>
        <mxCell id="S4ZxqDm5p7QgWU9oLSgd-509" value="0&lt;div&gt;Domain : [1,2,3,4,5,6,7,8,9]&lt;br&gt;&lt;/div&gt;" style="html=1;shadow=0;fontSize=12;align=center;fontStyle=0;whiteSpace=wrap;rounded=0;" vertex="1" parent="1">
          <mxGeometry x="8550" y="1232" width="100" height="100" as="geometry" />
        </mxCell>
        <mxCell id="S4ZxqDm5p7QgWU9oLSgd-510" value="8" style="html=1;shadow=0;fontSize=12;align=center;fontStyle=0;whiteSpace=wrap;rounded=0;fillColor=#fff2cc;strokeColor=#d6b656;" vertex="1" parent="1">
          <mxGeometry x="8550" y="1337" width="100" height="100" as="geometry" />
        </mxCell>
        <mxCell id="S4ZxqDm5p7QgWU9oLSgd-511" value="0&lt;div&gt;Domain : [1,2,3,4,5,6,7,8,9]&lt;br&gt;&lt;/div&gt;" style="html=1;shadow=0;fontSize=12;align=center;fontStyle=0;whiteSpace=wrap;rounded=0;" vertex="1" parent="1">
          <mxGeometry x="8550" y="1442" width="100" height="100" as="geometry" />
        </mxCell>
        <mxCell id="S4ZxqDm5p7QgWU9oLSgd-512" value="0&lt;div&gt;Domain : [1,2,3,4,5,6,7,8,9]&lt;br&gt;&lt;/div&gt;" style="html=1;shadow=0;fontSize=12;align=center;fontStyle=0;whiteSpace=wrap;rounded=0;" vertex="1" parent="1">
          <mxGeometry x="8550" y="1548" width="100" height="100" as="geometry" />
        </mxCell>
        <mxCell id="S4ZxqDm5p7QgWU9oLSgd-513" value="4" style="html=1;shadow=0;fontSize=12;align=center;fontStyle=0;whiteSpace=wrap;rounded=0;fillColor=#fff2cc;strokeColor=#d6b656;" vertex="1" parent="1">
          <mxGeometry x="8550" y="1653" width="100" height="100" as="geometry" />
        </mxCell>
        <mxCell id="S4ZxqDm5p7QgWU9oLSgd-514" value="0&lt;div&gt;Domain : [1,2,3,4,5,6,7,8,9]&lt;br&gt;&lt;/div&gt;" style="html=1;shadow=0;fontSize=12;align=center;fontStyle=0;whiteSpace=wrap;rounded=0;" vertex="1" parent="1">
          <mxGeometry x="8551" y="1758" width="100" height="100" as="geometry" />
        </mxCell>
        <mxCell id="S4ZxqDm5p7QgWU9oLSgd-516" value="0&lt;div&gt;Domain : [1,2,3,4,5,6,7,8,9]&lt;br&gt;&lt;/div&gt;" style="html=1;shadow=0;fontSize=12;align=center;fontStyle=0;whiteSpace=wrap;rounded=0;fillColor=#00CC00;" vertex="1" parent="1">
          <mxGeometry x="8850" y="792.5" width="100" height="100" as="geometry" />
        </mxCell>
        <mxCell id="S4ZxqDm5p7QgWU9oLSgd-517" value="7" style="html=1;shadow=0;fontSize=12;align=center;fontStyle=0;whiteSpace=wrap;rounded=0;fillColor=#fff2cc;strokeColor=#d6b656;" vertex="1" parent="1">
          <mxGeometry x="8955" y="792.5" width="100" height="100" as="geometry" />
        </mxCell>
        <mxCell id="S4ZxqDm5p7QgWU9oLSgd-518" value="0&lt;div&gt;Domain : [2,3,4,5,6,7,8,9]&lt;br&gt;&lt;/div&gt;" style="html=1;shadow=0;fontSize=12;align=center;fontStyle=0;whiteSpace=wrap;rounded=0;" vertex="1" parent="1">
          <mxGeometry x="9060" y="792.5" width="100" height="100" as="geometry" />
        </mxCell>
        <mxCell id="S4ZxqDm5p7QgWU9oLSgd-519" value="1" style="html=1;shadow=0;fontSize=12;align=center;fontStyle=0;whiteSpace=wrap;rounded=0;fillColor=#fff2cc;strokeColor=#d6b656;" vertex="1" parent="1">
          <mxGeometry x="8850" y="897.5" width="100" height="100" as="geometry" />
        </mxCell>
        <mxCell id="S4ZxqDm5p7QgWU9oLSgd-520" value="9" style="html=1;shadow=0;fontSize=12;align=center;fontStyle=0;whiteSpace=wrap;rounded=0;fillColor=#fff2cc;strokeColor=#d6b656;" vertex="1" parent="1">
          <mxGeometry x="8955" y="897.5" width="100" height="100" as="geometry" />
        </mxCell>
        <mxCell id="S4ZxqDm5p7QgWU9oLSgd-521" value="5" style="html=1;shadow=0;fontSize=12;align=center;fontStyle=0;whiteSpace=wrap;rounded=0;fillColor=#fff2cc;strokeColor=#d6b656;" vertex="1" parent="1">
          <mxGeometry x="9060" y="897.5" width="100" height="100" as="geometry" />
        </mxCell>
        <mxCell id="S4ZxqDm5p7QgWU9oLSgd-522" value="0&lt;div&gt;Domain : [2,3,4,5,6,7,8,9]&lt;br&gt;&lt;/div&gt;" style="html=1;shadow=0;fontSize=12;align=center;fontStyle=0;whiteSpace=wrap;rounded=0;" vertex="1" parent="1">
          <mxGeometry x="8850" y="1002.5" width="100" height="100" as="geometry" />
        </mxCell>
        <mxCell id="S4ZxqDm5p7QgWU9oLSgd-523" value="0&lt;div&gt;Domain : [2,3,4,5,6,7,8,9]&lt;br&gt;&lt;/div&gt;" style="html=1;shadow=0;fontSize=12;align=center;fontStyle=0;whiteSpace=wrap;rounded=0;" vertex="1" parent="1">
          <mxGeometry x="8955" y="1002.5" width="100" height="100" as="geometry" />
        </mxCell>
        <mxCell id="S4ZxqDm5p7QgWU9oLSgd-524" value="0&lt;div&gt;Domain : [2,3,4,5,6,7,8,9]&lt;br&gt;&lt;/div&gt;" style="html=1;shadow=0;fontSize=12;align=center;fontStyle=0;whiteSpace=wrap;rounded=0;" vertex="1" parent="1">
          <mxGeometry x="9060" y="1002.5" width="100" height="100" as="geometry" />
        </mxCell>
        <mxCell id="S4ZxqDm5p7QgWU9oLSgd-525" value="2" style="html=1;fillColor=#CCCCCC;strokeColor=none;shadow=0;fontSize=14;fontColor=#FFFFFF;align=center;fontStyle=1;whiteSpace=wrap;rounded=0;" vertex="1" parent="1">
          <mxGeometry x="8850" y="757.5" width="100" height="30" as="geometry" />
        </mxCell>
        <mxCell id="S4ZxqDm5p7QgWU9oLSgd-526" value="3" style="html=1;fillColor=#CCCCCC;strokeColor=none;shadow=0;fontSize=14;fontColor=#FFFFFF;align=center;fontStyle=1;whiteSpace=wrap;rounded=0;" vertex="1" parent="1">
          <mxGeometry x="8955" y="757.5" width="100" height="30" as="geometry" />
        </mxCell>
        <mxCell id="S4ZxqDm5p7QgWU9oLSgd-527" value="4" style="html=1;fillColor=#CCCCCC;strokeColor=none;shadow=0;fontSize=14;fontColor=#FFFFFF;align=center;fontStyle=1;whiteSpace=wrap;rounded=0;" vertex="1" parent="1">
          <mxGeometry x="9060" y="757.5" width="100" height="30" as="geometry" />
        </mxCell>
      </root>
    </mxGraphModel>
  </diagram>
  <diagram id="RkShmx7TEUpfBRVOKmPa" name="backtracking-with-contraint-propagation-forward-looking">
    <mxGraphModel dx="1876" dy="980" grid="0" gridSize="10" guides="1" tooltips="1" connect="1" arrows="1" fold="1" page="1" pageScale="1" pageWidth="827" pageHeight="1169" math="0" shadow="0">
      <root>
        <mxCell id="0" />
        <mxCell id="1" parent="0" />
        <mxCell id="QQOcChVqIPkQUWGY0Kh2-1" value="&lt;b&gt;&lt;font style=&quot;font-size: 16px;&quot;&gt;Back-tracking with constraints propagation&amp;nbsp;&amp;nbsp;&lt;/font&gt;&lt;/b&gt;" style="text;html=1;align=center;verticalAlign=middle;whiteSpace=wrap;rounded=0;" vertex="1" parent="1">
          <mxGeometry x="239" y="12" width="350" height="55" as="geometry" />
        </mxCell>
        <mxCell id="QQOcChVqIPkQUWGY0Kh2-15" style="edgeStyle=orthogonalEdgeStyle;rounded=0;orthogonalLoop=1;jettySize=auto;html=1;entryX=0.25;entryY=0;entryDx=0;entryDy=0;" edge="1" parent="1" source="QQOcChVqIPkQUWGY0Kh2-2" target="QQOcChVqIPkQUWGY0Kh2-9">
          <mxGeometry relative="1" as="geometry" />
        </mxCell>
        <mxCell id="QQOcChVqIPkQUWGY0Kh2-2" value="Process start by calling a recursive function (let&#39;s assume it&#39;s called solver)&amp;nbsp;" style="text;html=1;align=left;verticalAlign=top;whiteSpace=wrap;rounded=0;strokeColor=default;" vertex="1" parent="1">
          <mxGeometry x="22" y="85" width="261" height="59" as="geometry" />
        </mxCell>
        <mxCell id="QQOcChVqIPkQUWGY0Kh2-9" value="Solver (this is recursive function)" style="swimlane;whiteSpace=wrap;html=1;" vertex="1" parent="1">
          <mxGeometry x="298" y="219" width="283" height="450" as="geometry" />
        </mxCell>
        <mxCell id="QQOcChVqIPkQUWGY0Kh2-26" value="empty_value = find_empty_space(grid)" style="text;html=1;align=left;verticalAlign=top;whiteSpace=wrap;rounded=0;" vertex="1" parent="QQOcChVqIPkQUWGY0Kh2-9">
          <mxGeometry x="19" y="43" width="239" height="30" as="geometry" />
        </mxCell>
        <mxCell id="QQOcChVqIPkQUWGY0Kh2-27" value="&lt;font style=&quot;font-size: 13px;&quot;&gt;# check if empty_value is true or false, if it&#39;s false (means there is no empty space is left in grid and puzzel is solved) : we will return value to end the function call. But if there is any empty value then we will pick values from it&#39;s domains and will use check_vailidity method to see if the value is respecting the constraints&lt;/font&gt;" style="text;html=1;align=left;verticalAlign=top;whiteSpace=wrap;rounded=0;" vertex="1" parent="QQOcChVqIPkQUWGY0Kh2-9">
          <mxGeometry x="21.5" y="87" width="240" height="147" as="geometry" />
        </mxCell>
        <mxCell id="QQOcChVqIPkQUWGY0Kh2-28" value="# if the selected value from domain is respecting the constraints then place it in the found empty space. And then call this solver again with update grid." style="text;html=1;align=left;verticalAlign=top;whiteSpace=wrap;rounded=0;fontSize=14;" vertex="1" parent="QQOcChVqIPkQUWGY0Kh2-9">
          <mxGeometry x="21.5" y="222" width="240" height="80" as="geometry" />
        </mxCell>
        <mxCell id="QQOcChVqIPkQUWGY0Kh2-29" value="# If no value is satisficed from domain then we will do back track to try another combination&amp;nbsp;" style="text;html=1;align=left;verticalAlign=top;whiteSpace=wrap;rounded=0;fontSize=14;" vertex="1" parent="QQOcChVqIPkQUWGY0Kh2-9">
          <mxGeometry x="27" y="309" width="240" height="80" as="geometry" />
        </mxCell>
        <mxCell id="QQOcChVqIPkQUWGY0Kh2-30" value="# we will do back-track in another condition which is if no empty space is found" style="text;html=1;align=left;verticalAlign=top;whiteSpace=wrap;rounded=0;fontSize=14;" vertex="1" parent="QQOcChVqIPkQUWGY0Kh2-9">
          <mxGeometry x="27" y="379" width="240" height="80" as="geometry" />
        </mxCell>
        <mxCell id="QQOcChVqIPkQUWGY0Kh2-14" style="edgeStyle=orthogonalEdgeStyle;rounded=0;orthogonalLoop=1;jettySize=auto;html=1;exitX=0;exitY=0.5;exitDx=0;exitDy=0;entryX=0.75;entryY=0;entryDx=0;entryDy=0;" edge="1" parent="1" source="QQOcChVqIPkQUWGY0Kh2-11" target="QQOcChVqIPkQUWGY0Kh2-9">
          <mxGeometry relative="1" as="geometry" />
        </mxCell>
        <mxCell id="QQOcChVqIPkQUWGY0Kh2-11" value="We will define a grid/board globally so that every copy of this solver function writes on it : let&#39;s say it&#39;s name is :&amp;nbsp;&amp;nbsp;sudoku_grid" style="text;html=1;align=left;verticalAlign=top;whiteSpace=wrap;rounded=0;strokeColor=default;" vertex="1" parent="1">
          <mxGeometry x="560" y="82" width="244" height="58" as="geometry" />
        </mxCell>
        <mxCell id="QQOcChVqIPkQUWGY0Kh2-16" value="Empty space finder (find_empty_space)" style="swimlane;whiteSpace=wrap;html=1;" vertex="1" parent="1">
          <mxGeometry x="20" y="219" width="259" height="127" as="geometry" />
        </mxCell>
        <mxCell id="QQOcChVqIPkQUWGY0Kh2-20" value="This funtion will look for empty space into given grid/board" style="text;html=1;align=center;verticalAlign=middle;whiteSpace=wrap;rounded=0;" vertex="1" parent="QQOcChVqIPkQUWGY0Kh2-16">
          <mxGeometry x="25.5" y="32" width="149" height="67" as="geometry" />
        </mxCell>
        <mxCell id="QQOcChVqIPkQUWGY0Kh2-21" value="Constraints Checker (check_vailidity)" style="swimlane;whiteSpace=wrap;html=1;" vertex="1" parent="1">
          <mxGeometry x="17" y="364" width="262" height="107" as="geometry" />
        </mxCell>
        <mxCell id="QQOcChVqIPkQUWGY0Kh2-22" value="This function will look if the defined constraints are holding for new chosen value" style="text;html=1;align=center;verticalAlign=middle;whiteSpace=wrap;rounded=0;" vertex="1" parent="QQOcChVqIPkQUWGY0Kh2-21">
          <mxGeometry x="43" y="33" width="149" height="67" as="geometry" />
        </mxCell>
        <mxCell id="QQOcChVqIPkQUWGY0Kh2-31" value="" style="strokeWidth=2;html=1;shape=mxgraph.flowchart.annotation_2;align=left;labelPosition=right;pointerEvents=1;rotation=-180;" vertex="1" parent="1">
          <mxGeometry x="572" y="207" width="50" height="481" as="geometry" />
        </mxCell>
        <mxCell id="QQOcChVqIPkQUWGY0Kh2-32" value="This is recursive function so will call it it self multiple time until we have solved whole puzzle by filling all empty spaces" style="text;html=1;align=left;verticalAlign=top;whiteSpace=wrap;rounded=0;" vertex="1" parent="1">
          <mxGeometry x="615" y="219" width="190" height="30" as="geometry" />
        </mxCell>
        <mxCell id="QQOcChVqIPkQUWGY0Kh2-33" value="&lt;font style=&quot;font-size: 10px;&quot;&gt;Solver (this is recursive function)&lt;/font&gt;" style="swimlane;whiteSpace=wrap;html=1;labelBackgroundColor=default;swimlaneFillColor=#00FFFF;" vertex="1" parent="1">
          <mxGeometry x="607.5" y="286" width="205" height="524" as="geometry" />
        </mxCell>
        <mxCell id="QQOcChVqIPkQUWGY0Kh2-34" value="empty_value = find_empty_space(grid)" style="text;html=1;align=left;verticalAlign=top;whiteSpace=wrap;rounded=0;fontSize=11;" vertex="1" parent="QQOcChVqIPkQUWGY0Kh2-33">
          <mxGeometry x="19" y="43" width="158" height="31" as="geometry" />
        </mxCell>
        <mxCell id="QQOcChVqIPkQUWGY0Kh2-35" value="&lt;font style=&quot;font-size: 10px;&quot;&gt;# check if empty_value is true or false, if it&#39;s false (means there is no empty space is left in grid and puzzel is solved) : we will return value to end the function call. But if there is any empty value then we will pick values from it&#39;s domains and will use check_vailidity method to see if the value is respecting the constraints&lt;/font&gt;" style="text;html=1;align=left;verticalAlign=top;whiteSpace=wrap;rounded=0;fontSize=10;" vertex="1" parent="QQOcChVqIPkQUWGY0Kh2-33">
          <mxGeometry x="21.5" y="87" width="155.5" height="116" as="geometry" />
        </mxCell>
        <mxCell id="QQOcChVqIPkQUWGY0Kh2-36" value="# if the selected value from domain is respecting the constraints then place it in the found empty space. And then call this solver again with update grid." style="text;html=1;align=left;verticalAlign=top;whiteSpace=wrap;rounded=0;fontSize=12;" vertex="1" parent="QQOcChVqIPkQUWGY0Kh2-33">
          <mxGeometry x="21.5" y="222" width="161.5" height="80" as="geometry" />
        </mxCell>
        <mxCell id="QQOcChVqIPkQUWGY0Kh2-37" value="# If no value is satisficed from domain then we will do back track to try another combination&amp;nbsp;" style="text;html=1;align=left;verticalAlign=top;whiteSpace=wrap;rounded=0;fontSize=12;" vertex="1" parent="QQOcChVqIPkQUWGY0Kh2-33">
          <mxGeometry x="24" y="318" width="162" height="66" as="geometry" />
        </mxCell>
        <mxCell id="QQOcChVqIPkQUWGY0Kh2-38" value="# we will do back-track in another condition which is if no empty space is found" style="text;html=1;align=left;verticalAlign=top;whiteSpace=wrap;rounded=0;fontSize=12;" vertex="1" parent="QQOcChVqIPkQUWGY0Kh2-33">
          <mxGeometry x="27" y="379" width="150" height="31" as="geometry" />
        </mxCell>
        <mxCell id="QQOcChVqIPkQUWGY0Kh2-45" value="&lt;font style=&quot;font-size: 10px;&quot;&gt;Solver (this is recursive function)&lt;/font&gt;" style="swimlane;whiteSpace=wrap;html=1;labelBackgroundColor=default;swimlaneFillColor=#00CC00;" vertex="1" parent="QQOcChVqIPkQUWGY0Kh2-33">
          <mxGeometry x="8.5" y="33" width="196" height="491" as="geometry" />
        </mxCell>
        <mxCell id="QQOcChVqIPkQUWGY0Kh2-46" value="empty_value = find_empty_space(grid)" style="text;html=1;align=left;verticalAlign=top;whiteSpace=wrap;rounded=0;fontSize=11;" vertex="1" parent="QQOcChVqIPkQUWGY0Kh2-45">
          <mxGeometry x="19" y="43" width="158" height="31" as="geometry" />
        </mxCell>
        <mxCell id="QQOcChVqIPkQUWGY0Kh2-47" value="&lt;font style=&quot;font-size: 10px;&quot;&gt;# check if empty_value is true or false, if it&#39;s false (means there is no empty space is left in grid and puzzel is solved) : we will return value to end the function call. But if there is any empty value then we will pick values from it&#39;s domains and will use check_vailidity method to see if the value is respecting the constraints&lt;/font&gt;" style="text;html=1;align=left;verticalAlign=top;whiteSpace=wrap;rounded=0;fontSize=10;" vertex="1" parent="QQOcChVqIPkQUWGY0Kh2-45">
          <mxGeometry x="21.5" y="87" width="155.5" height="116" as="geometry" />
        </mxCell>
        <mxCell id="QQOcChVqIPkQUWGY0Kh2-48" value="# if the selected value from domain is respecting the constraints then place it in the found empty space. And then call this solver again with update grid." style="text;html=1;align=left;verticalAlign=top;whiteSpace=wrap;rounded=0;fontSize=12;" vertex="1" parent="QQOcChVqIPkQUWGY0Kh2-45">
          <mxGeometry x="21.5" y="222" width="161.5" height="80" as="geometry" />
        </mxCell>
        <mxCell id="QQOcChVqIPkQUWGY0Kh2-49" value="# If no value is satisficed from domain then we will do back track to try another combination&amp;nbsp;" style="text;html=1;align=left;verticalAlign=top;whiteSpace=wrap;rounded=0;fontSize=12;" vertex="1" parent="QQOcChVqIPkQUWGY0Kh2-45">
          <mxGeometry x="24" y="318" width="162" height="66" as="geometry" />
        </mxCell>
        <mxCell id="QQOcChVqIPkQUWGY0Kh2-50" value="# we will do back-track in another condition which is if no empty space is found" style="text;html=1;align=left;verticalAlign=top;whiteSpace=wrap;rounded=0;fontSize=12;" vertex="1" parent="QQOcChVqIPkQUWGY0Kh2-45">
          <mxGeometry x="27" y="379" width="150" height="31" as="geometry" />
        </mxCell>
        <mxCell id="QQOcChVqIPkQUWGY0Kh2-51" value="&lt;font style=&quot;font-size: 10px;&quot;&gt;Solver (this is recursive function)&lt;/font&gt;" style="swimlane;whiteSpace=wrap;html=1;labelBackgroundColor=default;swimlaneFillColor=#FFCCFF;" vertex="1" parent="QQOcChVqIPkQUWGY0Kh2-45">
          <mxGeometry x="8" y="40" width="188" height="451" as="geometry" />
        </mxCell>
        <mxCell id="QQOcChVqIPkQUWGY0Kh2-52" value="empty_value = find_empty_space(grid)" style="text;html=1;align=left;verticalAlign=top;whiteSpace=wrap;rounded=0;fontSize=11;" vertex="1" parent="QQOcChVqIPkQUWGY0Kh2-51">
          <mxGeometry x="19" y="43" width="158" height="31" as="geometry" />
        </mxCell>
        <mxCell id="QQOcChVqIPkQUWGY0Kh2-53" value="&lt;font style=&quot;font-size: 10px;&quot;&gt;# check if empty_value is true or false, if it&#39;s false (means there is no empty space is left in grid and puzzel is solved) : we will return value to end the function call. But if there is any empty value then we will pick values from it&#39;s domains and will use check_vailidity method to see if the value is respecting the constraints&lt;/font&gt;" style="text;html=1;align=left;verticalAlign=top;whiteSpace=wrap;rounded=0;fontSize=10;" vertex="1" parent="QQOcChVqIPkQUWGY0Kh2-51">
          <mxGeometry x="21.5" y="87" width="155.5" height="116" as="geometry" />
        </mxCell>
        <mxCell id="QQOcChVqIPkQUWGY0Kh2-54" value="# if the selected value from domain is respecting the constraints then place it in the found empty space. And then call this solver again with update grid." style="text;html=1;align=left;verticalAlign=top;whiteSpace=wrap;rounded=0;fontSize=12;" vertex="1" parent="QQOcChVqIPkQUWGY0Kh2-51">
          <mxGeometry x="21.5" y="222" width="161.5" height="80" as="geometry" />
        </mxCell>
        <mxCell id="QQOcChVqIPkQUWGY0Kh2-55" value="# If no value is satisficed from domain then we will do back track to try another combination&amp;nbsp;" style="text;html=1;align=left;verticalAlign=top;whiteSpace=wrap;rounded=0;fontSize=12;" vertex="1" parent="QQOcChVqIPkQUWGY0Kh2-51">
          <mxGeometry x="24" y="318" width="162" height="66" as="geometry" />
        </mxCell>
        <mxCell id="QQOcChVqIPkQUWGY0Kh2-56" value="# we will do back-track in another condition which is if no empty space is found" style="text;html=1;align=left;verticalAlign=top;whiteSpace=wrap;rounded=0;fontSize=12;" vertex="1" parent="QQOcChVqIPkQUWGY0Kh2-51">
          <mxGeometry x="27" y="379" width="150" height="31" as="geometry" />
        </mxCell>
        <mxCell id="QQOcChVqIPkQUWGY0Kh2-57" value="&lt;font style=&quot;font-size: 10px;&quot;&gt;Solver (this is recursive function)&lt;/font&gt;" style="swimlane;whiteSpace=wrap;html=1;labelBackgroundColor=default;swimlaneFillColor=#00CC00;" vertex="1" parent="1">
          <mxGeometry x="629" y="406" width="192" height="500" as="geometry" />
        </mxCell>
        <mxCell id="QQOcChVqIPkQUWGY0Kh2-58" value="empty_value = find_empty_space(grid)" style="text;html=1;align=left;verticalAlign=top;whiteSpace=wrap;rounded=0;fontSize=11;" vertex="1" parent="QQOcChVqIPkQUWGY0Kh2-57">
          <mxGeometry x="19" y="43" width="158" height="31" as="geometry" />
        </mxCell>
        <mxCell id="QQOcChVqIPkQUWGY0Kh2-59" value="&lt;font style=&quot;font-size: 10px;&quot;&gt;# check if empty_value is true or false, if it&#39;s false (means there is no empty space is left in grid and puzzel is solved) : we will return value to end the function call. But if there is any empty value then we will pick values from it&#39;s domains and will use check_vailidity method to see if the value is respecting the constraints&lt;/font&gt;" style="text;html=1;align=left;verticalAlign=top;whiteSpace=wrap;rounded=0;fontSize=10;" vertex="1" parent="QQOcChVqIPkQUWGY0Kh2-57">
          <mxGeometry x="21.5" y="87" width="155.5" height="116" as="geometry" />
        </mxCell>
        <mxCell id="QQOcChVqIPkQUWGY0Kh2-60" value="# if the selected value from domain is respecting the constraints then place it in the found empty space. And then call this solver again with update grid." style="text;html=1;align=left;verticalAlign=top;whiteSpace=wrap;rounded=0;fontSize=12;" vertex="1" parent="QQOcChVqIPkQUWGY0Kh2-57">
          <mxGeometry x="21.5" y="222" width="161.5" height="80" as="geometry" />
        </mxCell>
        <mxCell id="QQOcChVqIPkQUWGY0Kh2-61" value="# If no value is satisficed from domain then we will do back track to try another combination&amp;nbsp;" style="text;html=1;align=left;verticalAlign=top;whiteSpace=wrap;rounded=0;fontSize=12;" vertex="1" parent="QQOcChVqIPkQUWGY0Kh2-57">
          <mxGeometry x="24" y="318" width="162" height="66" as="geometry" />
        </mxCell>
        <mxCell id="QQOcChVqIPkQUWGY0Kh2-62" value="# we will do back-track in another condition which is if no empty space is found" style="text;html=1;align=left;verticalAlign=top;whiteSpace=wrap;rounded=0;fontSize=12;" vertex="1" parent="QQOcChVqIPkQUWGY0Kh2-57">
          <mxGeometry x="27" y="379" width="150" height="31" as="geometry" />
        </mxCell>
        <mxCell id="QQOcChVqIPkQUWGY0Kh2-63" value="&lt;font style=&quot;font-size: 10px;&quot;&gt;Solver (this is recursive function)&lt;/font&gt;" style="swimlane;whiteSpace=wrap;html=1;labelBackgroundColor=default;swimlaneFillColor=#CCFFE6;" vertex="1" parent="QQOcChVqIPkQUWGY0Kh2-57">
          <mxGeometry x="4" y="49" width="188" height="451" as="geometry" />
        </mxCell>
        <mxCell id="QQOcChVqIPkQUWGY0Kh2-64" value="empty_value = find_empty_space(grid)" style="text;html=1;align=left;verticalAlign=top;whiteSpace=wrap;rounded=0;fontSize=11;" vertex="1" parent="QQOcChVqIPkQUWGY0Kh2-63">
          <mxGeometry x="19" y="43" width="158" height="31" as="geometry" />
        </mxCell>
        <mxCell id="QQOcChVqIPkQUWGY0Kh2-65" value="&lt;font style=&quot;font-size: 10px;&quot;&gt;# check if empty_value is true or false, if it&#39;s false (means there is no empty space is left in grid and puzzel is solved) : we will return value to end the function call. But if there is any empty value then we will pick values from it&#39;s domains and will use check_vailidity method to see if the value is respecting the constraints&lt;/font&gt;" style="text;html=1;align=left;verticalAlign=top;whiteSpace=wrap;rounded=0;fontSize=10;" vertex="1" parent="QQOcChVqIPkQUWGY0Kh2-63">
          <mxGeometry x="21.5" y="87" width="155.5" height="116" as="geometry" />
        </mxCell>
        <mxCell id="QQOcChVqIPkQUWGY0Kh2-66" value="# if the selected value from domain is respecting the constraints then place it in the found empty space. And then call this solver again with update grid." style="text;html=1;align=left;verticalAlign=top;whiteSpace=wrap;rounded=0;fontSize=12;" vertex="1" parent="QQOcChVqIPkQUWGY0Kh2-63">
          <mxGeometry x="21.5" y="222" width="161.5" height="80" as="geometry" />
        </mxCell>
        <mxCell id="QQOcChVqIPkQUWGY0Kh2-67" value="# If no value is satisficed from domain then we will do back track to try another combination&amp;nbsp;" style="text;html=1;align=left;verticalAlign=top;whiteSpace=wrap;rounded=0;fontSize=12;" vertex="1" parent="QQOcChVqIPkQUWGY0Kh2-63">
          <mxGeometry x="24" y="318" width="162" height="66" as="geometry" />
        </mxCell>
        <mxCell id="QQOcChVqIPkQUWGY0Kh2-68" value="# we will do back-track in another condition which is if no empty space is found" style="text;html=1;align=left;verticalAlign=top;whiteSpace=wrap;rounded=0;fontSize=12;" vertex="1" parent="QQOcChVqIPkQUWGY0Kh2-63">
          <mxGeometry x="27" y="379" width="150" height="31" as="geometry" />
        </mxCell>
      </root>
    </mxGraphModel>
  </diagram>
</mxfile>
